<?xml version="1.0" encoding="UTF-8"?>
<svg version="1.1" xmlns="http://www.w3.org/2000/svg" width="500" height="500">
<path d="M0 0 C165 0 330 0 500 0 C500 165 500 330 500 500 C335 500 170 500 0 500 C0 335 0 170 0 0 Z " fill="#CCE34F" transform="translate(0,0)"/>
<path d="M0 0 C165 0 330 0 500 0 C500 165 500 330 500 500 C335 500 170 500 0 500 C0 335 0 170 0 0 Z M174.63525391 45.16943359 C152.08369256 70.41452272 136.62277147 109.10487563 138 143 C136.92621094 142.96519531 135.85242188 142.93039063 134.74609375 142.89453125 C133.30991161 142.86637082 131.87371238 142.83907309 130.4375 142.8125 C129.73302734 142.78736328 129.02855469 142.76222656 128.30273438 142.73632812 C121.70381915 142.64509888 116.45279303 144.34376569 111.3125 148.6875 C110.77238281 149.12449219 110.23226562 149.56148437 109.67578125 150.01171875 C104.32003748 156.36620261 103.21979373 163.07241008 102.43188477 171.07373047 C102.31253571 172.15835571 102.19318665 173.24298096 102.07022095 174.36047363 C101.67942187 177.94464547 101.31047351 181.5307183 100.94140625 185.1171875 C100.66905421 187.65087894 100.39525897 190.18441561 100.12010193 192.71780396 C99.47037949 198.72957742 98.83407658 204.74261947 98.2046594 210.75654042 C97.43656079 218.09025322 96.65157194 225.42212634 95.86523438 232.75390625 C95.72628439 234.0496973 95.5873344 235.34548836 95.44417381 236.68054581 C95.16525929 239.28154526 94.88629518 241.8825394 94.60728073 244.48352814 C94.1911902 248.36920508 93.77726772 252.2551084 93.36367798 256.14105225 C91.60449374 272.63132716 89.72150489 289.10208779 87.72718811 305.56539917 C85.84035869 321.16145058 84.14747209 336.7758358 82.48910522 352.39761353 C81.6421664 360.37395261 80.7854122 368.34923853 79.92578125 376.32421875 C79.84187952 377.10279425 79.75797779 377.88136974 79.67153358 378.68353844 C78.26285607 391.73705812 76.77015347 404.77883698 75.1875 417.8125 C73.78994306 429.34776249 72.41674432 440.8828994 71.1875 452.4375 C71.00127075 454.13579956 71.00127075 454.13579956 70.8112793 455.8684082 C68.76868373 471.69807849 68.76868373 471.69807849 74.51171875 485.94140625 C78.90964821 490.67535729 83.33186479 493.64309387 89.86678302 494.27893531 C93.47943572 494.39052686 97.0812887 494.40442739 100.69566345 494.38768005 C102.09843976 494.39185561 103.50121268 494.39733434 104.90397936 494.40399987 C108.74932168 494.41844418 112.59444947 494.41421298 116.43980348 494.40683305 C120.59054025 494.40210118 124.74123063 494.41461138 128.89195251 494.42485046 C137.01979831 494.44204323 145.14756682 494.44287751 153.27542608 494.43763756 C159.88179698 494.43359564 166.48814504 494.43503968 173.09451485 494.44038582 C174.03487946 494.44113424 174.97524406 494.44188266 175.94410457 494.44265376 C177.85446799 494.44418524 179.7648314 494.44572359 181.67519481 494.44726873 C199.58853805 494.46099542 217.50183761 494.45555482 235.41517986 494.44408352 C251.80201831 494.43415023 268.18874387 494.44709317 284.57556491 494.47101771 C301.40398158 494.49540178 318.23234565 494.50501833 335.06077963 494.49836498 C344.50772069 494.49487132 353.95457491 494.4971146 363.40150261 494.51461601 C371.44315551 494.52932929 379.48466041 494.52998485 387.52631038 494.5125451 C391.62860761 494.50402564 395.73064036 494.50190853 399.83292389 494.51719666 C403.59021188 494.53102566 407.34700836 494.52630404 411.10426778 494.50695742 C413.10322771 494.50141111 415.10221255 494.51548383 417.10112518 494.53031152 C425.13733879 494.46436506 430.76162496 493.65743946 437.0234375 488.25390625 C437.46945312 487.69574219 437.91546875 487.13757813 438.375 486.5625 C438.83648437 486.00691406 439.29796875 485.45132812 439.7734375 484.87890625 C442.89058164 480.10391793 443.32847797 475.67995895 443.2644043 470.0859375 C443.25898715 469.30141205 443.25357 468.5168866 443.2479887 467.70858765 C443.08178754 457.62284069 441.90561922 447.63826481 440.76953125 437.625 C440.53408803 435.48698558 440.29946275 433.34888096 440.06559753 431.21069336 C439.44989446 425.60359772 438.82227321 419.99789827 438.19226074 414.39239502 C437.69327844 409.9349962 437.20276879 405.47668594 436.71273994 401.01829529 C434.2728828 378.82256047 431.74312719 356.63930817 429.07465553 334.46990967 C427.07736323 317.86217985 425.25520213 301.23860628 423.48937988 284.6048584 C422.64109744 276.61597125 421.7828933 268.62814854 420.921875 260.640625 C420.83785179 259.86095619 420.75382858 259.08128738 420.66725922 258.27799225 C419.10588025 243.80988947 417.43433233 229.35699631 415.65454102 214.9140625 C414.65284414 206.74742918 413.73969498 198.58063849 412.94921875 190.390625 C412.82001541 189.07442169 412.82001541 189.07442169 412.6882019 187.73162842 C412.28001519 183.57082288 411.88493308 179.40981412 411.51855469 175.24511719 C410.53843179 164.74885072 409.21864614 154.78082835 400.95703125 147.40625 C393.19023035 141.82531522 384.14145402 142.67480994 375 143 C375.02578125 141.700625 375.0515625 140.40125 375.078125 139.0625 C375.07438431 134.27441719 374.53901594 129.71572335 373.75 125 C373.54540161 123.76624634 373.54540161 123.76624634 373.33666992 122.50756836 C372.90861058 120.00153238 372.46038171 117.5002885 372 115 C371.79914795 113.90776123 371.79914795 113.90776123 371.59423828 112.79345703 C365.249408 79.68497901 345.90212079 45.65603023 318.05859375 25.984375 C268.36539994 -6.2559091 214.54827051 2.54968515 174.63525391 45.16943359 Z " fill="#CCE44F" transform="translate(0,0)"/>
<path d="M0 0 C1.00289062 -0.00773438 2.00578125 -0.01546875 3.0390625 -0.0234375 C9.8937811 -0.00572505 16.30548771 0.80837961 23 2.25 C23.87309814 2.43087158 24.74619629 2.61174316 25.64575195 2.7980957 C54.99469914 9.21085436 79.35892212 31.900957 95.125 56.375 C109.96266758 80.03054869 119.98716328 109.11584656 119 137.25 C119.97839844 137.21519531 120.95679688 137.18039063 121.96484375 137.14453125 C139.49706202 136.78250904 139.49706202 136.78250904 146.8125 143.3125 C154.18342724 151.7364982 154.93242449 162.23086122 155.96484375 172.9375 C156.12333412 174.46644866 156.28320165 175.99525511 156.4443512 177.52392578 C156.78246072 180.75556848 157.11187792 183.98792446 157.43408203 187.22119141 C157.9413419 192.30917474 158.46854364 197.39496258 159 202.48046875 C159.17735381 204.17895339 159.35469152 205.87743971 159.53201294 207.57592773 C159.61918705 208.4106662 159.70636116 209.24540466 159.79617691 210.10543823 C160.05777109 212.61710134 160.31747378 215.12895337 160.57662964 217.64086914 C161.7700994 229.19217808 163.07136816 240.72527865 164.5 252.25 C166.9767031 272.38371911 169.10416496 292.55505768 171.26511765 312.72449875 C173.26983013 331.43224923 175.28058895 350.13607066 177.5625 368.8125 C179.58853279 385.48099473 181.49002892 402.16291674 183.32662964 418.85324097 C183.64501583 421.74367371 183.96794826 424.63353723 184.29519653 427.52297974 C189.12441799 470.24767939 189.12441799 470.24767939 183 480.25 C181.25390625 482.2734375 181.25390625 482.2734375 179.5625 483.625 C179.00691406 484.08648437 178.45132812 484.54796875 177.87890625 485.0234375 C173.69925879 487.75193917 170.04874104 488.50047371 165.09720135 488.50726891 C163.31313713 488.51694224 163.31313713 488.51694224 161.4930312 488.526811 C160.19012995 488.5237138 158.88722869 488.5206166 157.54484558 488.51742554 C156.14379723 488.52116243 154.74275096 488.5257641 153.341708 488.53115618 C149.49189065 488.54339689 145.64216014 488.54312446 141.79232776 488.54076743 C137.64019929 488.54035953 133.48809875 488.55139582 129.33598328 488.56088257 C121.20119584 488.57749944 113.06643738 488.58299243 104.93163439 488.58410732 C98.31949861 488.58505748 91.70737239 488.58916614 85.09523964 488.59550858 C66.35054117 488.6131229 47.60586561 488.62234715 28.86115881 488.62084763 C27.85050912 488.62076772 26.83985943 488.6206878 25.79858398 488.62060547 C24.78670095 488.62052371 23.77481792 488.62044195 22.73227177 488.62035771 C6.33237708 488.61954476 -10.06742577 488.63868401 -26.4672939 488.6668822 C-43.30468214 488.69560434 -60.14202559 488.70942286 -76.97943896 488.70769465 C-86.43312278 488.70703051 -95.88671032 488.71253314 -105.34037209 488.73405075 C-113.38938547 488.75225373 -121.43825894 488.75661717 -129.48728398 488.7430319 C-133.5936231 488.73649775 -137.69969374 488.73640102 -141.80600739 488.7537384 C-145.56706718 488.76945469 -149.32764529 488.76662065 -153.08869322 488.74917014 C-155.08974349 488.74464404 -157.09080862 488.75976892 -159.09180099 488.77564943 C-167.30550637 488.7125469 -172.85187465 487.81998942 -179.2421875 482.3203125 C-186.33485654 473.87019484 -186.56415612 466.7980223 -185.76040649 456.04440308 C-185.41767982 452.50373441 -185.03846117 448.96893122 -184.64453125 445.43359375 C-184.43204742 443.46569382 -184.43204742 443.46569382 -184.215271 441.45803833 C-183.83409023 437.93173571 -183.44533331 434.40630837 -183.05479813 430.88103104 C-182.72768916 427.91970529 -182.40510104 424.95789324 -182.08235836 421.99608898 C-180.24493324 405.14410675 -178.3343582 388.30245093 -176.27676392 371.47579956 C-173.99242276 352.75502403 -172.00928516 334.00179707 -170 315.25 C-167.85764973 295.25963983 -165.69702292 275.27607321 -163.26634598 255.31834793 C-161.7734106 243.02729224 -160.38628507 230.72974074 -159.11073112 218.41430283 C-158.52982529 212.83158931 -157.93248757 207.25059925 -157.33908558 201.6692028 C-156.7397289 196.01818819 -156.154344 190.36593837 -155.57878113 184.71245384 C-155.21293148 181.15120464 -154.83408976 177.59141917 -154.45199966 174.03187943 C-154.2749309 172.35643159 -154.10331904 170.68039686 -153.9375267 169.00379562 C-152.17143277 151.19932233 -152.17143277 151.19932233 -146.32421875 144.26171875 C-145.78410156 143.82472656 -145.24398437 143.38773438 -144.6875 142.9375 C-144.15511719 142.48761719 -143.62273437 142.03773438 -143.07421875 141.57421875 C-137.13105063 137.77999278 -132.47730278 136.8157687 -125.5625 137.0625 C-124.83095703 137.07603516 -124.09941406 137.08957031 -123.34570312 137.10351562 C-121.56347578 137.13846126 -119.78163427 137.19225195 -118 137.25 C-118.061875 135.991875 -118.12375 134.73375 -118.1875 133.4375 C-118.09362271 111.15729092 -110.73426171 89.03583374 -101 69.25 C-100.50757813 68.23679687 -100.01515625 67.22359375 -99.5078125 66.1796875 C-93.41437335 54.37149752 -85.16704045 43.81217151 -76 34.25 C-75.23171875 33.41855469 -74.4634375 32.58710937 -73.671875 31.73046875 C-54.53974308 11.64173024 -27.70396238 -0.21365524 0 0 Z M-136 158.25 C-137.02011095 161.67776992 -137.02011095 161.67776992 -137.31445312 165.5390625 C-137.3950359 166.25845788 -137.47561867 166.97785326 -137.55864334 167.7190485 C-137.82039428 170.10264419 -138.05079426 172.48819209 -138.28125 174.875 C-138.46031598 176.5616038 -138.64136602 178.247998 -138.82427979 179.93418884 C-139.30768026 184.43892499 -139.76456284 188.94599016 -140.21665955 193.45396042 C-140.68965152 198.12150533 -141.18799085 202.78633197 -141.68457031 207.45141602 C-142.46195251 214.77781625 -143.22740333 222.1053445 -143.98242188 229.43408203 C-145.08759863 240.1517671 -146.25405873 250.86195492 -147.45648193 261.56918335 C-147.75095303 264.19600148 -148.04211429 266.82316898 -148.33251953 269.45043945 C-149.238319 277.6227603 -150.17461202 285.79049001 -151.1640625 293.953125 C-151.3121788 295.17536774 -151.3121788 295.17536774 -151.46328735 296.42230225 C-151.86750205 299.75516292 -152.27175358 303.08801895 -152.67681885 306.42077637 C-154.14179405 318.51983101 -155.48513032 330.6302083 -156.765625 342.75 C-156.84224491 343.47495981 -156.91886482 344.19991962 -156.99780655 344.94684792 C-157.76730168 352.23486017 -158.53111572 359.52344436 -159.28572559 366.81301308 C-160.67462811 380.21828395 -162.11642117 393.60629928 -163.91465759 406.96414185 C-165.24000791 416.86910123 -166.31509447 426.79839055 -167.36254883 436.73608398 C-167.69365464 439.8707679 -168.03120554 443.00471758 -168.36914062 446.13867188 C-168.58371281 448.15620968 -168.79791989 450.17378635 -169.01171875 452.19140625 C-169.11167648 453.11635391 -169.21163422 454.04130157 -169.31462097 454.99427795 C-169.56691494 457.41140784 -169.79065451 459.82882839 -170 462.25 C-170.1028833 463.3649585 -170.2057666 464.47991699 -170.31176758 465.62866211 C-169.89359288 469.14466969 -168.7352746 470.06299789 -166 472.25 C-163.31831753 472.84540631 -163.31831753 472.84540631 -160.31839752 472.75057125 C-159.1529294 472.76038554 -157.98746127 472.77019983 -156.78667593 472.78031152 C-155.50536999 472.77070652 -154.22406405 472.76110151 -152.90393066 472.75120544 C-151.52976483 472.75509729 -150.15560302 472.7607368 -148.78145075 472.76797634 C-145.00134378 472.78276601 -141.22165188 472.77252925 -137.44155812 472.75823963 C-133.36650979 472.74715351 -129.29152083 472.75906458 -125.21647644 472.76808167 C-117.23190338 472.7820323 -109.24748821 472.77444454 -101.26292264 472.75940608 C-91.96944249 472.74256699 -82.67600189 472.74575359 -73.3825112 472.74950016 C-56.80331535 472.75538208 -40.22419539 472.74119417 -23.64501953 472.71655273 C-7.5483109 472.69263099 8.54829632 472.68554805 24.64501953 472.69604492 C42.16281329 472.70744798 59.68056011 472.70939177 77.19835329 472.69494683 C79.0654478 472.69342095 80.93254232 472.69190059 82.79963684 472.69038582 C83.71834276 472.689628 84.63704868 472.68887019 85.58359417 472.68808941 C92.06543603 472.68334185 98.54725697 472.68520136 105.02909851 472.68945122 C112.92563426 472.6943722 120.82207402 472.68841897 128.71858776 472.66855692 C132.74943762 472.65866879 136.78014119 472.65359612 140.81099892 472.66144943 C144.49843626 472.6684868 148.18557788 472.6617476 151.87297612 472.6438458 C153.8442044 472.63786138 155.81546026 472.6466462 157.78667593 472.65589231 C158.95214406 472.64745237 160.11761218 472.63901243 161.31839752 472.63031673 C162.32628531 472.6292876 163.3341731 472.62825848 164.37260294 472.62719816 C167.41881587 472.18987335 168.80038213 471.37249887 171 469.25 C173.03180678 459.46789364 170.09241998 447.3104036 168.98828125 437.4296875 C168.77554994 435.48484746 168.56333719 433.53995064 168.35160828 431.59500122 C167.90573145 427.51129625 167.45566776 423.42808346 167.00219727 419.34521484 C166.43634882 414.25028553 165.87753209 409.1546213 165.32156563 404.05860519 C163.04616296 383.21036829 160.67889771 362.37566386 158.16973305 341.55428696 C156.52420609 327.87882135 154.97956261 314.194396 153.5 300.5 C153.39684668 299.54531956 153.29369335 298.59063911 153.18741417 297.60702896 C152.35023176 289.84960026 151.51876756 282.09156039 150.6875 274.33349609 C149.96098912 267.55537663 149.23225403 260.77750155 148.5 254 C148.3469638 252.58314219 148.3469638 252.58314219 148.19083595 251.13766098 C146.36919722 234.31149029 144.40353493 217.50427181 142.37329578 200.70210075 C142.27742019 199.90853739 142.18154459 199.11497402 142.08276367 198.29736328 C141.98940326 197.52473207 141.89604284 196.75210087 141.79985332 195.95605659 C140.7966081 187.61844243 139.86652064 179.2731861 138.96798706 170.92364502 C138.38223165 165.54839859 137.65534455 160.40905968 136 155.25 C132.84755025 153.14836683 132.11691316 152.99872558 128.52183723 152.98993778 C127.59933115 152.98287219 126.67682507 152.9758066 125.72636425 152.9685269 C124.71130303 152.97094198 123.6962418 152.97335707 122.65042114 152.97584534 C121.57332787 152.97060866 120.49623461 152.96537198 119.38650215 152.95997661 C115.75909591 152.94491426 112.13182996 152.94427009 108.50439453 152.94360352 C105.91111003 152.93598626 103.31782779 152.92755952 100.72454834 152.91838074 C93.66676476 152.89551812 86.60901121 152.8876089 79.55119562 152.88255429 C75.14546288 152.87929898 70.73973888 152.87277755 66.33401108 152.8655529 C54.13890679 152.84598596 41.94381065 152.82958209 29.74868965 152.82667637 C28.96810345 152.8264888 28.18751726 152.82630123 27.38327693 152.82610798 C25.80080024 152.82574172 24.21832356 152.82537802 22.63584687 152.82501686 C21.45751136 152.82474265 21.45751136 152.82474265 20.25537109 152.82446289 C19.46885685 152.82428234 18.68234261 152.82410179 17.8719946 152.82391577 C5.12349719 152.82037303 -7.62483141 152.7933449 -20.37327026 152.755965 C-33.45781203 152.71790617 -46.54226999 152.69851907 -59.62686837 152.69821686 C-66.97510392 152.69763176 -74.32313808 152.68910662 -81.67132187 152.66021919 C-88.58079246 152.63318158 -95.48985748 152.63177978 -102.39936066 152.64787483 C-104.93866214 152.64969695 -107.4779861 152.64293045 -110.01723862 152.62705612 C-113.47745614 152.60673916 -116.93625617 152.61706425 -120.39645386 152.63526917 C-121.40705364 152.6220692 -122.41765342 152.60886923 -123.45887744 152.59526926 C-129.33845013 152.66617892 -132.38210174 153.14545795 -136 158.25 Z " fill="#020200" transform="translate(256,5.75)"/>
<path d="M0 0 C1.01830799 -0.01125335 1.01830799 -0.01125335 2.05718786 -0.02273405 C4.33720057 -0.04410478 6.61669927 -0.0439504 8.89680481 -0.04379272 C10.52957461 -0.05440404 12.16233687 -0.06623374 13.79508972 -0.07919312 C18.23541198 -0.11001524 22.67557307 -0.12111983 27.11599135 -0.12683535 C29.89088702 -0.13118694 32.6657408 -0.13955993 35.44062233 -0.14933395 C45.12379217 -0.1830999 54.80683996 -0.20021715 64.49006653 -0.20297241 C73.51126448 -0.20600473 82.53177591 -0.24641444 91.55277461 -0.30412066 C99.29984403 -0.35192939 107.04668716 -0.37270451 114.79390317 -0.37276304 C119.41995628 -0.37330081 124.04533793 -0.38485994 128.67123985 -0.42393875 C133.02591247 -0.45985214 137.37933541 -0.46205606 141.73408127 -0.43876648 C143.32879288 -0.43591063 144.92357863 -0.44492775 146.51814079 -0.46694565 C160.0504115 -0.64214968 160.0504115 -0.64214968 165.20803833 3.82110596 C166.28499951 4.99099129 167.3379938 6.18392745 168.35310364 7.40786743 C169.18197083 8.14392212 170.01083801 8.87997681 170.86482239 9.63833618 C175.6580797 13.94968611 180.42250527 18.29147238 185.16560364 22.65786743 C185.70467346 23.15310913 186.24374329 23.64835083 186.79914856 24.15859985 C187.83112405 25.11115566 188.85903741 26.0681353 189.88240051 27.02993774 C191.32310179 28.37975813 192.78520703 29.70661707 194.24763489 31.03286743 C196.35310364 33.40786743 196.35310364 33.40786743 196.22810364 37.15786743 C195.35310364 40.40786743 195.35310364 40.40786743 194.35310364 41.40786743 C191.78279114 41.91177368 191.78279114 41.91177368 188.35310364 41.40786743 C185.42258127 39.36633678 182.98518105 36.87870947 180.47810364 34.34536743 C179.12784235 33.01982191 177.77628105 31.69559932 176.42341614 30.37271118 C175.75084778 29.70997192 175.07827942 29.04723267 174.3853302 28.3644104 C171.8128151 25.88770016 169.16374056 23.52849492 166.4158783 21.24807739 C164.35310364 19.40786743 164.35310364 19.40786743 162.87901306 17.57226562 C159.16809821 13.32222551 155.8366517 11.99263459 150.19824028 11.60209084 C145.93511025 11.45708389 141.68047959 11.46952435 137.41560364 11.50552368 C135.5661392 11.49613134 133.71668803 11.48366908 131.86726379 11.46827698 C127.02058555 11.43612971 122.17485612 11.44546476 117.32814026 11.46365356 C112.37411728 11.47483348 107.42033436 11.44648679 102.46638489 11.42153931 C92.761686 11.37845642 83.05786624 11.3828845 73.35310364 11.40786743 C73.35310364 17.67786743 73.35310364 23.94786743 73.35310364 30.40786743 C75.48392395 30.37306274 77.61474426 30.33825806 79.81013489 30.30239868 C81.87530681 30.27899829 83.94046392 30.26078458 86.00569153 30.24307251 C87.44032915 30.22799154 88.87492072 30.20752363 90.30940247 30.18154907 C92.37226222 30.14513306 94.43451221 30.128135 96.49763489 30.11489868 C98.35932312 30.09133301 98.35932312 30.09133301 100.25862122 30.06729126 C103.35310364 30.40786743 103.35310364 30.40786743 105.02185822 31.52432442 C106.98576453 34.30300215 106.73687716 36.50398167 106.74751282 39.88513184 C106.75664947 40.87598823 106.75664947 40.87598823 106.76597071 41.88686192 C106.78264668 44.10481225 106.7778186 46.32219135 106.77302551 48.54019165 C106.78036328 50.12856647 106.78894865 51.71693595 106.7986908 53.30529785 C106.8209481 57.62354706 106.82383533 61.94160569 106.82194328 66.25990438 C106.82182376 69.86332689 106.83038058 73.46670875 106.8387208 77.07011998 C106.85797058 85.57123903 106.8608332 94.07225989 106.8540802 102.57339478 C106.84743999 111.34572547 106.87029919 120.11763562 106.90739393 128.88988101 C106.93807623 136.41864445 106.94945251 143.94727251 106.94555712 151.47609723 C106.94348784 155.97391803 106.94899591 160.47141176 106.97344971 164.96917343 C106.99568981 169.19973443 106.9938623 173.42961139 106.97352219 177.66017532 C106.97010708 179.21258829 106.9752229 180.76504705 106.98950577 182.31739807 C107.00766953 184.43794339 106.99497571 186.55616102 106.9745636 188.67663574 C106.97527611 189.86277403 106.97598862 191.04891232 106.97672272 192.27099419 C106.16784148 196.33975665 104.47350074 197.76606934 101.35310364 200.40786743 C100.4881427 201.16325806 99.62318176 201.91864868 98.73200989 202.69692993 C93.19624372 207.28831436 87.62197775 211.82475718 81.97810364 216.28286743 C81.40777405 216.73484497 80.83744446 217.18682251 80.24983215 217.65249634 C70.30737437 225.45124337 70.30737437 225.45124337 66.60310364 225.28286743 C64.35310364 224.40786743 64.35310364 224.40786743 62.35310364 222.40786743 C62.16017972 219.99894933 62.09249572 217.70553562 62.1125946 215.29589844 C62.11088575 214.55506661 62.10917691 213.81423478 62.10741627 213.05095351 C62.10410847 210.55573296 62.1151461 208.06077826 62.12605286 205.56558228 C62.12661669 203.78205878 62.12630095 201.99853482 62.12516785 200.2150116 C62.12459225 195.36193866 62.13637988 190.50896388 62.15031576 185.65591383 C62.16278881 180.58834291 62.16399091 175.52076993 62.16636658 170.45318604 C62.17259145 160.85196212 62.18901585 151.25078356 62.20906556 141.64957964 C62.23139328 130.72108974 62.24241011 119.79259771 62.25245643 108.86409068 C62.27338123 86.37865775 62.30857671 63.89326513 62.35310364 41.40786743 C61.29510559 41.46547241 60.23710754 41.52307739 59.14704895 41.58242798 C55.16716122 41.78370605 51.18770552 41.9085543 47.20417786 42.01211548 C45.49084008 42.06695387 43.77800543 42.14166505 42.06648254 42.23770142 C26.33341327 43.0974571 26.33341327 43.0974571 19.99073792 37.64341736 C17.64454552 35.34480191 15.49893969 32.89277998 13.35310364 30.40786743 C11.70855256 28.88365303 10.04537386 27.37892123 8.35310364 25.90786743 C4.47834566 22.43003588 0.62846401 18.92628639 -3.20939636 15.40786743 C-3.73468933 14.92640259 -4.2599823 14.44493774 -4.80119324 13.94888306 C-9.63808548 9.50919256 -9.63808548 9.50919256 -9.89689636 6.53286743 C-9.64689636 3.40786743 -9.64689636 3.40786743 -8.54670238 1.73804665 C-5.71880788 -0.24194839 -3.42937808 0.0178071 0 0 Z " fill="#030401" transform="translate(130.6468963623047,222.59213256835938)"/>
<path d="M0 0 C23.57646872 12.67679474 35.0204457 36.99560074 42.6953125 61.546875 C48.21783492 80.19548639 49.83471374 98.78877857 51.33203125 118.25390625 C8.43203125 118.25390625 -34.46796875 118.25390625 -78.66796875 118.25390625 C-78.66796875 97.2770544 -78.66796875 97.2770544 -77.48046875 90.25390625 C-77.34809814 89.42906738 -77.21572754 88.60422852 -77.0793457 87.75439453 C-75.73081351 79.82978029 -73.72515149 72.14143387 -71.35058594 64.46728516 C-70.6666693 62.2496928 -70.01520859 60.02404979 -69.36328125 57.796875 C-63.10237609 37.11062783 -51.84318556 13.62683139 -32.47265625 2.40234375 C-21.71914183 -3.06510575 -11.41181518 -5.29110009 0 0 Z " fill="#CCE44F" transform="translate(270.66796875,24.74609375)"/>
<path d="M0 0 C7.26 0 14.52 0 22 0 C22.32461785 19.36713003 22.57418792 38.73348747 22.72537041 58.10278034 C22.79744619 67.09721516 22.89563188 76.08992485 23.05615234 85.08325195 C23.19606093 92.9255411 23.28609815 100.76658078 23.31723893 108.61008328 C23.33543467 112.76082361 23.3779157 116.90799096 23.48022079 121.05758095 C24.12736108 148.3498563 24.12736108 148.3498563 19.0010376 154.36044312 C15.65753807 157.34969058 12.0352215 159.09108785 8 161 C6.86342234 161.87714646 5.75166725 162.7875667 4.66940308 163.73091125 C2 166 2 166 0 166 C0 111.22 0 56.44 0 0 Z " fill="#CCE44F" transform="translate(204,264)"/>
<path d="M0 0 C12.84834046 -0.0929066 25.69660026 -0.16386985 38.54520893 -0.20724869 C44.51211269 -0.22807417 50.47878567 -0.25629982 56.44555664 -0.30175781 C62.20977721 -0.34539509 67.97377657 -0.36917497 73.73814964 -0.37950897 C75.93126085 -0.38686828 78.12436071 -0.40123895 80.31737709 -0.42292023 C94.53017235 -0.5577765 106.50565608 -0.61175378 117.9296875 8.94921875 C121.59106336 12.57605333 124.39234362 16.56910421 127 21 C127.54333984 21.91845703 127.54333984 21.91845703 128.09765625 22.85546875 C131.92933838 30.92873389 131.13942906 42.66866538 128.4375 50.9375 C124.1759491 60.80713351 117.62775128 67.22872503 108 72 C105.1640625 72.6875 105.1640625 72.6875 103 73 C103.721875 72.29875 104.44375 71.5975 105.1875 70.875 C112.28041526 63.72180501 116.10792563 58.32740468 116.4375 48.1875 C116.22471375 39.8356395 114.489042 33.33682349 108.75 27.125 C102.16296378 21.10581173 95.1037015 18.86328075 86.31567383 18.79467773 C85.14458824 18.77982834 85.14458824 18.77982834 83.94984436 18.76467896 C81.36893752 18.73308823 78.78801227 18.70831612 76.20703125 18.68359375 C74.41769431 18.66302213 72.6283622 18.6420256 70.83903503 18.62062073 C66.12907834 18.56542158 61.41907794 18.51600277 56.70904541 18.46777344 C51.90299591 18.41754269 47.09700988 18.36186483 42.29101562 18.30664062 C32.86073131 18.19908542 23.43039188 18.09763456 14 18 C14.59425781 19.15822266 15.18851562 20.31644531 15.80078125 21.50976562 C18.04558446 25.88548197 20.28929823 30.26175621 22.53271484 34.63818359 C23.49629371 36.51756322 24.46015205 38.39679959 25.42431641 40.27587891 C31.34693954 51.81913918 37.22761727 63.38080553 43 75 C41.35 75 39.7 75 38 75 C31.64836636 62.97913964 25.34875426 50.93328634 19.14013672 38.83789062 C17.87092147 36.36706017 16.59758157 33.89838247 15.32421875 31.4296875 C14.4841211 29.79440125 13.64426899 28.15898882 12.8046875 26.5234375 C12.25746536 25.46484024 12.25746536 25.46484024 11.69918823 24.38485718 C7.59116801 16.35736129 3.81667064 8.16868736 0 0 Z " fill="#050502" transform="translate(263,276)"/>
<path d="M0 0 C1.32 0 2.64 0 4 0 C2.40917836 5.42025405 -0.02188399 10.21286577 -2.61328125 15.203125 C-3.29042427 16.51987213 -3.29042427 16.51987213 -3.98124695 17.86322021 C-5.42099001 20.6609001 -6.86655593 23.4555208 -8.3125 26.25 C-9.74644217 29.03084688 -11.17918085 31.81231075 -12.61161804 34.59393311 C-13.5009344 36.31983039 -14.39133081 38.04517177 -15.28303528 39.76983643 C-18.23732506 45.48930174 -21.13381851 51.23589277 -24 57 C-14.13297311 56.93858347 -4.26620624 56.86133071 5.60053825 56.76428509 C10.18289276 56.71970328 14.76516086 56.68042082 19.34765625 56.65356445 C23.77635628 56.62740919 28.20472156 56.58692187 32.63321304 56.53681374 C34.31630388 56.52022722 35.99945251 56.50866209 37.68261337 56.50238609 C49.08845806 56.45558444 59.89950691 56.3864792 69.17578125 48.87890625 C76.74442403 41.08336625 78.43816251 33.12637024 78.33984375 22.6171875 C77.65770816 15.35675582 74.63368713 10.134879 69.1875 5.375 C68.135625 4.59125 67.08375 3.8075 66 3 C66.66 2.67 67.32 2.34 68 2 C78.23761727 5.96406056 85.24161958 12.76661629 90 22.5625 C93.55170526 32.04579464 93.52579181 42.14370586 89.8125 51.5625 C88.91980594 53.39748224 87.98634869 55.21361293 87 57 C86.6390625 57.67546875 86.278125 58.3509375 85.90625 59.046875 C80.73259898 67.39862594 71.09967991 72.15505736 62 75 C58.54428932 75.49930157 55.17185076 75.50987149 51.68505859 75.45410156 C50.70824127 75.45468567 49.73142395 75.45526978 48.7250061 75.45587158 C45.53244071 75.4531099 42.3408375 75.42210887 39.1484375 75.390625 C36.92071035 75.3831558 34.69297658 75.37746608 32.46524048 75.37347412 C26.6290238 75.3582714 20.79321135 75.31903583 14.95715332 75.2746582 C8.9910224 75.23358959 3.02482557 75.21543841 -2.94140625 75.1953125 C-14.62778083 75.15253636 -26.31385668 75.08435025 -38 75 C-28.36251271 54.57012447 -28.36251271 54.57012447 -23.80859375 45.44921875 C-23.37418472 44.5770723 -22.9397757 43.70492584 -22.49220276 42.80635071 C-21.59193343 41.00084321 -20.69065294 39.19583952 -19.78833008 37.39135742 C-18.43068868 34.67386628 -17.07952509 31.95321499 -15.72851562 29.23242188 C-10.77893105 19.30255605 -5.65519759 9.54844924 0 0 Z " fill="#020301" transform="translate(301,373)"/>
<path d="M0 0 C0.66 0 1.32 0 2 0 C2 0.66 2 1.32 2 2 C2.5775 2.25523438 3.155 2.51046875 3.75 2.7734375 C25.2883205 14.5148136 37.20971305 46.37421004 44.02734375 68.3046875 C46.93445132 78.97854513 48 89.96754509 48 101 C41.07 101 34.14 101 27 101 C26.32611335 97.63056676 25.81343359 94.60880733 25.53515625 91.2265625 C25.4587793 90.32752197 25.38240234 89.42848145 25.30371094 88.50219727 C25.22411133 87.55272217 25.14451172 86.60324707 25.0625 85.625 C24.7151361 81.74936618 24.35825467 77.87464038 24 74 C23.88011719 72.68902344 23.76023437 71.37804687 23.63671875 70.02734375 C21.02062567 46.58820674 12.81848152 24.75978886 2 4 C1.3299428 2.66836733 0.66126314 1.33602144 0 0 Z " fill="#C8DF4E" transform="translate(311,42)"/>
<path d="M0 0 C0.66 0.33 1.32 0.66 2 1 C1.38125 1.95132813 1.38125 1.95132813 0.75 2.921875 C-12.26304786 23.95188984 -19.65175012 49.59835351 -22.0625 74.125 C-22.14483887 74.93106689 -22.22717773 75.73713379 -22.31201172 76.56762695 C-23.08428416 84.36910787 -23.56913977 92.17270586 -24 100 C-30.93 100 -37.86 100 -45 100 C-45.43774935 87.96189277 -44.20645875 77.59541901 -41 66 C-40.72712158 65.01169189 -40.72712158 65.01169189 -40.44873047 64.00341797 C-37.50586595 53.6968174 -33.05018473 44.40637473 -28 35 C-27.44441406 33.9378125 -26.88882813 32.875625 -26.31640625 31.78125 C-19.60040158 19.54104964 -10.0036051 9.6130088 0 0 Z " fill="#C8E04E" transform="translate(200,43)"/>
<path d="M0 0 C17.16 0 34.32 0 52 0 C52 6.27 52 12.54 52 19 C21.18519037 21.26658845 21.18519037 21.26658845 13.609375 15.98828125 C10.40005619 13.16151294 7.71164286 10.01079925 5.20458984 6.55224609 C3.72500226 4.64563526 1.95250654 3.39597261 0 2 C0 1.34 0 0.68 0 0 Z " fill="#C5DC4D" transform="translate(141,234)"/>
</svg>
