<?xml version="1.0" encoding="UTF-8"?>
<svg version="1.1" xmlns="http://www.w3.org/2000/svg" width="500" height="500">
<path d="M0 0 C8.51068957 -0.27980697 17.01941521 -0.49211717 25.53358746 -0.62174606 C29.48865973 -0.68401091 33.44055526 -0.76822382 37.39379883 -0.90527344 C66.48636277 -1.88783535 66.48636277 -1.88783535 74.03926086 4.10223389 C76.63976068 6.64717814 78.36004873 8.71229684 80 12 C79.76831055 14.89160156 79.76831055 14.89160156 79 17 C74.34396551 15.73017241 71.84867042 13.0736933 68.6484375 9.65625 C64.88072096 5.87067699 61.75745245 5.67116821 56.70703125 5.5859375 C56.00100266 5.56657135 55.29497406 5.5472052 54.56755066 5.5272522 C52.31598939 5.46754776 50.06437672 5.4211086 47.8125 5.375 C46.28448311 5.33681171 44.75648755 5.29775948 43.22851562 5.2578125 C39.48585065 5.16185404 35.7430849 5.07778989 32 5 C32 7.31 32 9.62 32 12 C32.85464844 11.91621094 33.70929687 11.83242187 34.58984375 11.74609375 C35.69457031 11.64425781 36.79929688 11.54242188 37.9375 11.4375 C39.03964844 11.33308594 40.14179687 11.22867188 41.27734375 11.12109375 C42.62505859 11.06115234 42.62505859 11.06115234 44 11 C47.87456579 14.87456579 45.71519978 31.09204762 45.80750179 36.93704033 C45.86912915 40.7785143 45.95721277 44.61512247 46.11108398 48.45410156 C47.16589815 75.39934595 47.16589815 75.39934595 41.81689453 81.52441406 C38.51485084 84.43691847 35.06032158 86.33582113 31 88 C29.68 87.34 28.36 86.68 27 86 C27 63.23 27 40.46 27 17 C22.38 17 17.76 17 13 17 C9.56517089 14.79492452 7.70386774 13.4050009 5.125 10.5 C4.52042969 9.87996094 3.91585938 9.25992188 3.29296875 8.62109375 C1.82969353 7.11136534 0.40980136 5.55978023 -1 4 C-0.67 2.68 -0.34 1.36 0 0 Z M9 5 C11.5485124 8.96996664 11.5485124 8.96996664 15 12 C19.06495686 12.6154324 22.92030524 12.41589121 27 12 C27 9.69 27 7.38 27 5 C21.06 5 15.12 5 9 5 Z M32 17 C32 37.46 32 57.92 32 79 C36.32519114 76.91350383 36.32519114 76.91350383 40 74 C40.5798894 71.40454123 40.5798894 71.40454123 40.45410156 68.42700195 C40.45379944 67.28604568 40.45349731 66.14508942 40.45318604 64.96955872 C40.43254089 63.73823715 40.41189575 62.50691559 40.390625 61.23828125 C40.38496521 59.97735153 40.37930542 58.71642181 40.37347412 57.4172821 C40.35486056 54.06804732 40.31893566 50.71990283 40.2746582 47.37097168 C40.23370857 43.95248837 40.21546388 40.53389236 40.1953125 37.11523438 C40.15116211 30.40985451 40.08418642 23.70499021 40 17 C37.36 17 34.72 17 32 17 Z " fill="#000000" transform="translate(22,206)"/>
<path d="M0 0 C5.83491118 -0.09933715 11.66932337 -0.17168936 17.50488281 -0.21972656 C19.48739199 -0.23976497 21.46984263 -0.26700353 23.45214844 -0.30175781 C26.31199641 -0.35061954 29.17105881 -0.37304673 32.03125 -0.390625 C32.90865845 -0.41127014 33.78606689 -0.43191528 34.69006348 -0.45318604 C40.57941246 -0.45530359 45.11407138 0.59259745 50 4 C53.24443785 7.82677284 54.79903355 10.97583882 55 16 C54.51261064 20.41261437 53.54730686 23.31586642 50.75 26.8125 C43.46019879 32.61120551 36.94489489 33.21666184 28 33.3125 C27.09765625 33.34150391 26.1953125 33.37050781 25.265625 33.40039062 C23.95851563 33.41295898 23.95851563 33.41295898 22.625 33.42578125 C21.83351563 33.44036377 21.04203125 33.45494629 20.2265625 33.4699707 C17.07078649 32.80386667 16.01894101 31.49221025 14 29 C12.77495561 26.88093459 11.63032562 24.71436762 10.546875 22.51953125 C10.24179016 21.90607346 9.93670532 21.29261566 9.62237549 20.66056824 C8.98343816 19.37232361 8.34830136 18.08218769 7.71679688 16.7902832 C6.74620745 14.80474156 5.76481929 12.82484243 4.78125 10.84570312 C0 1.179836 0 1.179836 0 0 Z " fill="#FCFCFC" transform="translate(274,215)"/>
<path d="M0 0 C1.0209375 -0.02900391 2.041875 -0.05800781 3.09375 -0.08789062 C10.90881274 -0.15318357 16.43296799 1.14220736 22.25 6.5 C24.8050292 10.92216592 26.30059596 15.31150288 25.5703125 20.4609375 C23.91071575 25.80852702 20.59964575 29.37610727 15.875 32.3125 C12.50330798 33.40523948 9.34571447 33.44158988 5.81640625 33.4453125 C4.62466797 33.44660156 3.43292969 33.44789063 2.20507812 33.44921875 C0.96177734 33.44535156 -0.28152344 33.44148438 -1.5625 33.4375 C-2.77099609 33.44136719 -3.97949219 33.44523437 -5.22460938 33.44921875 C-13.23554122 33.44063714 -21.14813769 33.04579338 -29.125 32.3125 C-25.07998375 24.12564531 -20.99723605 15.95918277 -16.75 7.875 C-16.41677734 7.23103271 -16.08355469 6.58706543 -15.74023438 5.92358398 C-11.95702783 -1.21459653 -7.47330208 0.06919724 0 0 Z " fill="#FCFCFC" transform="translate(303.125,253.6875)"/>
<path d="M0 0 C0.33 9.24 0.66 18.48 1 28 C2.98 26.68 4.96 25.36 7 24 C11.68301518 22.67543775 16.35276219 22.41965618 20.9375 24.1875 C24.42630936 26.25230554 26.32520505 27.85621685 27.55053711 31.74902344 C28.10820987 34.54193101 28.21872393 37.23138313 28.31640625 40.078125 C28.35830078 41.23828125 28.40019531 42.3984375 28.44335938 43.59375 C28.48267578 44.8003125 28.52199219 46.006875 28.5625 47.25 C28.60568359 48.47203125 28.64886719 49.6940625 28.69335938 50.953125 C28.79937355 53.9686392 28.90143936 56.98423448 29 60 C30.65 60.66 32.3 61.32 34 62 C34 63.32 34 64.64 34 66 C27.07 66 20.14 66 13 66 C12.67 64.68 12.34 63.36 12 62 C13 61 13 61 15.5625 60.9375 C16.366875 60.958125 17.17125 60.97875 18 61 C18.08729047 56.93763598 18.14048992 52.87551411 18.1875 48.8125 C18.21263672 47.66201172 18.23777344 46.51152344 18.26367188 45.32617188 C18.27817383 43.65844727 18.27817383 43.65844727 18.29296875 41.95703125 C18.31653442 40.42526245 18.31653442 40.42526245 18.34057617 38.86254883 C17.94160064 35.5091523 17.0548576 33.66504663 15 31 C10.83045282 29.74126877 8.69762329 29.72870205 4.625 31.3125 C1.91910872 32.7363336 1.91910872 32.7363336 1 35 C0.91489795 36.9593604 0.89282344 38.92162794 0.90234375 40.8828125 C0.90556641 42.04941406 0.90878906 43.21601563 0.91210938 44.41796875 C0.92048828 45.64128906 0.92886719 46.86460937 0.9375 48.125 C0.94201172 49.35605469 0.94652344 50.58710938 0.95117188 51.85546875 C0.9629867 54.90369392 0.97945972 57.95182314 1 61 C2.65 61 4.3 61 6 61 C6.5625 62.9375 6.5625 62.9375 7 65 C6 66 6 66 3.95874023 66.11352539 C3.08419189 66.10828857 2.20964355 66.10305176 1.30859375 66.09765625 C0.36435547 66.09443359 -0.57988281 66.09121094 -1.55273438 66.08789062 C-2.54595703 66.07951172 -3.53917969 66.07113281 -4.5625 66.0625 C-5.55958984 66.05798828 -6.55667969 66.05347656 -7.58398438 66.04882812 C-10.05604849 66.03700007 -12.52799518 66.02051849 -15 66 C-14.67 64.35 -14.34 62.7 -14 61 C-12.02 60.505 -12.02 60.505 -10 60 C-9.67 42.84 -9.34 25.68 -9 8 C-11.97 7.505 -11.97 7.505 -15 7 C-15 5.68 -15 4.36 -15 3 C-13.25183142 2.49363393 -11.50137737 1.99515381 -9.75 1.5 C-8.77546875 1.2215625 -7.8009375 0.943125 -6.796875 0.65625 C-4 0 -4 0 0 0 Z " fill="#000000" transform="translate(178,220)"/>
<path d="M0 0 C1.27746094 -0.01675781 2.55492187 -0.03351563 3.87109375 -0.05078125 C8.51158605 0.40590212 11.79130092 1.84668007 15.375 4.8125 C18.01871244 8.15192624 17.72600488 11.77047816 17.80859375 15.84375 C17.84146484 17.12894531 17.87433594 18.41414063 17.90820312 19.73828125 C17.95566941 21.77908578 18.0001412 23.81985844 18.03930664 25.86083984 C18.07902713 27.83449623 18.13114238 29.80789091 18.18359375 31.78125 C18.2086499 32.96138672 18.23370605 34.14152344 18.25952148 35.35742188 C18.34916117 38.49834757 18.34916117 38.49834757 20.5625 41.3125 C22.61253955 42.50482613 22.61253955 42.50482613 24.5625 43.3125 C24.2325 44.3025 23.9025 45.2925 23.5625 46.3125 C18.08849517 47.51678106 15.34526031 47.24737564 10.5625 44.3125 C9.5725 43.6525 8.5825 42.9925 7.5625 42.3125 C6.593125 42.951875 5.62375 43.59125 4.625 44.25 C-0.26905351 47.01277215 -5.13644516 48.01289772 -10.68359375 46.8359375 C-14.82360561 45.45340143 -17.16913717 44.18365813 -19.4375 40.3125 C-20.36650454 35.11781626 -20.39892128 30.71093095 -17.375 26.3125 C-9.02447389 20.62703541 -1.1978069 20.1388977 8.5625 20.3125 C8.306898 18.37293186 8.03245354 16.43584011 7.75 14.5 C7.59917969 13.42105469 7.44835937 12.34210938 7.29296875 11.23046875 C6.53815014 8.21523078 6.02109589 7.1305188 3.5625 5.3125 C0.58404706 4.29355557 -1.10809458 4.23763513 -4.1875 4.9375 C-6.66289898 6.13304774 -6.66289898 6.13304774 -7.375 8.8125 C-7.395625 9.6375 -7.41625 10.4625 -7.4375 11.3125 C-6.7775 11.9725 -6.1175 12.6325 -5.4375 13.3125 C-5.8125 15.4375 -5.8125 15.4375 -6.4375 17.3125 C-8.625 18.125 -8.625 18.125 -11.4375 18.3125 C-14.75080919 15.88273992 -16.2353328 14.39072506 -17 10.3125 C-16.29911017 6.57442091 -15.153265 4.95486595 -12.4375 2.3125 C-8.28213962 0.17524475 -4.63432301 0.01400098 0 0 Z M-8.5 29.625 C-9.6666964 32.96952968 -9.41390898 34.93262276 -8.4375 38.3125 C-6.51470547 40.66033968 -6.51470547 40.66033968 -3.125 40.625 C0.85763625 40.28748845 2.55165916 39.90516851 5.5625 37.3125 C8.00922172 32.84090513 8.9342923 29.3936614 8.5625 24.3125 C2.07565868 23.90707242 -3.9761193 24.55277013 -8.5 29.625 Z " fill="#000000" transform="translate(358.4375,236.6875)"/>
<path d="M0 0 C3.44046451 3.12769501 5.70587806 6.43588204 6.37890625 11.0390625 C6.4375 13.1875 6.4375 13.1875 6.0625 16.875 C4.0625 18.875 4.0625 18.875 1.54052734 19.10205078 C0.5036377 19.09157715 -0.53325195 19.08110352 -1.6015625 19.0703125 C-2.72304687 19.06386719 -3.84453125 19.05742187 -5 19.05078125 C-6.175625 19.03402344 -7.35125 19.01726562 -8.5625 19 C-9.74585937 18.99097656 -10.92921875 18.98195313 -12.1484375 18.97265625 C-15.07832523 18.94902812 -18.0078134 18.91608514 -20.9375 18.875 C-20.6525692 20.47931294 -20.35767417 22.0818583 -20.05859375 23.68359375 C-19.81387329 25.02248657 -19.81387329 25.02248657 -19.56420898 26.38842773 C-18.74054198 29.65646374 -17.38107543 31.57952005 -14.9375 33.875 C-10.53207234 35.34347589 -6.04585589 35.5587911 -1.625 34.125 C0.20901026 32.90290459 0.20901026 32.90290459 1.5625 30.75 C2.0575 30.13125 2.5525 29.5125 3.0625 28.875 C4.3825 28.875 5.7025 28.875 7.0625 28.875 C6.95201334 32.63154639 5.7579829 34.54695061 3.125 37.0625 C-1.7957246 40.95681579 -7.14935797 42.17951302 -13.3671875 41.6796875 C-19.7534777 40.49704117 -24.27495567 38.07674789 -28.25 32.8125 C-31.87515998 26.50203634 -31.72649315 19.98352484 -30.9375 12.875 C-28.9935004 7.53594396 -26.22124257 3.29167206 -21.3125 0.3125 C-14.23284168 -2.70291003 -7.26952681 -2.7840741 0 0 Z M-17.9375 4.875 C-20.31105159 8.59356417 -20.9375 10.42021562 -20.9375 14.875 C-18.31222811 14.92882106 -15.68805287 14.96858313 -13.0625 15 C-11.94294922 15.02513672 -11.94294922 15.02513672 -10.80078125 15.05078125 C-8.84555539 15.0683959 -6.89007979 14.97820189 -4.9375 14.875 C-4.2775 14.215 -3.6175 13.555 -2.9375 12.875 C-3.1218892 9.49453127 -3.28240992 6.85763513 -5.1875 4 C-9.98410832 0.91646608 -13.33241226 1.77157131 -17.9375 4.875 Z " fill="#000000" transform="translate(108.9375,245.125)"/>
<path d="M0 0 C0.66 1.98 1.32 3.96 2 6 C2.78375 5.360625 3.5675 4.72125 4.375 4.0625 C8.02601429 1.19384592 10.31055872 0.58769904 15.0234375 0.65625 C17 1 17 1 19.5 3.125 C21.2468968 6.47321887 21.55466566 8.2758163 21 12 C19.9375 14.375 19.9375 14.375 18 16 C14.3125 16.25 14.3125 16.25 11 16 C9.66667905 13.3333581 10.32897967 11.83319697 11 9 C10.34 8.67 9.68 8.34 9 8 C6.69 9.32 4.38 10.64 2 12 C2 21.57 2 31.14 2 41 C3.98 41.66 5.96 42.32 8 43 C7.67 44.32 7.34 45.64 7 47 C-0.26 47 -7.52 47 -15 47 C-15.33 45.35 -15.66 43.7 -16 42 C-14.02 41.34 -12.04 40.68 -10 40 C-10 30.1 -10 20.2 -10 10 C-11.98 9.34 -13.96 8.68 -16 8 C-15.67 6.35 -15.34 4.7 -15 3 C-13.0636296 2.49564306 -11.12585854 1.99666126 -9.1875 1.5 C-8.10855469 1.2215625 -7.02960938 0.943125 -5.91796875 0.65625 C-3 0 -3 0 0 0 Z " fill="#000000" transform="translate(403,236)"/>
<path d="M0 0 C2.81993627 2.29119822 3.9261676 3.93097545 4.3125 7.5625 C3.95868973 11.02984065 3.675255 12.38123774 1 14.625 C-2.6875 14.875 -2.6875 14.875 -6 14.625 C-6.93065133 12.01917629 -7.14917407 10.98301776 -6.0625 8.375 C-5.5365625 7.50875 -5.5365625 7.50875 -5 6.625 C-5.66 5.635 -6.32 4.645 -7 3.625 C-12.52126614 2.96890063 -12.52126614 2.96890063 -17.375 5.1875 C-20.87320897 10.43481345 -21.77883328 16.41793478 -21 22.625 C-19.83044877 27.09492867 -18.52675331 30.53342448 -15 33.625 C-11.23265786 35.50867107 -7.15883646 34.93402306 -3.1875 33.875 C-0.65977636 32.43058649 0.0114653 31.32100373 1 28.625 C2.32 28.955 3.64 29.285 5 29.625 C3.63410617 34.095198 1.93677047 36.11216779 -2 38.625 C-8.00477188 41.66967306 -12.9362808 41.98541951 -19.48046875 40.484375 C-24.49468088 38.77410109 -27.09204 36.1591393 -29.8125 31.5625 C-32.49792973 24.91959488 -33.13971715 18.23244922 -30.75 11.375 C-27.80681365 4.53921236 -23.79365607 1.33184734 -17 -1.375 C-11.41266924 -3.17373827 -5.275733 -2.41804429 0 0 Z " fill="#000000" transform="translate(154,245.375)"/>
<path d="M0 0 C0.66 0 1.32 0 2 0 C0.44347945 5.3537465 -1.9817509 10.00150947 -4.625 14.875 C-5.04523438 15.65875 -5.46546875 16.4425 -5.8984375 17.25 C-6.9281022 19.16892057 -7.96347567 21.08477603 -9 23 C-4.26690718 22.98052382 0.46434072 22.92864122 5.19677734 22.84741211 C6.80474786 22.82429329 8.41286848 22.80985076 10.02099609 22.80444336 C12.34046299 22.79510804 14.65758914 22.75402541 16.9765625 22.70703125 C18.04567368 22.71293022 18.04567368 22.71293022 19.13638306 22.71894836 C24.8167179 22.55492194 27.14708445 20.88266638 31 17 C32.55944339 13.88111322 32.28316275 11.4545855 32 8 C30.87302723 5.46062031 29.52802548 3.33978902 28 1 C32.45596642 2.36154529 34.54952923 4.02854737 37 8 C38.75235542 12.50114825 39.51489962 16.50754567 38.0625 21.1875 C36.12758297 25.50651122 32.99365527 28.51792178 29 31 C25.62830798 32.09273948 22.47071447 32.12908988 18.94140625 32.1328125 C17.74966797 32.13410156 16.55792969 32.13539063 15.33007812 32.13671875 C14.08677734 32.13285156 12.84347656 32.12898438 11.5625 32.125 C10.35400391 32.12886719 9.14550781 32.13273437 7.90039062 32.13671875 C-0.11054122 32.12813714 -8.02313769 31.73329338 -16 31 C-10.84510659 20.56682478 -5.53125596 10.23870784 0 0 Z " fill="#070707" transform="translate(290,255)"/>
<path d="M0 0 C5.83491118 -0.09933715 11.66932337 -0.17168936 17.50488281 -0.21972656 C19.48739199 -0.23976497 21.46984263 -0.26700353 23.45214844 -0.30175781 C26.31199641 -0.35061954 29.17105881 -0.37304673 32.03125 -0.390625 C32.90865845 -0.41127014 33.78606689 -0.43191528 34.69006348 -0.45318604 C40.57941246 -0.45530359 45.11407138 0.59259745 50 4 C53.24443785 7.82677284 54.79903355 10.97583882 55 16 C54.35523311 21.83744314 52.67237684 25.2175997 48 29 C45.6875 30.3125 45.6875 30.3125 44 31 C44 30.34 44 29.68 44 29 C44.66 29 45.32 29 46 29 C47.58637141 24.83577505 48.55711915 21.45695319 48 17 C45.86510749 13.03519963 44.24586099 10.55290901 40 9 C37.43207563 8.76494889 34.96121582 8.62828472 32.390625 8.5859375 C31.66381531 8.56657135 30.93700562 8.5472052 30.18817139 8.5272522 C27.87556552 8.46765729 25.56290933 8.42115242 23.25 8.375 C21.67836418 8.33680164 20.10674887 8.29774883 18.53515625 8.2578125 C14.69027158 8.16197257 10.84528893 8.07786805 7 8 C7.33322266 8.65597168 7.66644531 9.31194336 8.00976562 9.98779297 C9.5106557 12.94811496 11.00539679 15.91149929 12.5 18.875 C13.02464844 19.90753906 13.54929687 20.94007813 14.08984375 22.00390625 C14.58613281 22.99003906 15.08242188 23.97617188 15.59375 24.9921875 C16.05458984 25.90339355 16.51542969 26.81459961 16.99023438 27.75341797 C18 30 18 30 18 32 C14.41781382 30.80593794 14.00748116 29.59157268 12.37312317 26.33837891 C12.06050034 25.69046387 11.7478775 25.04254883 11.42578125 24.375 C11.09708542 23.71290527 10.76838959 23.05081055 10.42973328 22.36865234 C9.38122974 20.25027049 8.34703825 18.12523098 7.3125 16 C6.60438896 14.56727636 5.89541497 13.13497889 5.18554688 11.703125 C0 1.19535972 0 1.19535972 0 0 Z " fill="#020202" transform="translate(274,215)"/>
<path d="M0 0 C0.66 0 1.32 0 2 0 C0.35433477 5.68502535 -2.29032784 10.76681636 -5 16 C-5.66 15.01 -6.32 14.02 -7 13 C-3.535 6.565 -3.535 6.565 0 0 Z " fill="#131313" transform="translate(290,255)"/>
<path d="M0 0 C1 3 1 3 -0.4375 6.1875 C-1.2109375 7.5796875 -1.2109375 7.5796875 -2 9 C-2.66 8.01 -3.32 7.02 -4 6 C-2.68 4.02 -1.36 2.04 0 0 Z " fill="#1B1B1B" transform="translate(287,262)"/>
</svg>
