<?xml version="1.0" encoding="UTF-8"?>
<svg version="1.1" xmlns="http://www.w3.org/2000/svg" width="1563" height="1563">
<path d="M0 0 C0.86145028 -0.00177501 1.72290057 -0.00355002 2.61045541 -0.00537882 C5.51665198 -0.01013528 8.42279928 -0.00774182 11.32899821 -0.00541991 C13.43478491 -0.00737223 15.54057124 -0.00976084 17.646357 -0.01254788 C23.46994682 -0.01896602 29.29352288 -0.01910806 35.11711557 -0.01827047 C41.43889848 -0.01843961 47.76067639 -0.02434173 54.08245683 -0.02951133 C65.17471657 -0.03776323 76.26697284 -0.04226358 87.35923541 -0.04423732 C99.26427287 -0.04636498 111.16930666 -0.05062288 123.07434237 -0.05748004 C124.20129725 -0.05812596 124.20129725 -0.05812596 125.35101889 -0.05878493 C128.41086616 -0.06054326 131.47071343 -0.0623129 134.5305607 -0.06409795 C171.63781462 -0.08570335 208.74506927 -0.09657764 245.85232804 -0.10557419 C257.88493474 -0.10850776 269.91754125 -0.1118776 281.95014775 -0.1155414 C282.7989078 -0.11579969 283.64766785 -0.11605798 284.5221479 -0.1163241 C287.95588337 -0.11737031 291.38961885 -0.11841874 294.82335433 -0.11946992 C353.55990724 -0.13743531 412.29646044 -0.15281452 471.03301571 -0.16022895 C475.64723887 -0.16081292 480.26146203 -0.16141019 484.87568519 -0.16200657 C486.24866406 -0.16218375 486.24866406 -0.16218375 487.64937987 -0.16236451 C496.92291395 -0.1635619 506.19644803 -0.16477066 515.46998211 -0.16599704 C517.32935884 -0.16624227 519.18873557 -0.16648613 521.0481123 -0.16672861 C580.76263625 -0.1745181 640.47714054 -0.19690054 700.1916559 -0.22940504 C743.09459964 -0.25275059 785.99753947 -0.27430241 828.90048945 -0.28141135 C829.78281295 -0.28155837 830.66513646 -0.28170539 831.57419703 -0.28185687 C850.94354016 -0.2850417 870.31288325 -0.28709259 889.68222661 -0.28808442 C897.47573806 -0.28849916 905.26924951 -0.28905405 913.06276095 -0.28964633 C914.34219002 -0.28973733 914.34219002 -0.28973733 915.64746613 -0.28983017 C943.12298988 -0.29184617 970.59849042 -0.30608469 998.07400607 -0.32659133 C1025.75023017 -0.3471745 1053.42642745 -0.35506523 1081.10265844 -0.34551357 C1084.92820354 -0.34419513 1088.75374868 -0.34301708 1092.57929385 -0.34192294 C1093.70415013 -0.34159317 1093.70415013 -0.34159317 1094.85173078 -0.34125673 C1106.71987745 -0.33814393 1118.5879728 -0.348463 1130.45610758 -0.36439849 C1142.12986312 -0.37979384 1153.80353248 -0.38055853 1165.47729225 -0.36685025 C1171.72049739 -0.35993247 1177.96352603 -0.35935644 1184.20671563 -0.37641034 C1189.8892235 -0.39180637 1195.57141291 -0.38870103 1201.25391132 -0.37100006 C1203.2940906 -0.36785684 1205.33429419 -0.37137986 1207.37444562 -0.38249181 C1228.39212577 -0.48948686 1246.73620423 3.86169068 1263.14397967 17.81239492 C1279.82379748 34.32513609 1286.63120966 54.6838167 1286.74869706 77.77983747 C1286.75174122 80.55890253 1286.74508317 83.33785451 1286.73829901 86.11691171 C1286.74069095 88.15240795 1286.74395748 90.18790332 1286.74801561 92.22339693 C1286.75663085 97.81920437 1286.7528111 103.41494468 1286.74695989 109.01075314 C1286.74278924 115.09776717 1286.75019174 121.18476896 1286.7561124 127.27178001 C1286.76487906 137.94098775 1286.76625341 148.61017374 1286.76260912 159.27938253 C1286.75873085 170.72512854 1286.75919109 182.17086212 1286.76491892 193.61660749 C1286.76527775 194.3400543 1286.76563657 195.06350112 1286.76600627 195.80887057 C1286.76748121 198.75545643 1286.76898561 201.70204228 1286.77052774 204.64862811 C1286.78615811 234.54949128 1286.7888422 264.45034591 1286.78637168 294.35121243 C1286.78603323 298.48191386 1286.78571113 302.61261528 1286.78540599 306.74331671 C1286.78531443 307.97402177 1286.78531443 307.97402177 1286.78522101 309.22958957 C1286.78394887 327.41610254 1286.78655095 345.60261434 1286.78993206 363.78912697 C1286.7907028 367.94232603 1286.79144753 372.09552509 1286.79219707 376.24872416 C1286.79249877 377.91558347 1286.79280065 379.58244278 1286.79310272 381.24930209 C1286.7932524 382.07553705 1286.79340208 382.90177201 1286.79355629 383.75304439 C1286.79385982 385.42429441 1286.79416451 387.09554443 1286.79447034 388.76679444 C1286.80314313 436.18622706 1286.80778743 483.60565864 1286.80352271 531.02509195 C1286.80344465 531.90310364 1286.80336659 532.78111534 1286.80328617 533.68573344 C1286.80241338 543.47641476 1286.80148411 553.26709607 1286.80053554 563.05777738 C1286.80045003 563.94172558 1286.80036452 564.82567378 1286.80027642 565.73640828 C1286.79956564 573.08113338 1286.79956564 573.08113338 1286.79923419 576.46067395 C1286.7936982 633.00313229 1286.80124128 689.5455743 1286.82000506 746.08802968 C1286.82472729 760.33557966 1286.82940781 774.58312965 1286.83384192 788.83067971 C1286.83411524 789.70796442 1286.83438856 790.58524913 1286.83467017 791.48911822 C1286.84304162 818.52810674 1286.84772114 845.56709389 1286.84854949 872.60608369 C1286.84857585 873.45500441 1286.84860222 874.30392513 1286.84862938 875.17857072 C1286.84917017 893.81443386 1286.8487977 912.45029689 1286.84758967 931.08615999 C1286.84716405 937.75436841 1286.84679892 944.42257684 1286.84646023 951.09078526 C1286.84637493 952.74965291 1286.84628599 954.40852055 1286.84619341 956.06738819 C1286.84474484 982.49634038 1286.85186955 1008.92528148 1286.86319737 1035.35423101 C1286.87484775 1062.71287753 1286.8754107 1090.07150424 1286.86335395 1117.43015084 C1286.86210213 1120.3690311 1286.86089864 1123.30791137 1286.85973322 1126.24679166 C1286.85944293 1126.96803728 1286.85915264 1127.68928291 1286.85885354 1128.43238446 C1286.85453087 1139.84523965 1286.86025422 1151.25806667 1286.87017342 1162.67091744 C1286.87971876 1173.89757222 1286.87827327 1185.12418398 1286.86596719 1196.35083985 C1286.85969283 1202.35438476 1286.85815628 1208.35782765 1286.86983053 1214.36136679 C1286.88035976 1219.82630766 1286.87700541 1225.29105998 1286.862726 1230.75599074 C1286.86000452 1232.71740926 1286.86227075 1234.67884292 1286.87023314 1236.64024716 C1286.9634344 1261.28722987 1281.80169961 1282.2110887 1264.19866717 1300.43739492 C1249.16535491 1315.34092318 1229.89367451 1320.62161155 1209.2858029 1320.6605435 C1207.33179615 1320.65143968 1205.37779109 1320.64196702 1203.42378771 1320.63216573 C1201.30804786 1320.6363443 1199.19231088 1320.64227377 1197.07658023 1320.64978319 C1191.27189918 1320.66532437 1185.46748513 1320.65605816 1179.66280854 1320.64267138 C1173.34422078 1320.63251107 1167.02567347 1320.6455696 1160.70709145 1320.65564471 C1149.63594622 1320.67008688 1138.56488067 1320.6697913 1127.49373209 1320.65945607 C1115.61868344 1320.64843802 1103.74368052 1320.64614014 1091.8686291 1320.65440542 C1091.11764887 1320.65492211 1090.36666863 1320.6554388 1089.59293143 1320.65597114 C1086.53413689 1320.65810431 1083.4753424 1320.66029915 1080.41654796 1320.66257225 C1051.94761612 1320.68371355 1023.47871491 1320.68517149 995.00977862 1320.67398244 C993.74520245 1320.67348567 993.74520245 1320.67348567 992.45507929 1320.67297886 C991.61067556 1320.67264714 990.76627184 1320.67231542 989.89628012 1320.67197365 C964.16562578 1320.66187887 938.43498409 1320.65927631 912.70432818 1320.66406423 C910.98093665 1320.66437415 909.25754512 1320.66468277 907.53415359 1320.66499011 C900.60846588 1320.66623199 893.68277818 1320.66750666 886.75709048 1320.66882916 C867.39722055 1320.6724971 848.03735058 1320.67477957 828.67748034 1320.67597371 C827.79589567 1320.6760283 826.91431099 1320.67608288 826.00601163 1320.67613912 C797.91711389 1320.6777761 769.82822057 1320.67326934 741.73932421 1320.6645754 C740.82835678 1320.6642944 739.91738934 1320.66401341 738.97881683 1320.66372389 C724.18552372 1320.65914416 709.3922307 1320.65426628 694.59893769 1320.6493632 C635.92790431 1320.62993802 577.25690743 1320.63083964 518.5858742 1320.65028554 C503.80002371 1320.65517035 489.01417322 1320.66001457 474.22832263 1320.6645754 C473.31788996 1320.66485719 472.40745729 1320.66513898 471.46943575 1320.66542932 C443.40967875 1320.67405472 415.34992478 1320.67771103 387.2901665 1320.67597371 C386.40923012 1320.67591938 385.52829375 1320.67586504 384.62066233 1320.67580906 C365.28226009 1320.67455911 345.94385817 1320.6720245 326.60545624 1320.6683317 C319.68597964 1320.66701515 312.76650304 1320.66576282 305.84702642 1320.66452886 C304.12565878 1320.6642193 302.40429115 1320.66390438 300.68292351 1320.66358407 C274.95946617 1320.65881068 249.23602311 1320.66287357 223.51256755 1320.67297886 C222.66951677 1320.67331004 221.82646599 1320.67364122 220.95786822 1320.67398244 C219.69562737 1320.67447854 219.69562737 1320.67447854 218.40788672 1320.67498465 C190.02067499 1320.68601957 161.63350002 1320.68195498 133.24629354 1320.66085947 C130.19720165 1320.65865008 127.14810971 1320.65650326 124.09901774 1320.65440542 C123.35072456 1320.65388459 122.60243138 1320.65336376 121.83146265 1320.65282715 C109.98907007 1320.64494162 98.14672324 1320.65042623 86.30433479 1320.66148144 C74.65616721 1320.67206996 63.0080922 1320.66799833 51.35993247 1320.64942509 C45.13062499 1320.63989724 38.90149069 1320.63668297 32.67218858 1320.65104902 C27.0024033 1320.6639915 21.33294445 1320.65845022 15.66318285 1320.63832638 C13.62763808 1320.63430619 11.59206613 1320.63693993 9.556543 1320.64715013 C-14.31151763 1320.75835266 -33.04104945 1314.93713646 -50.69195783 1298.04676992 C-69.29792489 1278.57372867 -70.8351558 1253.35954593 -70.76785886 1227.84149438 C-70.7699489 1225.82240664 -70.77291418 1223.80331965 -70.77666759 1221.78423432 C-70.78442742 1216.25261829 -70.77981066 1210.72107246 -70.77311169 1205.18945763 C-70.76802631 1199.16504814 -70.77456287 1193.1406492 -70.77959836 1187.11624122 C-70.78681564 1176.56309457 -70.78667403 1166.00996562 -70.78150403 1155.45681936 C-70.77599305 1144.13853188 -70.77484764 1132.8202564 -70.77897871 1121.5019682 C-70.77923705 1120.78592687 -70.7794954 1120.06988553 -70.77976157 1119.33214598 C-70.78082816 1116.41560939 -70.78192559 1113.49907281 -70.78306212 1110.58253625 C-70.79363022 1083.44379669 -70.79436285 1056.30506516 -70.78876722 1029.16632444 C-70.78860163 1028.36282269 -70.78843604 1027.55932095 -70.78826543 1026.73147067 C-70.78809957 1025.92667722 -70.78793371 1025.12188377 -70.78776282 1024.29270265 C-70.78271441 999.7640275 -70.78141462 975.23535568 -70.78380811 950.70668012 C-70.78396307 949.06347117 -70.78411738 947.42026222 -70.78427105 945.77705328 C-70.784892 939.17349536 -70.78552933 932.56993745 -70.78619058 925.96637954 C-70.78802451 907.5071531 -70.78916577 889.04792664 -70.78976285 870.58870012 C-70.78979015 869.74814061 -70.78981744 868.90758111 -70.78984556 868.04155011 C-70.79066399 841.26150835 -70.78841095 814.48146773 -70.7840637 787.70142633 C-70.7839232 786.83296462 -70.7837827 785.96450292 -70.78363795 785.0697242 C-70.78134811 770.96690714 -70.77890916 756.8640901 -70.7764576 742.76127307 C-70.76674554 686.8321028 -70.7671955 630.9029421 -70.77691877 574.97377187 C-70.7793612 560.87922111 -70.78178332 546.78467035 -70.7840637 532.69011956 C-70.78420459 531.82223666 -70.78434549 530.95435375 -70.78449066 530.06017136 C-70.78880385 503.30867921 -70.79063142 476.55718785 -70.78976285 449.80569535 C-70.78973569 448.96574139 -70.78970852 448.12578742 -70.78968053 447.2603803 C-70.78905553 428.82096946 -70.78778818 410.3815587 -70.78594185 391.94214794 C-70.78528358 385.34421534 -70.78465742 378.74628272 -70.78404043 372.14835011 C-70.78388565 370.50699301 -70.78372819 368.86563591 -70.78356803 367.22427882 C-70.78118203 342.7035765 -70.78321146 318.18287794 -70.78826543 293.66217609 C-70.78843102 292.85875714 -70.78859661 292.05533819 -70.78876722 291.22757322 C-70.78893258 290.42563981 -70.78909795 289.62370641 -70.78926832 288.79747199 C-70.79478775 261.73512397 -70.7927495 234.67278559 -70.78220573 207.61043895 C-70.78110105 204.70263771 -70.78002764 201.79483645 -70.77897871 198.88703519 C-70.77871829 198.17342406 -70.77845788 197.45981292 -70.77818957 196.7245772 C-70.77424937 185.43865874 -70.77698639 174.1527523 -70.78251672 162.86683492 C-70.78781564 151.76153859 -70.78576699 140.65625886 -70.77648854 129.55096405 C-70.77173013 123.6139034 -70.77010617 117.67688812 -70.77730051 111.73982889 C-70.78378556 106.33293988 -70.78098109 100.92613629 -70.77093919 95.51925344 C-70.76893396 93.58108897 -70.77023295 91.64291735 -70.77535106 89.7047586 C-70.83806851 64.12845017 -68.32562133 40.60786568 -49.70758283 21.29676992 C-48.98441877 20.58134023 -48.26125471 19.86591054 -47.51617658 19.12880117 C-46.92707502 18.50618398 -46.33797346 17.88356679 -45.73102033 17.24208242 C-37.3819155 9.0764744 -24.80325919 3.65326881 -13.51617658 1.12880117 C-12.8232363 0.95670916 -12.13029601 0.78461714 -11.41635754 0.60731022 C-7.6057757 -0.02140845 -3.84995917 -0.00980955 0 0 Z " fill="#FEFEFE" transform="translate(181.51617658138275,112.87119883298874)"/>
<path d="M0 0 C1.20551464 -0.00495952 2.41102927 -0.00991903 3.65307465 -0.01502883 C7.00164871 -0.02575601 10.34972522 -0.02305424 13.69827383 -0.01469534 C17.34033304 -0.00889141 20.98234411 -0.02043528 24.6243903 -0.02975702 C31.0084202 -0.04367844 37.39237924 -0.04640041 43.77642155 -0.04179764 C53.26978472 -0.03497083 62.76307603 -0.04521639 72.25642922 -0.0587552 C90.1973608 -0.08368304 108.13826265 -0.08818335 126.07920877 -0.08628923 C139.93241335 -0.08491687 153.7856076 -0.08873029 167.63881016 -0.09621429 C169.62814974 -0.09726462 171.61748931 -0.09831224 173.60682889 -0.09935716 C175.08804949 -0.10013617 175.08804949 -0.10013617 176.59919373 -0.10093093 C178.08310539 -0.10171114 178.08310539 -0.10171114 179.59699506 -0.10250711 C180.58790923 -0.10303111 181.5788234 -0.1035551 182.59976528 -0.10409497 C210.47588063 -0.1186814 238.35199218 -0.12695938 266.22811127 -0.12234497 C267.27931062 -0.12217302 268.33050996 -0.12200106 269.41356384 -0.1218239 C274.74161497 -0.12093499 280.06966609 -0.11999018 285.39771722 -0.11902589 C286.45590897 -0.11883485 287.51410072 -0.11864382 288.60435888 -0.118447 C290.74428051 -0.11805991 292.88420213 -0.11766958 295.02412376 -0.11727602 C328.32304493 -0.11130568 361.62189661 -0.1267445 394.92080212 -0.15888214 C432.32188463 -0.19494818 469.72292309 -0.21429325 507.12402409 -0.20934343 C511.11102879 -0.20887345 515.09803348 -0.2084632 519.08503819 -0.20809174 C520.55761857 -0.20793816 520.55761857 -0.20793816 522.05994806 -0.20778148 C536.88831981 -0.20658599 551.716644 -0.21856238 566.54500294 -0.23723602 C583.40701643 -0.25846025 600.26893006 -0.26233597 617.13094798 -0.24293643 C626.56933393 -0.23259985 636.00747641 -0.23610664 645.44584041 -0.25946729 C651.7497242 -0.27368785 658.05342761 -0.26974801 664.35729919 -0.25102152 C667.94959633 -0.2408611 671.54141922 -0.23856614 675.13368694 -0.25834221 C679.00528515 -0.27946381 682.87616295 -0.26184672 686.74777222 -0.24050903 C687.86019076 -0.25278656 688.9726093 -0.26506408 690.11873749 -0.27771366 C700.3022836 -0.16014265 707.50274109 3.5377995 715.12514782 10.19561005 C715.65261608 10.6535495 716.18008434 11.11148895 716.72353649 11.58330536 C722.27225163 16.45488105 727.63299358 21.54022834 732.97500134 26.63628387 C736.93545179 30.41325316 740.96557509 34.07463639 745.10048962 37.65947723 C748.32506488 40.49206419 751.43970736 43.43950838 754.56264782 46.38311005 C758.97510501 50.52296631 763.4077893 54.61334016 767.99233532 58.56279755 C772.54075193 62.5619714 776.94859173 66.72077713 781.3912611 70.83672333 C788.38171697 77.30437561 795.42131702 83.7162923 802.50796032 90.07842255 C807.90652189 94.94868452 813.24995213 99.87968245 818.60366344 104.79912567 C823.71575156 109.49549125 828.83149938 114.18636144 834.00014782 118.82061005 C835.68881977 120.34014199 837.37621882 121.86108919 839.06264782 123.38311005 C839.59068005 123.85925751 840.11871227 124.33540497 840.66274548 124.82598114 C859.84661662 142.17022754 859.84661662 142.17022754 860.56264782 151.94561005 C860.39892393 159.24769561 857.10038824 165.92402756 852.31655407 171.3713913 C850.63596275 172.87980622 848.9524623 174.15062234 847.06264782 175.38311005 C845.67046032 176.31123505 845.67046032 176.31123505 844.25014782 177.25811005 C839.08303728 179.08179612 833.96551642 179.60988756 828.81655407 177.4338913 C824.66913265 174.94857449 821.35298657 171.92655178 818.06264782 168.38311005 C813.96593728 164.16471504 809.74979784 160.17241578 805.29702282 156.3323288 C802.68413406 154.05290311 800.12334761 151.72098651 797.56264782 149.38311005 C794.42181226 146.51839189 791.27164026 143.67125102 788.06264782 140.88311005 C784.85365538 138.09496907 781.70348338 135.2478282 778.56264782 132.38311005 C774.77330656 128.92735591 770.95181084 125.51788115 767.08217907 122.1526413 C762.16528226 117.84441257 757.3362575 113.43624849 752.48452282 109.05498505 C748.71963932 105.65966066 744.95071231 102.27252662 741.12514782 98.94561005 C736.93100417 95.29373952 732.8317049 91.54044821 728.72280407 87.7932663 C725.87237748 85.21072121 722.9843889 82.67655901 720.08217907 80.1526413 C715.16528226 75.84441257 710.3362575 71.43624849 705.48452282 67.05498505 C697.84957258 60.13251944 697.84957258 60.13251944 690.06264782 53.38311005 C689.49121461 52.86494711 688.9197814 52.34678417 688.33103204 51.81291932 C685.38449461 49.95565612 683.45189165 50.00441991 679.97943783 49.99834919 C678.72441802 49.98889265 677.46939821 49.97943611 676.17634749 49.96969301 C674.78108585 49.9743229 673.38582511 49.9792294 671.9905653 49.98438263 C670.51042931 49.97894519 669.03029765 49.97219447 667.55017304 49.96424073 C663.47739663 49.94616836 659.40480211 49.94677821 655.33199501 49.95037019 C650.94208276 49.9509927 646.55223225 49.93438663 642.16234875 49.91985321 C634.55475696 49.89703435 626.94721106 49.88517644 619.33958721 49.88072395 C608.3401982 49.87427059 597.34089226 49.85134758 586.34153667 49.82438066 C568.49663227 49.78107898 550.65173135 49.75113155 532.80678844 49.72954559 C515.47018244 49.70854602 498.13360502 49.68127987 480.79702282 49.64556122 C479.19458254 49.64226298 479.19458254 49.64226298 477.55976972 49.63889811 C472.20055453 49.62782872 466.84133961 49.61663586 461.48212481 49.60538161 C417.00898305 49.51214864 372.53584939 49.44302645 328.06264782 49.38311005 C328.06264782 75.45311005 328.06264782 101.52311005 328.06264782 128.38311005 C336.92108532 128.2645163 345.77952282 128.14592255 354.90639782 128.02373505 C361.23513018 127.94928544 367.56385074 127.87741219 373.89264965 127.8092556 C382.08882974 127.72064584 390.28479265 127.62598234 398.48061657 127.50859833 C404.97023984 127.41567069 411.45985236 127.33717364 417.94985342 127.27578902 C421.38431796 127.24280638 424.81836185 127.202746 428.25251293 127.14538574 C432.09228494 127.08488302 435.93151137 127.04989138 439.77163219 127.02080536 C441.46772625 126.9852076 441.46772625 126.9852076 443.19808483 126.94889069 C450.95150219 126.92745093 456.27028688 128.06731128 462.26967907 133.31279755 C462.79948376 133.95475067 463.32928844 134.5967038 463.87514782 135.25811005 C464.41784313 135.89490692 464.96053844 136.5317038 465.51967907 137.18779755 C470.17922182 143.8173242 470.49243374 149.00355036 470.44575787 156.90068436 C470.45071738 158.07296605 470.4556769 159.24524774 470.4607867 160.45305312 C470.47152337 163.71302089 470.46880628 166.97266029 470.4604532 170.23262493 C470.4546541 173.77696489 470.46619006 177.32125518 470.47551489 180.86558175 C470.4894423 187.07958967 470.49215656 193.29352479 470.4875555 199.50754547 C470.48073122 208.7481049 470.49097106 217.98859045 470.50451306 227.22913962 C470.52944666 244.69236936 470.53394092 262.15556857 470.53204709 279.61881325 C470.53067491 293.1035254 470.53448733 306.58822694 470.54197216 320.07293701 C470.54302249 322.00914894 470.54407011 323.94536087 470.54511502 325.8815728 C470.54563437 326.84267866 470.54615371 327.80378451 470.54668879 328.79401479 C470.54720893 329.75686498 470.54772908 330.71971517 470.54826498 331.71174264 C470.54905097 333.15840775 470.54905097 333.15840775 470.54985284 334.63429843 C470.56444032 361.76772063 470.5727168 388.90113893 470.56810284 416.03456497 C470.56793088 417.05785599 470.56775893 418.08114701 470.56758176 419.13544685 C470.56669285 424.32207437 470.56574804 429.50870189 470.56478375 434.6953294 C470.56459272 435.72543763 470.56440169 436.75554587 470.56420486 437.81686951 C470.56381777 439.9000001 470.56342744 441.98313069 470.56303389 444.06626128 C470.55706402 476.47887285 470.57249982 508.89141302 470.60464001 541.30400848 C470.64070713 577.70782846 470.66005092 614.11160316 470.6551013 650.51544213 C470.65463131 654.39630142 470.65422106 658.27716072 470.6538496 662.15802002 C470.65369602 663.59140037 470.65369602 663.59140037 470.65353934 665.0537379 C470.65234388 679.48705342 470.66431996 693.92032008 470.68299389 708.35362244 C470.70421964 724.76733796 470.70809235 741.1809509 470.6886943 757.59467098 C470.67835863 766.78199253 470.68186213 775.96906394 470.70522515 785.15636294 C470.71944784 791.29292982 470.71550327 797.42931144 470.69677939 803.56586579 C470.68662087 807.06262035 470.68431878 810.55888776 470.70410007 814.05561206 C470.72120756 817.82491842 470.70760086 821.59291468 470.6862669 825.36217117 C470.70468319 826.98550391 470.70468319 826.98550391 470.72347152 828.64163125 C470.62821191 836.6785773 468.77151837 843.47924244 463.11806235 849.42993377 C461.17145919 851.19671722 459.16024917 852.7991871 457.06264782 854.38311005 C456.41038219 854.89390106 455.75811657 855.40469208 455.08608532 855.93096161 C453.0935596 857.47794747 451.08113814 858.99519667 449.06264782 860.50811005 C443.22405861 864.92568399 437.47560793 869.43002373 431.81264782 874.07061005 C427.09493299 877.9357742 422.35059761 881.74811158 417.50014782 885.44561005 C412.88395268 888.96595567 408.33317871 892.55344818 403.81264782 896.19561005 C398.47974808 900.48983053 393.07983701 904.68235565 387.62514782 908.82061005 C381.24692821 913.66231133 375.00040937 918.64083283 368.80556774 923.71440887 C363.70129537 927.88729549 358.51016816 931.92624803 353.26967907 935.9260788 C349.86410521 938.5271369 346.49231588 941.17010906 343.12514782 943.82061005 C342.54797009 944.27476288 341.97079235 944.72891571 341.37612438 945.19683075 C338.98701575 947.07773862 336.59902686 948.96006248 334.2115736 950.84307098 C311.24307674 968.95550891 311.24307674 968.95550891 301.10171032 968.75811005 C294.19972528 967.90645122 289.82356852 963.56673618 285.38686657 958.5198288 C280.7230943 950.99450893 280.63748723 944.00460254 280.69350433 935.37335205 C280.6900428 934.06407356 280.68658127 932.75479507 280.68301484 931.40584147 C280.6738267 927.77106751 280.68331702 924.13654611 280.69584924 920.50179101 C280.70616633 916.54781863 280.6990367 912.59387146 280.69411677 908.63989401 C280.68789809 901.71003359 280.69282252 894.78025046 280.70503139 887.85039902 C280.7231351 877.54597544 280.72403893 867.24160061 280.72140543 856.93716403 C280.71746329 839.60356426 280.72748961 822.26999879 280.74545765 804.936409 C280.76320448 787.77225322 280.77475463 770.60811172 280.77801609 753.44394684 C280.77822231 752.37700974 280.77842853 751.31007263 280.778641 750.2108041 C280.77965599 744.7924412 280.78056014 739.37407829 280.78142162 733.95571536 C280.78772403 695.57050126 280.80793937 657.18530582 280.83632946 618.80010223 C280.86387942 581.50778554 280.8851319 544.21547394 280.8978529 506.92314911 C280.89844477 505.19909284 280.89844477 505.19909284 280.89904859 503.44020716 C280.90300413 491.89782622 280.90683157 480.35544523 280.91056517 468.81306421 C280.91817395 445.29958801 280.92663771 421.78611213 280.9356184 398.27263641 C280.93603027 397.19150826 280.93644214 396.11038011 280.93686649 394.9964905 C280.96447174 322.79202259 281.01200772 250.58756503 281.06264782 178.38311005 C280.28150112 178.38679722 279.50035442 178.39048439 278.69553661 178.39428329 C259.67405684 178.48268406 240.65261816 178.54884385 221.63097668 178.59035873 C212.43218126 178.6109695 203.2335231 178.63906167 194.03481579 178.68486786 C186.01567555 178.72478115 177.99663473 178.75055366 169.97739792 178.75946403 C165.7326282 178.76467119 161.48814289 178.77687877 157.24346447 178.80603027 C153.24451422 178.8332705 149.24596434 178.84153779 145.24693012 178.83554077 C143.78284113 178.83663718 142.31873814 178.84453995 140.85472965 178.85993195 C130.57848787 178.9626321 123.46218804 178.17751021 115.84389782 170.7385788 C115.13878063 170.06117645 114.43366344 169.38377411 113.70717907 168.68584442 C112.6456361 167.63880341 112.6456361 167.63880341 111.56264782 166.57061005 C110.13690441 165.18771685 108.70982716 163.80619745 107.28139782 162.4260788 C106.23363171 161.41094208 106.23363171 161.41094208 105.1646986 160.37529755 C102.48124371 157.83209291 99.70741056 155.40675397 96.91128063 152.98882294 C94.28928308 150.71136944 91.74047376 148.36293287 89.18764782 146.00811005 C83.8474668 141.09392637 78.46556228 136.2283043 73.06264782 131.38311005 C67.65971477 126.53789911 62.27900878 121.67102407 56.93764782 116.75811005 C53.70047566 113.78092724 50.45127053 110.82358149 47.12514782 107.94561005 C42.99509597 104.36508693 38.99660712 100.64731243 34.98745251 96.93291473 C30.05619128 92.36714362 25.06966813 87.86566342 20.06264782 83.38311005 C14.65926924 78.53840066 9.27900359 73.67101929 3.93764782 68.75811005 C0.70047566 65.78092724 -2.54872947 62.82358149 -5.87485218 59.94561005 C-9.52784929 56.76942519 -13.1153657 53.52479007 -16.68735218 50.25811005 C-17.24285755 49.75481171 -17.79836292 49.25151337 -18.37070179 48.73296356 C-26.05863244 41.66853584 -31.07903605 35.12459511 -31.56235218 24.44561005 C-31.3274685 16.6105616 -28.74672836 12.35246003 -23.44907093 6.8323288 C-16.27400997 0.27614102 -9.24464328 -0.05328067 0 0 Z " fill="#010101" transform="translate(225.93735218048096,296.6168899536133)"/>
<path d="M0 0 C32.01 0 64.02 0 97 0 C97.27053704 60.83199494 97.52864015 121.66398283 97.67749023 182.49641418 C97.67969915 183.39685147 97.68190806 184.29728875 97.68418391 185.22501202 C97.73207121 204.79426828 97.77639401 224.3635311 97.81704527 243.9328037 C97.83700254 253.52966681 97.85774741 263.12652814 97.87890625 272.72338867 C97.88099839 273.67838813 97.88309054 274.63338758 97.88524608 275.61732642 C97.95341945 306.56786759 98.07359356 337.51794118 98.22075553 368.46819911 C98.37171778 400.27550471 98.4701763 432.08255158 98.50263984 463.89020938 C98.50725027 468.38351073 98.51246046 472.87681121 98.51803589 477.37011147 C98.51911466 478.25445127 98.52019342 479.13879108 98.52130488 480.04992907 C98.54020757 494.28162277 98.61440158 508.51251612 98.70931254 522.74388353 C98.80356598 537.05380296 98.83947421 551.36292956 98.81602204 565.67314848 C98.80385796 574.17432866 98.83622968 582.67260572 98.93276069 591.17326116 C98.99288219 596.85632779 98.99454171 602.53749981 98.94930902 608.22069869 C98.92519942 611.45791975 98.93480787 614.68858214 98.99813092 617.92543068 C99.36919638 638.06537227 99.36919638 638.06537227 93.59275627 644.2644335 C90.33957549 647.16138951 86.86734077 649.50415061 83.11871612 651.70924918 C79.53028447 653.89537079 76.2635009 656.50251804 72.9375 659.0625 C71.60842812 660.0530089 70.27789473 661.04156257 68.9453125 662.02734375 C64.35318385 665.4606792 59.88999084 669.04705652 55.42675781 672.64526367 C51.03324534 676.18422526 46.59379169 679.65110992 42.11328125 683.07958984 C37.49542192 686.61392134 32.90132901 690.17806966 28.3125 693.75 C27.56323242 694.33265625 26.81396484 694.9153125 26.04199219 695.515625 C21.98350452 698.67280097 17.93029647 701.83654041 13.8828125 705.0078125 C13.05483154 705.65524414 12.22685059 706.30267578 11.3737793 706.96972656 C9.77212113 708.22229098 8.17197636 709.47679344 6.57348633 710.73339844 C5.85700928 711.29317383 5.14053223 711.85294922 4.40234375 712.4296875 C3.45089478 713.17581299 3.45089478 713.17581299 2.48022461 713.93701172 C1 715 1 715 0 715 C0 479.05 0 243.1 0 0 Z " fill="#FDFDFD" transform="translate(554,475)"/>
<path d="M0 0 C5.94 0 11.88 0 18 0 C15.74973035 6.75080896 15.74973035 6.75080896 14.09570312 10.05151367 C13.54372253 11.1600898 13.54372253 11.1600898 12.98059082 12.2910614 C12.38691711 13.46763054 12.38691711 13.46763054 11.78125 14.66796875 C11.36387573 15.50225906 10.94650146 16.33654938 10.51647949 17.19612122 C9.63072024 18.96462448 8.74302152 20.73215752 7.85351562 22.4987793 C6.52807344 25.1317329 5.20880007 27.76769895 3.890625 30.40429688 C-0.75223666 39.67010917 -5.49266602 48.87661141 -10.34338379 58.03520203 C-14.30799043 65.54006231 -18.10359594 73.12468733 -21.87353516 80.72875977 C-27.16433506 91.39636087 -32.47315683 102.04450365 -38.09375 112.54296875 C-42.55905549 120.94558753 -46.75932718 129.48263743 -51 138 C-55.90603923 147.85372124 -60.82001559 157.69026838 -66.01904297 167.39355469 C-71.5816349 177.86127728 -76.78273129 188.52009721 -82.05053711 199.13818359 C-82.44739212 199.93612335 -82.84424713 200.73406311 -83.25312805 201.55618286 C-83.98797415 203.03383364 -84.72116653 204.51230898 -85.45207214 205.99191284 C-87.93306814 210.97717326 -90.5301903 215.89554167 -93.15585327 220.80560303 C-93.52616511 221.498972 -93.89647696 222.19234097 -94.27801037 222.90672112 C-95.1849338 224.60469789 -96.09241087 226.30237895 -97 228 C-59.24961612 228.06879716 -21.49924175 228.12159513 16.25119223 228.15319599 C20.71677799 228.15694772 25.18236364 228.16083072 29.64794922 228.16479492 C30.53689683 228.16558185 31.42584444 228.16636878 32.34172985 228.16717956 C46.70009288 228.18020257 61.05841955 228.20383914 75.41676107 228.23145839 C90.17029728 228.2595993 104.92381456 228.27619454 119.67737651 228.28226548 C128.76736499 228.28636399 137.85725067 228.29926744 146.94720748 228.3237494 C153.19639619 228.33971406 159.44553244 228.34437634 165.69474003 228.34050413 C169.29011111 228.3385991 172.88530369 228.34133686 176.48064232 228.35761642 C204.71513071 228.47893282 230.07235914 225.96114257 255 212 C255.97453125 211.45601562 256.9490625 210.91203125 257.953125 210.3515625 C284.52939371 194.42134295 304.35787675 167.98954427 312 138 C312.37125 136.824375 312.7425 135.64875 313.125 134.4375 C317.07817938 118.90715243 316.50919018 99.52917492 313 84 C312.63261719 82.17082031 312.63261719 82.17082031 312.2578125 80.3046875 C306.81262424 54.83393707 291.4971573 29.09687345 269.43359375 14.62109375 C267.56134766 13.41344098 265.68190579 12.22248412 263.78393555 11.05566406 C260.88036732 9.26647777 258.25982542 7.57685129 256 5 C282.37632552 10.80763131 305.54174381 24.60709117 325 43 C325.81082031 43.74636719 326.62164063 44.49273438 327.45703125 45.26171875 C347.92376021 64.76151563 361.82414953 92.32353452 367 120 C367.17587646 120.93602051 367.35175293 121.87204102 367.53295898 122.83642578 C368.97795438 131.25453594 369.34934638 139.46819314 369.3125 148 C369.30976578 149.00947189 369.30976578 149.00947189 369.30697632 150.03933716 C369.12136227 190.97781434 354.01746929 226.29409565 326 256 C325.14341797 256.91845703 325.14341797 256.91845703 324.26953125 257.85546875 C300.03011273 283.01610033 269.51047414 296.48066575 235.31982422 301.64624023 C233.72973789 301.8887192 232.14665745 302.18079412 230.57311726 302.51417351 C225.5449574 303.19783796 220.57908386 303.13738787 215.51029968 303.12698364 C214.34542536 303.12854363 213.18055104 303.13010362 211.9803775 303.13171089 C208.75263151 303.13500692 205.52492319 303.13382333 202.29717815 303.13072467 C198.8089922 303.1284596 195.32081129 303.13195698 191.83262634 303.13470459 C184.98026021 303.13915986 178.12790503 303.13818386 171.27553847 303.13529195 C165.66186434 303.13302319 160.04819326 303.1327318 154.43451881 303.13381577 C153.23023158 303.13404561 153.23023158 303.13404561 152.00161532 303.13428011 C150.36906276 303.13459993 148.73651019 303.13492415 147.10395763 303.1352527 C131.75314998 303.13811028 116.40234828 303.13482324 101.0515416 303.12945233 C88.06780523 303.12504781 75.08407798 303.12574982 62.1003418 303.13037109 C-87.01307302 303.18207796 -87.01307302 303.18207796 -152 302 C-150.5410011 297.49244703 -148.79239479 293.30453188 -146.65625 289.08203125 C-146.16336487 288.09694832 -146.16336487 288.09694832 -145.66052246 287.09196472 C-144.96307832 285.70008762 -144.26369803 284.30917921 -143.5625 282.91918945 C-142.5268018 280.86564171 -141.49721491 278.80913113 -140.46875 276.75195312 C-136.84392518 269.52209768 -133.13525334 262.34299038 -129.34375 255.19921875 C-122.6613936 242.58541076 -116.35448508 229.78091093 -110 217 C-96.43519256 189.71681444 -96.43519256 189.71681444 -89.81835938 177.27880859 C-83.6521665 165.63625945 -77.86494824 153.79629507 -72 142 C-58.41843794 114.68311552 -58.41843794 114.68311552 -51.78430176 102.21069336 C-45.80355327 90.91984402 -40.18711453 79.44052348 -34.5 68 C-27.51290094 53.9443536 -20.49793907 39.91774265 -13.13964844 26.05224609 C-10.29411571 20.68420147 -7.57146661 15.25668185 -4.875 9.8125 C-4.39546875 8.84892578 -3.9159375 7.88535156 -3.421875 6.89257812 C-2.27930751 4.59601747 -1.13933567 2.29816569 0 0 Z " fill="#010101" transform="translate(942,914)"/>
<path d="M0 0 C2.90840785 -0.00091845 5.8168157 -0.00184512 8.72522354 -0.00278473 C9.44613152 -0.0030089 10.1670395 -0.00323308 10.90979317 -0.00346404 C22.83966726 -0.00749134 34.76948349 -0.02528575 46.69933484 -0.04814425 C59.2111135 -0.07191341 71.72286253 -0.08431981 84.23466408 -0.08548617 C91.15800264 -0.08639096 98.08126154 -0.09184952 105.00457764 -0.11030579 C111.4295573 -0.12739517 117.85442534 -0.12892038 124.27942276 -0.12016678 C126.61297517 -0.11940207 128.94653617 -0.12366328 131.28006744 -0.13362503 C168.64290077 -0.28374681 207.08250598 7.77665002 236.45129776 32.23744965 C237.01687393 32.70441254 237.5824501 33.17137543 238.16516495 33.65248871 C242.33078803 37.10323422 246.41710146 40.63412686 250.45129776 44.23744965 C251.25309464 44.95287933 252.05489151 45.66830902 252.88098526 46.4054184 C264.8153765 57.70593171 274.05520522 71.64974705 281.45129776 86.23744965 C282.01461807 87.34733246 282.57793839 88.45721527 283.15832901 89.6007309 C292.8802573 109.7583493 296.68366297 130.39171675 296.70129776 152.61244965 C296.70230988 153.75494675 296.70230988 153.75494675 296.70334244 154.9205246 C296.68732797 166.29184217 296.22663706 177.16953028 293.45129776 188.23744965 C293.27969131 188.93499359 293.10808487 189.63253754 292.93127823 190.35121918 C283.37456683 228.33039308 259.6331259 260.3023213 226.31848526 280.81557465 C192.64092133 300.80508404 192.64092133 300.80508404 180.01379776 298.86244965 C179.24036026 298.55307465 179.24036026 298.55307465 178.45129776 298.23744965 C179.74100479 297.54522308 179.74100479 297.54522308 181.05676651 296.83901215 C208.45469358 281.84282788 229.21024752 258.39418655 238.45129776 228.23744965 C244.42461539 207.67686827 245.19219042 183.93733496 239.45129776 163.23744965 C239.13418839 162.04248871 238.81707901 160.84752777 238.49036026 159.6163559 C233.67685237 143.48598372 225.26059167 129.05050722 214.45129776 116.23744965 C213.85832901 115.49366058 213.26536026 114.74987152 212.65442276 113.9835434 C207.94111965 108.24902462 202.28258589 103.78994652 196.45129776 99.23744965 C195.81707901 98.71409027 195.18286026 98.1907309 194.52942276 97.65151215 C169.13599637 77.31429897 138.38706586 73.44522715 106.88011098 73.57257855 C103.15447207 73.58201143 99.42895884 73.56218185 95.7033577 73.54625702 C89.27852697 73.52263596 82.85388777 73.51675232 76.42901993 73.52360344 C67.14027028 73.53348174 57.85173013 73.5155412 48.56301451 73.49123613 C33.48556898 73.45252049 18.40818418 73.43569396 3.33069229 73.43300629 C-11.29857109 73.43035079 -25.92776366 73.41715419 -40.55700302 73.39003754 C-41.91409545 73.38752747 -41.91409545 73.38752747 -43.29860389 73.38496669 C-47.83825073 73.37650602 -52.37789715 73.36784081 -56.91754341 73.359074 C-94.46125254 73.28683449 -132.00492809 73.25027592 -169.54870224 73.23744965 C-167.81213455 76.72528469 -166.07319413 80.21193173 -164.33385849 83.69838715 C-163.84743881 84.67541595 -163.36101913 85.65244476 -162.85985947 86.65908051 C-159.97670509 92.43503595 -157.03547981 98.17245132 -153.98620224 103.86244965 C-149.00100848 113.23472468 -144.2796037 122.73522092 -139.54870224 132.23744965 C-132.6841873 146.05686243 -132.6841873 146.05686243 -125.54870224 159.73744965 C-120.2663718 169.60408829 -115.32927717 179.64418326 -110.34167099 189.66176605 C-104.06813518 202.26263142 -104.06813518 202.26263142 -97.54870224 214.73744965 C-92.26885197 224.59945568 -87.3338862 234.63473712 -82.34872055 244.64766693 C-78.0164691 253.34591927 -73.67984598 262.03507293 -69.11120224 270.61244965 C-65.4614126 277.46509977 -61.91377026 284.36445077 -58.42370224 291.29994965 C-57.93716171 292.26014008 -57.45062119 293.22033051 -56.94933701 294.20961761 C-56.50517441 295.09665375 -56.06101181 295.98368988 -55.60338974 296.8976059 C-55.20619736 297.68788177 -54.80900497 298.47815765 -54.39977646 299.29238129 C-53.54870224 301.23744965 -53.54870224 301.23744965 -53.54870224 303.23744965 C-59.81870224 303.23744965 -66.08870224 303.23744965 -72.54870224 303.23744965 C-73.16277939 302.00405853 -73.77685654 300.77066742 -74.40954208 299.49990082 C-76.73714019 294.82629906 -79.06758662 290.15412208 -81.3987999 285.48232269 C-82.39824845 283.47846514 -83.39697273 281.47424614 -84.39489365 279.46962738 C-89.32485228 269.56751007 -94.27326678 259.68233615 -99.46276474 249.9132309 C-106.30808695 237.01943242 -112.73880433 223.91573294 -119.23522568 210.84389496 C-127.24723141 194.71662795 -127.24723141 194.71662795 -135.54870224 178.73744965 C-142.3694527 165.90443687 -148.76783552 152.85731754 -155.23522568 139.84389496 C-163.24723141 123.71662795 -163.24723141 123.71662795 -171.54870224 107.73744965 C-178.3694527 94.90443687 -184.76783552 81.85731754 -191.23522568 68.84389496 C-197.48072591 56.28394359 -203.78688162 43.77034131 -210.36022568 31.37856293 C-213.37880136 25.68442409 -216.28999517 19.93855942 -219.17370224 14.17494965 C-219.7009288 13.13274261 -220.22815536 12.09053558 -220.77135849 11.01674652 C-221.51579208 9.53077972 -221.51579208 9.53077972 -222.27526474 8.0147934 C-222.71435165 7.14072845 -223.15343857 6.26666351 -223.60583115 5.36611176 C-224.54870224 3.23744965 -224.54870224 3.23744965 -224.54870224 1.23744965 C-149.69849839 0.42972448 -74.85424533 0.023163 0 0 Z " fill="#010101" transform="translate(1014.5487022399902,522.7625503540039)"/>
<path d="M0 0 C74.58 0 149.16 0 226 0 C226 26.4 226 52.8 226 80 C179.47 80 132.94 80 85 80 C85 79.34 85 78.68 85 78 C84.41734375 77.74605469 83.8346875 77.49210937 83.234375 77.23046875 C80.75811967 75.86679667 79.19479374 74.35774797 77.25 72.3125 C74.04049798 68.947917 70.63189725 65.91030905 67.12304688 62.86694336 C63.71305232 59.86829704 60.42328231 56.74536834 57.125 53.625 C51.96269539 48.76254574 46.76652854 43.95037833 41.4765625 39.2265625 C36.83211902 35.05095874 32.26096117 30.79527997 27.67773438 26.55273438 C25.47467983 24.51381893 23.27004301 22.47662238 21.06469727 20.44018555 C19.98668461 19.44466149 18.90904298 18.44873551 17.83178711 17.45239258 C15.08300736 14.91231725 12.32487106 12.38352132 9.55078125 9.87109375 C8.71945679 9.11614624 8.71945679 9.11614624 7.87133789 8.34594727 C6.81421498 7.38688003 5.75490607 6.43021513 4.69311523 5.47631836 C1.11153038 2.22306077 1.11153038 2.22306077 0 0 Z " fill="#FEFEFE" transform="translate(281,346)"/>
</svg>
