<?xml version="1.0" encoding="UTF-8"?>
<svg version="1.1" xmlns="http://www.w3.org/2000/svg" width="2813" height="938">
<path d="M0 0 C15.87394563 -0.09388946 31.74781496 -0.16419584 47.62197018 -0.20724869 C54.99441304 -0.2277798 62.36668232 -0.25571681 69.73901367 -0.30175781 C76.17281349 -0.34191806 82.60648745 -0.36750127 89.04040915 -0.37635398 C92.43986305 -0.38152002 95.83895725 -0.39345803 99.2382946 -0.42292023 C117.45651343 -0.56322626 133.34992554 0.12143728 150.19140625 7.75390625 C152.40071081 8.73411231 154.58781299 9.61148567 156.8515625 10.44921875 C184.75715929 20.78596485 206.31642374 37.03197669 219.4296875 64.234375 C228.94085973 86.01087485 231.25476257 114.50172553 223 137 C222.62617187 138.05445313 222.25234375 139.10890625 221.8671875 140.1953125 C212.28720469 165.00175806 192.36645267 186.44821701 168.1796875 197.65600586 C151.15759528 204.86385242 132.69689722 206.15634425 114.46533203 206.12939453 C112.91231241 206.13075272 111.35929311 206.132535 109.80627441 206.13470459 C105.5911462 206.13925423 101.37604257 206.13749286 97.16091394 206.1343255 C92.66146443 206.13175957 88.16201676 206.13415374 83.66256714 206.13571167 C76.03789912 206.13753348 68.41324076 206.13513958 60.78857422 206.13037109 C53.13101559 206.1256347 45.47347649 206.12545447 37.81591797 206.13037109 C-13.46419215 206.16253342 -64.72639933 205.83281502 -116 205 C-114.59424073 202.02155655 -113.18678206 199.04391902 -111.77905273 196.06640625 C-111.38720543 195.23612915 -110.99535812 194.40585205 -110.59163666 193.55041504 C-106.5346511 184.973541 -102.31678818 176.48031775 -98.0625 168 C-97.47214966 166.82062866 -97.47214966 166.82062866 -96.86987305 165.61743164 C-92.31101061 156.51168679 -87.71225251 147.43550547 -82.90649414 138.45703125 C-78.44044274 130.05478297 -74.24067666 121.51737848 -70 113 C-65.0691746 103.09646112 -60.1283121 93.21109724 -54.90625 83.45703125 C-50.02143631 74.26500009 -45.44296295 64.91544529 -40.80404663 55.59783936 C-35.67409293 45.29780779 -30.46973569 35.05036491 -25.05859375 24.89453125 C-21.91759984 18.99017353 -18.96491991 12.99429459 -16 7 C-11.71 7 -7.42 7 -3 7 C-2.34 5.35 -1.68 3.7 -1 2 C-0.67 1.34 -0.34 0.68 0 0 Z " fill="#FEFEFE" transform="translate(1773,498)"/>
<path d="M0 0 C0.86361241 -0.00445784 1.72722483 -0.00891569 2.61700732 -0.01350862 C3.5612418 -0.01332426 4.50547629 -0.01313989 5.47832394 -0.01294994 C6.98854867 -0.01846498 6.98854867 -0.01846498 8.52928299 -0.02409142 C11.91358249 -0.0351316 15.29785128 -0.0389728 18.6821661 -0.04278088 C21.10510003 -0.04904564 23.52803301 -0.05569245 25.95096493 -0.0626936 C33.23310272 -0.08192851 40.51523798 -0.09252679 47.79739347 -0.10142139 C51.23331425 -0.10580954 54.66923351 -0.1111753 58.10515308 -0.11641026 C69.54108421 -0.13342803 80.97701439 -0.14791667 92.41295624 -0.155159 C95.38013428 -0.15706869 98.34731231 -0.15898904 101.31449032 -0.16094494 C102.42061608 -0.16167055 102.42061608 -0.16167055 103.54908781 -0.16241082 C115.46355419 -0.17069026 127.37791948 -0.19598922 139.29234184 -0.22852562 C151.54754669 -0.26171708 163.80270044 -0.27961896 176.05795044 -0.28280324 C182.9292845 -0.28495814 189.80047154 -0.29355484 196.67176151 -0.31926441 C203.1486668 -0.34344295 209.62538056 -0.34672182 216.10232449 -0.33650303 C218.46642784 -0.33601086 220.83054474 -0.34223599 223.19460773 -0.35605907 C257.39439643 -0.54466918 284.19222703 8.2912231 309.01590633 32.41156483 C326.72915717 51.28461185 336.38052629 77.5162782 335.92215633 103.27093983 C334.14151523 130.78740944 324.25456055 154.85657181 303.92215633 173.82172108 C291.15931758 184.29245817 277.422722 191.23271677 261.67215633 196.13422108 C260.25472284 196.61111459 258.83807846 197.09035876 257.42215633 197.57172108 C255.83925286 198.09385938 254.25587582 198.61456312 252.67215633 199.13422108 C251.18715633 199.63308826 251.18715633 199.63308826 249.67215633 200.14203358 C248.06340633 200.66410389 248.06340633 200.66410389 246.42215633 201.19672108 C245.44762508 201.51769764 244.47309383 201.8386742 243.46903133 202.16937733 C230.72282905 205.40838141 218.27438951 205.41483405 205.21121883 205.36468983 C203.13255498 205.36349386 201.05389058 205.36304574 198.9752264 205.36330128 C194.62986491 205.36174423 190.2845867 205.35352153 185.93924618 205.34003162 C180.43886009 205.32314997 174.93856604 205.31921498 169.43815708 205.31997681 C165.14463112 205.31970125 160.85112428 205.31415769 156.55760479 205.30697536 C154.5335406 205.30384713 152.5094743 205.3018354 150.48540783 205.30108166 C136.19096136 205.28993802 121.94812331 204.86145831 107.67215633 204.13422108 C106.68215633 201.65922108 106.68215633 201.65922108 105.67215633 199.13422108 C101.05215633 199.13422108 96.43215633 199.13422108 91.67215633 199.13422108 C90.99749325 197.77965809 90.32283016 196.4250951 89.62772274 195.02948475 C87.07647827 189.908624 84.52240777 184.78917683 81.96756649 179.67010975 C80.87111573 177.47224038 79.7753887 175.27400978 78.68045712 173.07538319 C73.00615782 161.68257603 67.29029021 150.32251506 61.32257748 139.08031178 C55.97268788 128.97357964 50.93154674 118.71128702 45.84940243 108.46820545 C40.81258669 98.32386878 35.70276263 88.23158586 30.39664364 78.22528553 C25.22507884 68.44531012 20.33712857 58.52429399 15.42215633 48.61371326 C10.40059324 38.49604826 5.30817185 28.4276682 -0.00631046 18.46002674 C-3.02486752 12.78407813 -5.8023561 7.0491788 -8.32784367 1.13422108 C-5.48249389 0.32543364 -2.95448134 0.00709697 0 0 Z " fill="#FEFEFE" transform="translate(1665.3278436660767,248.86577892303467)"/>
<path d="M0 0 C0.703513 -0.00465992 1.407026 -0.00931984 2.13185757 -0.01412097 C4.48916328 -0.02607156 6.84589268 -0.01667558 9.2032032 -0.00736332 C10.91035091 -0.01153622 12.61749585 -0.0170135 14.32463562 -0.02368313 C19.01594135 -0.03816231 23.70707177 -0.03388529 28.39838719 -0.02651632 C33.45780359 -0.02179305 38.51718161 -0.03428707 43.57658577 -0.04453373 C53.48860356 -0.06174378 63.40055803 -0.06255713 73.31258689 -0.05732083 C81.36825587 -0.05328187 89.42390612 -0.05471942 97.4795742 -0.06006908 C99.19838945 -0.06119172 99.19838945 -0.06119172 100.95192824 -0.06233703 C103.27967119 -0.06386848 105.60741413 -0.06540683 107.93515708 -0.066952 C129.77236885 -0.08068511 151.60954482 -0.07523373 173.44675578 -0.06376678 C193.42903871 -0.05383434 213.41122905 -0.06677386 233.39349769 -0.09070098 C253.90572101 -0.11507783 274.41790119 -0.12470328 294.93013871 -0.11804825 C306.44842224 -0.11455279 317.96663455 -0.11680965 329.48490715 -0.13429928 C339.29058931 -0.14900359 349.09615009 -0.1496799 358.90182982 -0.13222837 C363.90534701 -0.12370128 368.90864723 -0.12161051 373.91215324 -0.13687992 C378.49288839 -0.15068614 383.07321985 -0.14601631 387.65393139 -0.12664068 C389.310679 -0.12286784 390.96745862 -0.12583952 392.6241778 -0.13625234 C402.86760214 -0.19605404 410.86966857 0.06775859 418.59971809 7.58734798 C419.20960579 8.17016537 419.81949348 8.75298275 420.44786263 9.35346127 C421.37381233 10.26394222 421.37381233 10.26394222 422.31846809 11.19281673 C423.63797635 12.45797898 424.95827922 13.72231303 426.27940559 14.98578548 C426.89783333 15.58181576 427.51626106 16.17784603 428.15342903 16.79193783 C430.0360239 18.58785605 431.96840559 20.31180569 433.94346809 22.00531673 C438.02130442 25.51580192 441.95272073 29.17881599 445.89879036 32.835639 C449.99325599 36.62711773 454.1270553 40.37142494 458.28331184 44.09516048 C461.18760075 46.71304802 464.06617585 49.35784877 466.94346809 52.00531673 C470.18057838 54.98256492 473.42984729 57.93984694 476.75596809 60.81781673 C482.07050593 65.44157607 487.27617062 70.18032153 492.38731575 75.02777767 C493.57505698 76.15027621 494.77877563 77.25584036 495.98643684 78.35687923 C499.18346834 81.56150463 500.20630011 83.88241521 500.44346809 88.44281673 C500.05757273 94.3568876 497.56466514 97.48444566 493.63096809 101.75531673 C490.30654236 103.67609605 488.13945287 104.27129946 484.31846809 104.06391048 C478.79471202 102.55350843 474.89157034 98.21498746 470.81846809 94.38031673 C469.56764527 93.22354829 468.31631737 92.06732582 467.06456184 90.91156673 C464.45287587 88.48989254 461.85429928 86.05507861 459.26378059 83.61078548 C456.14070887 80.66999094 452.95574717 77.81632496 449.70518684 75.01703548 C447.38188022 73.00157901 445.10098344 70.94183211 442.81846809 68.88031673 C439.83784089 66.19048243 436.84601577 63.51721309 433.81846809 60.88031673 C429.92333999 57.4877858 426.09064047 54.02837473 422.25596809 50.56781673 C419.4937969 48.08894515 416.70094403 45.64776526 413.90049934 43.21234798 C410.56971444 40.28150724 407.2955965 37.28802726 404.01768684 34.29828548 C399.50490053 30.36262282 396.36214458 30.08784864 390.59918404 30.10184383 C389.75132542 30.09605143 388.90346681 30.09025903 388.02991551 30.0842911 C385.17855181 30.06723655 382.32734944 30.06440992 379.4759388 30.06146908 C377.43610929 30.05217466 375.39628361 30.04200673 373.35646248 30.03102779 C367.8093045 30.00365884 362.262172 29.98855798 356.71496415 29.97559977 C350.92132588 29.95999934 345.12773989 29.93319933 339.33413887 29.90756893 C328.35885013 29.86072634 317.38355161 29.82400878 306.40821379 29.79089606 C293.91500018 29.75271334 281.42183902 29.70329313 268.92866957 29.6529119 C243.22530293 29.54951053 217.52191434 29.46176048 191.81846809 29.38031673 C191.81846809 44.23031673 191.81846809 59.08031673 191.81846809 74.38031673 C199.40202278 74.21982845 199.40202278 74.21982845 207.13878059 74.05609798 C210.34710212 73.99514476 213.55538862 73.93510861 216.76378059 73.87836361 C221.85320043 73.78826289 226.94240167 73.69482469 232.03135872 73.58124447 C236.13549415 73.48985703 240.23965947 73.41366151 244.34428215 73.34786701 C245.90802035 73.32015557 247.4716725 73.28702697 249.03517723 73.24832249 C251.23004616 73.1949261 253.42443493 73.16103112 255.61973763 73.13153744 C257.49171318 73.09489735 257.49171318 73.09489735 259.40150642 73.05751705 C264.32931891 73.52304651 267.58475851 75.14660715 271.06846809 78.63031673 C274.40364352 83.87130669 275.06846359 89.19199514 275.07015038 95.30728626 C275.07305726 95.97113254 275.07596414 96.63497882 275.07895911 97.31894165 C275.08623651 99.53520291 275.07932644 101.75118535 275.07243538 103.96744442 C275.07474071 105.57574515 275.07791773 107.18404483 275.08188987 108.79234231 C275.09023669 113.20579383 275.08611307 117.61915883 275.07991743 122.03261065 C275.07539343 126.79480973 275.0823765 131.55699391 275.08787727 136.31919003 C275.09677386 145.64652324 275.09484795 154.97382429 275.08905199 164.30115877 C275.08453602 171.88243967 275.08392232 179.46371154 275.08609962 187.0449934 C275.08640609 188.12383735 275.08671256 189.2026813 275.08702831 190.31421749 C275.08766776 192.50586517 275.08831619 194.69751285 275.08897349 196.88916053 C275.09467771 217.44451334 275.08811774 237.99984832 275.07737276 258.55519821 C275.06843971 276.19010993 275.06998709 293.82499533 275.07921028 311.45990658 C275.08991567 331.9383955 275.0941257 352.41686878 275.08798575 372.89536011 C275.08734866 375.07957625 275.08671992 377.26379239 275.08609962 379.44800854 C275.08579107 380.52268022 275.08548252 381.5973519 275.08516462 382.70458939 C275.0834383 390.27516113 275.08635149 397.84572294 275.09105873 405.41629314 C275.09667065 414.6447465 275.09514465 423.87316583 275.08449724 433.10161529 C275.07924436 437.80951742 275.07717727 442.51736285 275.08379555 447.22526455 C275.08976514 451.53698124 275.08646318 455.8485888 275.07584044 460.16029562 C275.07361068 461.7181086 275.07473319 463.27593084 275.07959202 464.83373784 C275.13403729 483.74375102 275.13403729 483.74375102 271.04503059 490.16547298 C268.56321935 492.63422207 266.00113924 494.72475956 263.19346809 496.81781673 C262.03276163 497.69208673 260.87263882 498.56713197 259.71299934 499.44281673 C259.0886097 499.91203548 258.46422005 500.38125423 257.8209095 500.86469173 C254.14616364 503.64606485 250.51592396 506.48476863 246.88096809 509.31781673 C246.10994759 509.91779476 245.33892708 510.51777279 244.54454231 511.13593197 C239.3971373 515.14326762 234.26389745 519.16822372 229.13804817 523.20307064 C222.94712663 528.07273198 216.72715658 532.90488816 210.50596809 537.73578548 C207.2924464 540.23181002 204.08484177 542.73520241 200.88096809 545.24359798 C200.07498177 545.87354671 199.26899544 546.50349545 198.43858528 547.15253353 C196.90146377 548.35414201 195.36557892 549.55733478 193.83116341 550.76239681 C181.81381212 560.14594066 181.81381212 560.14594066 174.22471809 559.83734798 C170.20952429 559.07472189 168.55411683 557.38953034 165.81846809 554.38031673 C163.39081357 550.75266795 163.54101413 547.12466042 163.57237244 542.90716076 C163.57006475 542.14784234 163.56775706 541.38852393 163.56537944 540.60619587 C163.56006147 538.04719343 163.5690784 535.48843977 163.57795906 532.92945004 C163.57708736 531.08221145 163.57533704 529.2349731 163.57278073 527.38773608 C163.56829619 522.30023852 163.57632606 517.21282472 163.58633685 512.12533784 C163.59495314 506.64342099 163.59205248 501.16150908 163.5905323 495.67958736 C163.5894823 486.17798647 163.59577097 476.67641299 163.60700798 467.17481899 C163.62324436 453.43701824 163.62846908 439.69923077 163.63098396 425.96142146 C163.63536399 403.67412557 163.6486643 381.38684249 163.66758919 359.09955502 C163.68595455 337.44623548 163.70012349 315.79291984 163.70860481 294.13959408 C163.70886786 293.47227719 163.70913092 292.8049603 163.70940194 292.11742169 C163.71230061 284.75106962 163.71508431 277.38471751 163.71782088 270.01836538 C163.73856297 214.47233907 163.77379688 158.9263286 163.81846809 103.38031673 C162.70728111 103.40474346 161.59609413 103.42917019 160.45123482 103.45433712 C149.93369226 103.67818854 139.41663831 103.84262646 128.89724636 103.95025063 C123.49000595 104.00744587 118.08470169 104.08490158 112.67857552 104.21015072 C107.4523379 104.33046208 102.22795132 104.39560398 97.00043488 104.42396641 C95.0152563 104.44415314 93.03016901 104.48357496 91.04578781 104.54334736 C81.015366 104.83321538 73.0486742 105.01658493 65.26182747 98.05634212 C63.36620501 96.22238595 61.60230624 94.32876377 59.81846809 92.38031673 C58.40757396 91.07008945 56.9874478 89.76953704 55.54893684 88.48969173 C54.36522131 87.37278202 53.18414978 86.25306234 52.00596809 85.13031673 C50.73338833 83.93018782 49.45996126 82.73095666 48.18565559 81.53266048 C47.59880989 80.9807806 47.01196419 80.42890072 46.40733528 79.8602972 C43.93523969 77.55761689 41.38974995 75.34625794 38.83018684 73.14203548 C36.1622012 70.80560534 33.55332255 68.40615422 30.94346809 66.00531673 C25.6021643 61.09232109 20.22051297 56.22652419 14.81846809 51.38031673 C13.15154162 49.88060546 11.4848766 48.38060352 9.81846809 46.88031673 C8.58096809 45.76656673 8.58096809 45.76656673 7.31846809 44.63031673 C-0.18153191 37.88031673 -0.18153191 37.88031673 -2.65418816 35.63031673 C-4.38014116 34.09376507 -6.14016702 32.59486322 -7.92762566 31.13031673 C-13.47031418 26.4966613 -17.23250439 22.74923627 -18.18153191 15.38031673 C-18.08325657 10.36827446 -16.34612078 7.22914104 -13.18153191 3.38031673 C-8.66017205 0.60946744 -5.26502596 0.00433119 0 0 Z M33.81846809 29.38031673 C35.46846809 31.03031673 37.11846809 32.68031673 38.81846809 34.38031673 C39.53647591 35.10992611 40.25448372 35.83953548 40.99424934 36.59125423 C44.99795326 40.64619385 49.0640761 44.52765532 53.38878059 48.23578548 C56.76390573 51.21479465 60.03623642 54.29966083 63.31846809 57.38031673 C67.90980695 61.6880164 72.51319775 65.95982696 77.30284309 70.04828548 C78.81846809 71.38031673 78.81846809 71.38031673 79.92144966 72.94228268 C82.89734927 75.19816218 86.10186077 74.77203495 89.68638802 74.72089291 C90.48661888 74.72133099 91.28684975 74.72176907 92.11133003 74.72222042 C94.75744682 74.72012971 97.40293069 74.69678568 100.04893684 74.67328548 C101.88310589 74.66769053 103.71727942 74.66341996 105.55145454 74.66042233 C110.37994442 74.64896564 115.20816375 74.61949138 120.03654671 74.58631039 C125.82929328 74.55023297 131.62213029 74.53645227 137.41495705 74.51895046 C146.21631558 74.48985451 155.01708045 74.43237313 163.81846809 74.38031673 C163.81846809 59.53031673 163.81846809 44.68031673 163.81846809 29.38031673 C120.91846809 29.38031673 78.01846809 29.38031673 33.81846809 29.38031673 Z M191.81846809 103.38031673 C191.81846809 239.01031673 191.81846809 374.64031673 191.81846809 514.38031673 C194.88477697 512.84716229 197.05852943 511.5468236 199.68956184 509.47406673 C200.42215218 508.90011166 201.15474251 508.32615658 201.90953255 507.73480892 C202.68385628 507.1228265 203.45818001 506.51084408 204.25596809 505.88031673 C205.88335541 504.60399853 207.51096082 503.32795835 209.13878059 502.05219173 C210.33615852 501.11149837 210.33615852 501.11149837 211.55772591 500.15180111 C214.56811931 497.79290105 217.59616314 495.45767925 220.63096809 493.13031673 C223.84403881 490.6646607 227.05626131 488.19808826 230.25987434 485.72016048 C230.83439339 485.27640072 231.40891243 484.83264095 232.00084114 484.37543392 C233.58383126 483.15251526 235.16602326 481.92856369 236.74815559 480.70453548 C239.81846809 478.38031673 239.81846809 478.38031673 241.61995941 477.5745576 C243.91836588 476.41895782 245.22427787 475.4187491 246.81846809 473.38031673 C247.89720703 468.53165721 247.73301286 463.67347477 247.66024971 458.73241329 C247.66330211 457.201913 247.66943096 455.67141626 247.67837387 454.14093906 C247.69404308 449.93318571 247.66600633 445.72667712 247.63092744 441.51908243 C247.60072984 436.98265916 247.61092554 432.44630746 247.61624336 427.90981197 C247.61991588 420.04943012 247.59793262 412.18945463 247.55857849 404.329175 C247.50171622 392.96456844 247.48346118 381.60015861 247.47466255 370.23542521 C247.45933784 351.79752697 247.41274167 333.35984537 247.34654427 314.92206478 C247.28230222 297.01029196 247.23274782 279.09857796 247.20298958 261.18671322 C247.20115051 260.08283847 247.19931145 258.97896373 247.19741666 257.84163823 C247.18828147 252.30388541 247.17943549 246.76613217 247.17073333 241.22837865 C247.09815286 195.27886697 246.97292416 149.32962001 246.81846809 103.38031673 C228.66846809 103.38031673 210.51846809 103.38031673 191.81846809 103.38031673 Z " fill="#000000" transform="translate(47.18153190612793,189.61968326568604)"/>
<path d="M0 0 C3.47112872 3.31025214 4.80654918 4.88284555 5.63085651 9.6431179 C5.65895365 11.02273081 5.66008822 12.40306496 5.63923645 13.7828064 C5.64759213 14.54747368 5.6559478 15.31214097 5.66455668 16.09998 C5.68643586 18.65224583 5.67289602 21.20306568 5.65942383 23.75537109 C5.66787894 25.5887562 5.67852392 27.42213233 5.69119263 29.25549316 C5.7193414 34.22617898 5.71686688 39.1964333 5.70889878 44.16717482 C5.70577422 49.36425107 5.73080663 54.56118978 5.75285339 59.75820923 C5.79031092 69.59658978 5.80244241 79.4348321 5.8054778 89.27327693 C5.81016676 100.47520429 5.84308492 111.67699303 5.87837565 122.87885928 C5.95033027 145.91922273 5.98683016 168.95953327 6 192 C6.67836914 191.38946777 7.35673828 190.77893555 8.05566406 190.14990234 C10.70377604 187.76660156 13.35188802 185.38330078 16 183 C16.68642578 182.38068604 17.37285156 181.76137207 18.08007812 181.12329102 C20.02418425 179.3789958 22.00514469 177.6861277 24 176 C24.47888672 175.58991699 24.95777344 175.17983398 25.45117188 174.75732422 C46.00461092 157.30451108 69.22930167 149.58987204 96.1875 149.625 C96.86365356 149.62521149 97.53980713 149.62542297 98.2364502 149.62564087 C119.0392418 149.6903773 140.24636632 154.29660857 156 169 C156 169.66 156 170.32 156 171 C156.99 171.33 157.98 171.66 159 172 C159 172.66 159 173.32 159 174 C159.66 174 160.32 174 161 174 C177.60507327 192.46511203 182.12804756 214.27133618 182.17358398 238.42724609 C182.17989905 239.88016453 182.18666589 241.33308107 182.19384766 242.78599548 C182.20845135 245.90211968 182.22020262 249.01823675 182.22979546 252.13438034 C182.24532947 257.06932764 182.26927799 262.00421242 182.29469299 266.93911743 C182.36568081 280.96783487 182.42563435 294.99658733 182.47680664 309.02539062 C182.5051784 316.78315934 182.54059219 324.54086497 182.58346039 332.29856741 C182.61010725 337.19644891 182.62808881 342.09425922 182.63949764 346.99219871 C182.64867435 350.04866318 182.66605911 353.10504155 182.68567657 356.16145515 C182.69309958 357.56984784 182.69722994 358.9782627 182.69767189 360.38667488 C182.49471292 373.93106102 182.49471292 373.93106102 187.0625 386.375 C193.78880118 392.38573722 201.10392602 393.5979304 209.875 394.0625 C211.72730554 394.16583109 213.57898994 394.28119241 215.4296875 394.41015625 C216.23647949 394.45277588 217.04327148 394.49539551 217.87451172 394.53930664 C220.46110054 395.09994219 221.3605389 395.96086148 223 398 C224.85269921 401.70539842 224.46444489 405.95623313 224 410 C222.68882399 413.11326625 221.09390848 415.45304576 218 417 C215.22083991 417.09037766 212.47023427 417.11910202 209.69140625 417.09765625 C208.84494034 417.0942775 207.99847443 417.09089874 207.12635803 417.0874176 C199.23444255 417.0381364 191.34883841 416.82068637 183.46044922 416.59350586 C163.56575069 416.02345145 143.76060205 416.03852009 123.86833191 416.67152405 C120.71743453 416.76912396 117.56629998 416.85399236 114.41491699 416.93426514 C112.74229496 416.97979448 111.06984317 417.03187202 109.39758301 417.08917236 C106.79899521 417.17456325 104.2009975 417.23258534 101.6015625 417.28515625 C100.8118808 417.31653183 100.0221991 417.34790741 99.20858765 417.38023376 C95.40825081 417.43129509 93.26508913 417.16865551 90.02490234 415.10717773 C86.9305048 411.8870493 86.84181416 409.99867296 86.8125 405.625 C86.79832031 404.66851563 86.78414062 403.71203125 86.76953125 402.7265625 C87.00530997 399.93718032 87.48265186 398.33192451 89 396 C91.30668621 394.84665689 92.90378724 394.77343032 95.47265625 394.60546875 C96.82327148 394.50202148 96.82327148 394.50202148 98.20117188 394.39648438 C100.08069881 394.25920835 101.96093858 394.13130813 103.84179688 394.01367188 C111.25757517 393.41977893 118.0371673 391.9628327 123.4375 386.5625 C129.13744559 377.21458923 128.15146438 366.08308903 128.16113281 355.45068359 C128.16577277 354.11557888 128.17079897 352.78047547 128.17617798 351.44537354 C128.18919075 347.84583308 128.19572497 344.24631118 128.20018864 340.64675093 C128.20313749 338.38887383 128.20724553 336.1310016 128.21169281 333.87312698 C128.2253385 326.7824587 128.23501941 319.69180179 128.2388947 312.60112131 C128.24336827 304.46469551 128.26089587 296.32843829 128.2898953 288.19206369 C128.31163322 281.86979255 128.32160539 275.54756843 128.32293582 269.22526038 C128.32397523 265.46446246 128.32969599 261.70382362 128.34775543 257.94306564 C129.08535048 225.12097976 129.08535048 225.12097976 113.515625 197.32421875 C100.23150825 185.05085002 84.73160671 182.29804388 67.32763672 182.86376953 C46.00110949 184.1119552 26.68527562 195.13580468 12.5 210.75 C8.07220835 215.81569384 5.62474714 219.50685299 5.6257782 226.387146 C5.61876389 227.6767926 5.61174957 228.96643921 5.60452271 230.29516602 C5.61194997 231.71728672 5.6196811 233.13940586 5.62768555 234.56152344 C5.6252565 236.06488293 5.62153608 237.56824081 5.61662292 239.07159424 C5.60722247 243.15037114 5.61663394 247.2289077 5.62995505 251.30766582 C5.64128549 255.58224707 5.63716059 259.85681674 5.63520813 264.13140869 C5.63432528 271.3138826 5.64540055 278.49626211 5.66381836 285.67871094 C5.68495363 293.96804255 5.68850264 302.25723557 5.6822564 310.54658866 C5.6765479 318.53266707 5.68222796 326.51869695 5.69342995 334.50476837 C5.69805958 337.89688266 5.69895684 341.2889671 5.6968441 344.68108368 C5.69495104 348.6833381 5.70314287 352.68545289 5.7189045 356.68767548 C5.72312348 358.15132062 5.72401409 359.61497999 5.72121429 361.07862854 C5.20388873 374.79113467 5.20388873 374.79113467 10.625 386.875 C11.07101562 387.40867187 11.51703125 387.94234375 11.9765625 388.4921875 C18.97269268 393.70552003 27.31316636 393.66830613 35.66210938 394.171875 C37.0146582 394.27242187 37.0146582 394.27242187 38.39453125 394.375 C39.20768799 394.42398437 40.02084473 394.47296875 40.85864258 394.5234375 C43.46923167 395.10442826 44.37786486 395.90219182 46 398 C47.35416319 402.06248957 47.54273091 405.75222604 47 410 C44.07317073 415.46341463 44.07317073 415.46341463 41 417 C38.39596601 417.09055381 35.82244767 417.11905438 33.21875 417.09765625 C32.41997437 417.0942775 31.62119873 417.09089874 30.79821777 417.0874176 C22.92680087 417.03569196 15.06074374 416.81377399 7.19262695 416.59350586 C-12.96041048 416.03335295 -33.02471152 416.02840969 -53.17495728 416.67152405 C-56.31380549 416.76908031 -59.45288974 416.85399224 -62.59222412 416.93426514 C-64.26138676 416.97983507 -65.93037938 417.03191932 -67.59918213 417.08917236 C-70.19754622 417.17459328 -72.79531853 417.23260281 -75.39453125 417.28515625 C-76.18445969 417.31653183 -76.97438812 417.34790741 -77.78825378 417.38023376 C-81.58954794 417.4312861 -83.73426889 417.16905007 -86.9753418 415.10717773 C-90.06943444 411.88697833 -90.15818671 409.99854348 -90.1875 405.625 C-90.20167969 404.66851563 -90.21585938 403.71203125 -90.23046875 402.7265625 C-89.99469003 399.93718032 -89.51734814 398.33192451 -88 396 C-85.75058272 394.87529136 -84.21092942 394.76174164 -81.7109375 394.5703125 C-80.42123047 394.46009766 -80.42123047 394.46009766 -79.10546875 394.34765625 C-77.30906223 394.20116816 -75.51217994 394.06038352 -73.71484375 393.92578125 C-66.74993288 393.31518728 -60.68244394 392.26517488 -55.1875 387.625 C-50.04868782 381.45842538 -48.87901348 376.32283322 -48.86857224 368.3673811 C-48.86281052 366.71188268 -48.86281052 366.71188268 -48.8569324 365.02293986 C-48.85779888 363.82090727 -48.85866537 362.61887469 -48.85955811 361.38041687 C-48.85658698 360.09532142 -48.85361586 358.81022597 -48.8505547 357.48618823 C-48.84250668 353.92562008 -48.84069636 350.3650721 -48.83995724 346.80449593 C-48.83810289 342.96185209 -48.83055373 339.11921863 -48.82382202 335.27658081 C-48.81025469 326.87784078 -48.80421673 318.47910553 -48.79981136 310.08035636 C-48.79704673 304.83485358 -48.79280902 299.58935263 -48.78830719 294.34385109 C-48.77611756 279.81617569 -48.76581703 265.28850175 -48.7624321 250.76082134 C-48.76221253 249.83149858 -48.76199297 248.90217582 -48.76176675 247.94469177 C-48.76154847 247.01317088 -48.76133019 246.08165 -48.7611053 245.12190121 C-48.76066184 243.23434365 -48.76021527 241.34678608 -48.75976562 239.45922852 C-48.75943348 238.05479374 -48.75943348 238.05479374 -48.75909463 236.62198655 C-48.75514596 221.44825504 -48.73768849 206.27457155 -48.7144061 191.10085859 C-48.69068705 175.51662225 -48.67823003 159.93241 -48.67706418 144.34815532 C-48.67614783 135.60037515 -48.67040549 126.85265756 -48.65224457 118.10489464 C-48.63683625 110.65688974 -48.63172751 103.20896678 -48.63998267 95.76094898 C-48.64388633 91.96235572 -48.64297349 88.16392744 -48.62892532 84.36535454 C-48.61382163 80.24362886 -48.62206108 76.12227409 -48.63250732 72.00053406 C-48.62445092 70.80519364 -48.61639452 69.60985321 -48.60809398 68.37829036 C-48.65503321 60.46119356 -49.25180127 53.51158726 -54.25 47.125 C-61.0676715 41.8567993 -67.75899922 41.39930263 -76.06054688 40.828125 C-80.9969566 40.41774402 -84.70912926 39.7114507 -89 37 C-90.97125294 33.05749412 -90.44717024 28.29780285 -90 24 C-87.6708608 19.77304367 -85.44621366 18.5378781 -81 17 C-79.04897311 16.61061081 -77.08592853 16.27887313 -75.1171875 15.9921875 C-56.92779044 13.18834858 -39.84942616 8.76658227 -22.30908203 3.13623047 C-20.69977632 2.62207227 -19.08871278 2.11336927 -17.47558594 1.61132812 C-15.49577921 0.99459375 -13.52287149 0.35582427 -11.55078125 -0.28515625 C-7.03767457 -1.19373548 -4.48361398 -1.15838051 0 0 Z " fill="#000000" transform="translate(1029,278)"/>
<path d="M0 0 C16.07227669 15.37581137 21.82131295 36.44130974 22.44128036 58.15865898 C22.48500729 62.20555761 22.49870161 66.25149952 22.50146484 70.29858398 C22.50614244 71.84869529 22.51128753 73.39880524 22.51686096 74.94891357 C22.52807455 78.26908169 22.53654073 81.58924118 22.54298019 84.90942192 C22.55373281 90.16824992 22.57399491 95.42701526 22.59609985 100.68580627 C22.65778644 115.63368871 22.71202514 130.58156578 22.74511719 145.52954102 C22.76350353 153.79898168 22.79248309 162.06831549 22.8331219 170.33767754 C22.85411161 174.70469795 22.86963785 179.07158426 22.87192917 183.43865776 C22.87408769 187.5469294 22.89007869 191.65492111 22.91631889 195.7631073 C22.92346565 197.26299556 22.92563553 198.7629179 22.92221642 200.26281929 C22.89652702 213.68413118 24.64707066 226.90525937 33.8203125 237.4375 C40.72213055 243.60115569 48.20956692 244.2564565 57.015625 245.01953125 C60.34375 245.7421875 60.34375 245.7421875 62.265625 247.5 C64.19642485 251.51550404 64.08338722 255.40298245 63.34375 259.7421875 C58.87788026 266.10266864 51.70925556 268.0280965 44.38671875 269.32421875 C24.86342439 272.00585225 6.2062561 270.53568492 -10.40625 258.9296875 C-23.82517554 248.623798 -29.1180765 238.65476181 -33.65625 222.7421875 C-33.96175781 223.25265625 -34.26726563 223.763125 -34.58203125 224.2890625 C-48.34291636 246.15142645 -69.27055568 258.72895818 -93.65625 265.7421875 C-94.67589844 266.03867187 -95.69554688 266.33515625 -96.74609375 266.640625 C-106.86135452 269.27033243 -117.26204694 270.01051365 -127.65625 270.7421875 C-129.203125 270.85433594 -129.203125 270.85433594 -130.78125 270.96875 C-153.44389692 271.74777849 -174.84030263 263.99415432 -191.96875 249.4296875 C-203.49610575 238.48911012 -211.80353962 224.71302 -213.65625 208.7421875 C-213.78902344 207.64777344 -213.92179687 206.55335938 -214.05859375 205.42578125 C-215.90079137 185.90676599 -213.02441767 164.8418576 -200.55078125 149.08203125 C-166.75168847 110.51267065 -112.3183335 108.37886642 -64.71875 104.4921875 C-63.63396362 104.40324219 -62.54917725 104.31429687 -61.43151855 104.22265625 C-58.31017907 103.9690792 -55.18844489 103.72136866 -52.06640625 103.4765625 C-51.13423782 103.40177673 -50.2020694 103.32699097 -49.24165344 103.24993896 C-44.0280746 102.85168257 -38.88502186 102.67053438 -33.65625 102.7421875 C-33.71795796 95.03033513 -33.79540986 87.31880665 -33.89196491 79.60732079 C-33.93634524 76.02502139 -33.97566823 72.44282732 -34.00268555 68.86035156 C-34.02904682 65.39120068 -34.06966835 61.92246248 -34.11943626 58.45357132 C-34.14379191 56.51206164 -34.15406383 54.57039122 -34.16389465 52.62875366 C-34.42777804 36.36169528 -37.91906249 19.60430765 -49.6015625 7.48046875 C-64.71920273 -5.30916984 -84.60269188 -7.42198102 -103.65625 -6.2578125 C-115.95786824 -4.61388164 -127.4304921 1.39097379 -135.65625 10.7421875 C-142.07845134 20.7444913 -143.62224595 31.01223673 -142.65625 42.7421875 C-140.88687279 50.71032247 -135.11866492 56.00618013 -129.65625 61.7421875 C-127.62934593 64.05393144 -125.64454623 66.39701759 -123.65625 68.7421875 C-126.96255975 75.354807 -131.97508216 79.30649825 -138.71875 82.1171875 C-149.46915898 85.62211536 -160.51189019 84.59822338 -170.65625 79.7421875 C-182.13047541 72.9831516 -187.66210627 62.31637248 -191.18896484 49.86083984 C-194.43111957 35.16103904 -191.4580415 19.08255615 -183.59765625 6.49609375 C-169.90449128 -12.92781229 -144.9217202 -20.2734652 -122.65625 -24.2578125 C-121.93679199 -24.38913574 -121.21733398 -24.52045898 -120.47607422 -24.65576172 C-81.77785267 -31.3544342 -31.05174622 -26.39398429 0 0 Z M-132.65625 148.7421875 C-133.28917969 149.30808594 -133.92210938 149.87398437 -134.57421875 150.45703125 C-145.04012998 160.29811196 -150.10868742 174.37008865 -150.859375 188.58984375 C-151.12088032 202.8612857 -149.63429139 215.90155589 -139.671875 226.84765625 C-130.18335123 235.76613305 -117.92539482 236.32325906 -105.5703125 236.046875 C-84.88944244 235.0720463 -67.09759219 224.73618848 -52.96875 210.0546875 C-40.0560176 195.13228119 -33.2486995 176.32986011 -33.4609375 156.703125 C-33.46518234 155.19282211 -33.46518234 155.19282211 -33.46951294 153.65200806 C-33.48060171 150.47360749 -33.50568457 147.29550118 -33.53125 144.1171875 C-33.54129443 141.94661869 -33.5504177 139.7760454 -33.55859375 137.60546875 C-33.58050384 132.31760995 -33.61386664 127.02991976 -33.65625 121.7421875 C-64.03052164 121.7421875 -109.49960709 127.31150556 -132.65625 148.7421875 Z " fill="#000000" transform="translate(2283.65625,412.2578125)"/>
<path d="M0 0 C0.72411072 0.00182281 1.44822144 0.00364563 2.1942749 0.00552368 C30.47096219 0.12510578 56.60041281 5.72416314 78 25.3125 C78.80179688 26.0446875 79.60359375 26.776875 80.4296875 27.53125 C98.42042934 44.73451829 108.94836463 70.88937529 110.10913086 95.6394043 C110.22177724 103.98484192 109.24264087 112.15499852 103.8125 118.8125 C100.31291838 122.37114629 96.62592964 124.51722135 92 126.3125 C91.01 126.704375 90.02 127.09625 89 127.5 C80.68871786 129.75097225 72.23248705 129.44958023 63.68945312 129.42602539 C62.24986778 129.42574293 60.81028229 129.42590239 59.37069702 129.4264679 C55.48285223 129.42675359 51.59503859 129.42089379 47.707201 129.41389394 C43.6366301 129.40762237 39.56605839 129.4070536 35.4954834 129.40586853 C27.79631168 129.4027664 20.09715424 129.39456814 12.3979888 129.38451904 C3.62892735 129.37332311 -5.1401348 129.36783869 -13.90920162 129.36282361 C-31.93947583 129.35238455 -49.96973676 129.33480684 -68 129.3125 C-67.70927657 133.5838742 -67.40822447 137.85446313 -67.10546875 142.125 C-66.98359192 143.9184082 -66.98359192 143.9184082 -66.85925293 145.74804688 C-64.94448771 172.454701 -58.08393707 198.8270743 -40 219.3125 C-39.49339844 219.92480469 -38.98679687 220.53710938 -38.46484375 221.16796875 C-25.0714924 236.13700849 -4.18827504 240.90072018 15 242.3125 C29.38625175 243.09781223 42.84978552 241.33456084 56 235.3125 C57.21623047 234.75755859 57.21623047 234.75755859 58.45703125 234.19140625 C64.86538888 230.94794679 69.84858175 226.254585 75 221.3125 C75.86625 220.508125 76.7325 219.70375 77.625 218.875 C83.79693906 212.21580259 89.11573426 204.87919616 94.3359375 197.46484375 C96 195.3125 96 195.3125 98 194.3125 C102.37622368 193.79765016 105.17902053 194.07514654 108.8125 196.5 C112.643207 199.55769438 113.61480918 202.24209933 114.5 207 C113.14812068 215.95620047 105.6846054 223.61241261 100 230.3125 C99.31035156 231.1375 98.62070312 231.9625 97.91015625 232.8125 C78.30864399 255.49779448 49.87007971 269.97733069 20 272.3125 C-7.86495381 273.71714773 -34.94866988 271.30093594 -60 258.3125 C-61.12921875 257.73886719 -62.2584375 257.16523437 -63.421875 256.57421875 C-72.67684388 251.60738545 -80.29268949 245.40912892 -88 238.3125 C-89.12341797 237.31283203 -89.12341797 237.31283203 -90.26953125 236.29296875 C-113.13897054 214.91400208 -125.73875682 180.30310399 -127.17700195 149.5246582 C-127.86181564 105.81390119 -118.67342119 68.0250608 -87.38964844 35.7265625 C-63.58462968 11.50332486 -33.82066127 -0.17659783 0 0 Z M-45 40.3125 C-57.10748205 54.20433116 -63.44980379 71.11731371 -66.75 89.0625 C-66.87785889 89.74731445 -67.00571777 90.43212891 -67.13745117 91.13769531 C-67.76442995 94.8139706 -68.06058776 98.33878316 -68.03222656 102.07128906 C-68.02757385 102.86923889 -68.02292114 103.66718872 -68.01812744 104.48931885 C-68.01214539 105.09096863 -68.00616333 105.69261841 -68 106.3125 C-55.13436139 106.38214786 -42.26876796 106.43538636 -29.4029789 106.46793652 C-23.4282526 106.48356247 -17.45365573 106.50474473 -11.47900391 106.53881836 C-5.70831411 106.57152116 0.06225154 106.58937609 5.83302689 106.59713173 C8.02974017 106.60265564 10.22644701 106.61344235 12.42310715 106.62969017 C15.51057126 106.65160943 18.59752864 106.65446086 21.68505859 106.65307617 C23.03374023 106.66925491 23.03374023 106.66925491 24.40966797 106.6857605 C33.53181424 106.64176923 41.65943377 104.78851806 48.3046875 98.3046875 C54.37075703 91.17635695 54.93324837 83.48937629 54.22314453 74.3359375 C52.47691419 58.50141115 46.0374534 43.02946964 34 32.3125 C9.34609452 13.74293924 -23.90038958 18.58666168 -45 40.3125 Z " fill="#000000" transform="translate(520,427.6875)"/>
<path d="M0 0 C2.1875 1.6875 2.1875 1.6875 4.1875 4.6875 C4.42800903 6.71867371 4.42800903 6.71867371 4.41455078 9.06713867 C4.41439972 9.94782516 4.41424866 10.82851166 4.41409302 11.73588562 C4.40377045 12.68284805 4.39344788 13.62981049 4.3828125 14.60546875 C4.3799826 15.57784988 4.37715271 16.55023102 4.37423706 17.55207825 C4.36303599 20.65984366 4.33793148 23.76732159 4.3125 26.875 C4.30247011 28.98111563 4.29334427 31.08723578 4.28515625 33.19335938 C4.26309688 38.3581838 4.22856746 43.52279315 4.1875 48.6875 C4.97125 48.0275 5.755 47.3675 6.5625 46.6875 C9.1875 44.6875 9.1875 44.6875 11.1875 44.6875 C11.1875 44.0275 11.1875 43.3675 11.1875 42.6875 C13.60757936 40.10505109 16.46551199 37.94207592 19.1875 35.6875 C19.7026416 35.25083008 20.2177832 34.81416016 20.74853516 34.36425781 C36.17117565 21.31674886 54.32033308 8.52611646 74.1875 3.6875 C74.98671875 3.48253906 75.7859375 3.27757812 76.609375 3.06640625 C89.39441462 0.11444647 102.27310727 1.02188781 113.8125 7.5625 C125.64710657 15.72016956 131.93177865 27.77271928 134.79296875 41.6171875 C136.95492526 58.44191838 133.75033686 71.97348111 123.9375 85.875 C123.36 86.473125 122.7825 87.07125 122.1875 87.6875 C121.5275 87.6875 120.8675 87.6875 120.1875 87.6875 C120.1875 88.3475 120.1875 89.0075 120.1875 89.6875 C112.71511791 96.17498359 102.53728952 98.28929409 92.88671875 97.97265625 C85.15808646 97.15617267 79.09835341 94.71801354 73.1875 89.6875 C72.8575 88.6975 72.5275 87.7075 72.1875 86.6875 C73.98828125 83.98046875 73.98828125 83.98046875 76.5 80.875 C82.2917466 73.70123537 84.07762688 67.78048844 83.1875 58.6875 C82.02409565 53.32055441 80.34437278 48.41802685 76.1875 44.6875 C69.22368323 40.62094282 62.99374079 39.85891483 55.1875 41.6875 C36.34625244 47.69592934 19.99939962 61.87560038 6.1875 75.6875 C6.08619057 77.81428831 6.05672087 79.9445021 6.05378723 82.07369995 C6.0503889 83.08626962 6.0503889 83.08626962 6.04692191 84.11929524 C6.04055393 86.39839485 6.04141309 88.67743541 6.04223633 90.95654297 C6.03924633 92.58414284 6.03584417 94.211742 6.03205872 95.83934021 C6.02319216 100.27583228 6.02087932 104.71230507 6.02024293 109.14880514 C6.01929484 112.85344495 6.01561718 116.55808024 6.01207083 120.26271832 C6.00391403 129.01141088 6.00148748 137.76009314 6.00219727 146.50878906 C6.00279644 155.52052686 5.99227959 164.53220448 5.9764536 173.54392707 C5.96334693 181.28418536 5.95801477 189.02442409 5.95865268 196.76469338 C5.95890701 201.38558889 5.95609234 206.0064311 5.94547462 210.62731552 C5.93574256 214.98243289 5.93574927 219.33744665 5.94299126 223.69256783 C5.94403121 225.28438151 5.94170954 226.87620181 5.9356308 228.46800423 C5.47258292 244.33276822 5.47258292 244.33276822 11.1875 258.6875 C11.1875 259.3475 11.1875 260.0075 11.1875 260.6875 C12.05242065 261.11881226 12.05242065 261.11881226 12.93481445 261.55883789 C14.34635156 262.26605974 15.75221086 262.9848605 17.14916992 263.72045898 C23.24930694 266.72652064 28.76225879 267.40925112 35.5 267.75 C37.43429334 267.85355437 39.36799651 267.96898081 41.30078125 268.09765625 C42.14423096 268.14027588 42.98768066 268.18289551 43.85668945 268.22680664 C46.6800425 268.78485285 48.09982214 269.72629533 50.1875 271.6875 C51.8442674 276.6578022 52.38005783 282.76545071 50.36328125 287.70703125 C48.89498199 289.95041785 47.6017306 291.4803847 45.1875 292.6875 C43.00804517 292.77507152 40.82570743 292.79400118 38.64453125 292.78125 C37.64677422 292.77587219 37.64677422 292.77587219 36.62886047 292.77038574 C29.47953846 292.7142576 22.33539757 292.48752244 15.18991089 292.25970459 C-12.08719192 291.40890207 -39.2920814 291.50129849 -66.56632996 292.40231323 C-69.30500595 292.48888795 -72.04397332 292.55991081 -74.78314209 292.62890625 C-76.86235846 292.68893957 -78.93973624 292.7744048 -81.01806641 292.859375 C-82.36227313 292.89697882 -83.7065112 292.9334823 -85.05078125 292.96875 C-86.23325439 293.01064453 -87.41572754 293.05253906 -88.6340332 293.09570312 C-92.5145008 292.59734366 -94.08316732 291.43993391 -96.8125 288.6875 C-98.98997758 283.63971106 -99.74495527 277.94105929 -97.8125 272.6875 C-94.83742181 269.2145265 -92.25727789 268.41830165 -87.86328125 268 C-85.95155729 267.8782847 -84.03861092 267.77465709 -82.125 267.6875 C-73.9632309 267.30814231 -64.89001847 266.83600625 -58.83520508 260.67578125 C-50.35176359 250.03522258 -52.66444256 234.26462131 -52.68310547 221.36328125 C-52.68174699 219.76671306 -52.67996457 218.17014518 -52.67779541 216.57357788 C-52.67327415 212.27608329 -52.6749886 207.97861297 -52.6781745 203.68111801 C-52.68072573 199.16021413 -52.67835292 194.63931218 -52.67678833 190.1184082 C-52.67497465 182.5297814 -52.67735185 174.94116437 -52.68212891 167.35253906 C-52.68756997 158.6087214 -52.68580675 149.86492706 -52.6803025 141.12110996 C-52.67574847 133.58185153 -52.675132 126.04260008 -52.67774117 118.50334072 C-52.67929138 114.01448116 -52.67953244 109.52563252 -52.67620468 105.03677368 C-52.67329256 100.81447902 -52.67536237 96.59221412 -52.68109894 92.36992264 C-52.68240875 90.83054275 -52.68206312 89.2911603 -52.67983627 87.75178146 C-52.20201438 68.62202208 -52.20201438 68.62202208 -58.375 51 C-66.06579614 43.70360366 -77.1417472 43.5467216 -87.12109375 43.1640625 C-90.99444638 42.66401063 -93.49741398 41.71916707 -96.8125 39.6875 C-99.17826237 35.81625248 -99.20340675 32.14383696 -98.8125 27.6875 C-97.04995548 22.86369395 -95.34929839 20.96603642 -90.8125 18.6875 C-87.42871094 17.81542969 -87.42871094 17.81542969 -83.546875 17.109375 C-82.09712613 16.83672955 -80.64742084 16.56385226 -79.19775391 16.29077148 C-78.44149719 16.1519455 -77.68524048 16.01311951 -76.90606689 15.87008667 C-61.264942 12.9829738 -46.04891366 9.27093861 -30.8125 4.6875 C-27.86426686 3.80689659 -24.91505109 2.93038621 -21.96240234 2.06469727 C-20.17861481 1.54098628 -18.39741147 1.00834619 -16.61962891 0.46459961 C-10.93825012 -1.21171234 -5.61024366 -2.61811371 0 0 Z " fill="#000000" transform="translate(2477.8125,384.3125)"/>
<path d="M0 0 C0.68787598 0.18191895 1.37575195 0.36383789 2.08447266 0.55126953 C19.50940316 5.31746294 34.16258349 13.55021126 44 29 C50.85826833 41.08265509 51.15400028 56.79262384 48 70 C45.07040369 80.55875338 38.74294928 90.25962699 29.19140625 95.8515625 C28.46824219 96.23054687 27.74507812 96.60953125 27 97 C26.41089844 97.33773437 25.82179688 97.67546875 25.21484375 98.0234375 C17.59885181 101.67241825 6.15237121 101.16592882 -1.875 99.0625 C-7.39402953 96.83140295 -12.32207952 92.62235518 -16 88 C-16.5703125 85.515625 -16.5703125 85.515625 -16 83 C-13.98828125 80.5703125 -13.98828125 80.5703125 -11.3125 78.125 C-4.60425908 71.72987358 0.41927664 66.07733749 1.3359375 56.484375 C1.43832641 46.69599553 0.22967994 39.9395105 -5.125 31.75 C-16.38414961 20.98037864 -29.8125901 18.42436812 -44.83056641 18.59545898 C-60.77005482 19.06732474 -76.02113496 22.99615885 -88 34 C-88.60328125 34.54914063 -89.2065625 35.09828125 -89.828125 35.6640625 C-113.31024997 59.67506415 -114.89791404 103.34608242 -115.00927734 134.60400391 C-114.62760537 165.36417763 -105.66844121 196.45153028 -84.3125 219.1875 C-70.91227086 232.11502167 -54.51665318 237.85501148 -36.125 238.25 C-13.46254904 237.77163692 4.512415 230.64265336 21 215 C24.92153291 210.66921054 28.47606143 206.10717431 31.8984375 201.375 C34.39501434 197.97355033 36.28454217 195.4262302 39.9375 193.25 C44.21984847 192.90042053 47.28457909 193.88932472 51 196 C53.93748761 198.64373885 54.83095082 200.29562842 55.75 204.125 C53.8579327 213.90068106 44.64843825 221.96255739 38 229 C37.06414062 230.01513672 37.06414062 230.01513672 36.109375 231.05078125 C15.56566249 252.58715214 -15.08569454 267.29590542 -44.87890625 268.23828125 C-65.9222515 268.5885041 -85.65079607 266.63432218 -105 258 C-106.19882812 257.47535156 -107.39765625 256.95070313 -108.6328125 256.41015625 C-125.06496624 248.73579873 -141.19940747 235.44412139 -151 220 C-151.36689941 219.4229834 -151.73379883 218.8459668 -152.11181641 218.25146484 C-173.76768536 183.82006962 -180.23730737 140.12697014 -171.3125 100.4375 C-165.04607323 74.94562789 -152.938781 54.07456974 -135 35 C-134.46246094 34.39800781 -133.92492187 33.79601562 -133.37109375 33.17578125 C-127.74285418 27.12436578 -120.83710282 22.56688834 -114 18 C-113.40123047 17.59958496 -112.80246094 17.19916992 -112.18554688 16.78662109 C-79.99687131 -4.39520867 -37.03447412 -10.04926533 0 0 Z " fill="#000000" transform="translate(853,432)"/>
<path d="M0 0 C4.29 0 8.58 0 13 0 C6.582096 13.7793253 -0.17660346 27.35639005 -7.125 40.875 C-8.15172716 42.8778286 -9.17825454 44.88075963 -10.20458984 46.88378906 C-16.22326322 58.62350324 -22.26709097 70.35010711 -28.3425293 82.06054688 C-32.0164363 89.14684748 -35.66609127 96.24507915 -39.30078125 103.3515625 C-39.76558899 104.26019043 -40.23039673 105.16881836 -40.70928955 106.10498047 C-43.00621908 110.5960141 -45.30139965 115.0879312 -47.59423828 119.58105469 C-48.44690556 121.24936662 -49.29960597 122.91766161 -50.15234375 124.5859375 C-50.70792717 125.67680161 -50.70792717 125.67680161 -51.2747345 126.78970337 C-53.85096238 131.82611503 -56.49681854 136.82338787 -59.16236877 141.81289673 C-59.53221028 142.50573918 -59.90205178 143.19858164 -60.28310061 143.91241932 C-61.18847658 145.60841685 -62.09420274 147.30422743 -63 149 C-37.06922248 149.0936308 -11.13847047 149.1640709 14.79244232 149.20724869 C26.83385383 149.22783383 38.87516002 149.25587679 50.91650391 149.30175781 C61.41732339 149.34174976 71.91806656 149.3674622 82.41896009 149.37635398 C87.97404909 149.38154784 93.52891986 149.39367032 99.0839386 149.42292023 C104.32390181 149.4502849 109.56355908 149.45840285 114.80358696 149.45243073 C116.71582648 149.45352162 118.62807736 149.461349 120.54025459 149.4768219 C145.05979306 149.66531825 167.48207469 143.31254722 185.84765625 126.2421875 C202.71692814 108.66875363 208.60883085 88.69295545 208.265625 64.87109375 C207.66583798 46.54524831 199.73065441 29.74963659 186.99609375 16.671875 C182.13145501 12.15717481 176.60161427 8.52661248 171 5 C174.98530038 3.67156654 177.31049157 5.01472413 181 6.5625 C181.67208496 6.84061523 182.34416992 7.11873047 183.03662109 7.40527344 C207.1375614 17.56935834 225.68213617 34.91666852 236.22558594 59.05664062 C244.81558953 80.61289176 247.08637892 107.96065353 239 130 C238.62617187 131.05445313 238.25234375 132.10890625 237.8671875 133.1953125 C228.28720469 158.00175806 208.36645267 179.44821701 184.1796875 190.65600586 C167.15759528 197.86385242 148.69689722 199.15634425 130.46533203 199.12939453 C128.91231241 199.13075272 127.35929311 199.132535 125.80627441 199.13470459 C121.5911462 199.13925423 117.37604257 199.13749286 113.16091394 199.1343255 C108.66146443 199.13175957 104.16201676 199.13415374 99.66256714 199.13571167 C92.03789912 199.13753348 84.41324076 199.13513958 76.78857422 199.13037109 C69.13101559 199.1256347 61.47347649 199.12545447 53.81591797 199.13037109 C2.53580785 199.16253342 -48.72639933 198.83281502 -100 198 C-98.59424073 195.02155655 -97.18678206 192.04391902 -95.77905273 189.06640625 C-95.38720543 188.23612915 -94.99535812 187.40585205 -94.59163666 186.55041504 C-90.5346511 177.973541 -86.31678818 169.48031775 -82.0625 161 C-81.47214966 159.82062866 -81.47214966 159.82062866 -80.86987305 158.61743164 C-76.31101061 149.51168679 -71.71225251 140.43550547 -66.90649414 131.45703125 C-62.44044274 123.05478297 -58.24067666 114.51737848 -54 106 C-49.0691746 96.09646112 -44.1283121 86.21109724 -38.90625 76.45703125 C-34.02143631 67.26500009 -29.44296295 57.91544529 -24.80404663 48.59783936 C-19.67409293 38.29780779 -14.46973569 28.05036491 -9.05859375 17.89453125 C-5.91759984 11.99017353 -2.96491991 5.99429459 0 0 Z " fill="#000000" transform="translate(1757,505)"/>
<path d="M0 0 C0.86361241 -0.00445784 1.72722483 -0.00891569 2.61700732 -0.01350862 C3.5612418 -0.01332426 4.50547629 -0.01313989 5.47832394 -0.01294994 C6.98854867 -0.01846498 6.98854867 -0.01846498 8.52928299 -0.02409142 C11.91358249 -0.0351316 15.29785128 -0.0389728 18.6821661 -0.04278088 C21.10510003 -0.04904564 23.52803301 -0.05569245 25.95096493 -0.0626936 C33.23310272 -0.08192851 40.51523798 -0.09252679 47.79739347 -0.10142139 C51.23331425 -0.10580954 54.66923351 -0.1111753 58.10515308 -0.11641026 C69.54108421 -0.13342803 80.97701439 -0.14791667 92.41295624 -0.155159 C95.38013428 -0.15706869 98.34731231 -0.15898904 101.31449032 -0.16094494 C102.42061608 -0.16167055 102.42061608 -0.16167055 103.54908781 -0.16241082 C115.46355419 -0.17069026 127.37791948 -0.19598922 139.29234184 -0.22852562 C151.54754669 -0.26171708 163.80270044 -0.27961896 176.05795044 -0.28280324 C182.9292845 -0.28495814 189.80047154 -0.29355484 196.67176151 -0.31926441 C203.1486668 -0.34344295 209.62538056 -0.34672182 216.10232449 -0.33650303 C218.46642784 -0.33601086 220.83054474 -0.34223599 223.19460773 -0.35605907 C257.39439643 -0.54466918 284.19222703 8.2912231 309.01590633 32.41156483 C326.72915717 51.28461185 336.38052629 77.5162782 335.92215633 103.27093983 C334.14151523 130.78740944 324.25456055 154.85657181 303.92215633 173.82172108 C293.76601892 182.15389912 282.97532104 188.52811015 270.67215633 193.13422108 C269.76981258 193.48484608 268.86746883 193.83547108 267.93778133 194.19672108 C264.00757562 195.63522774 261.75914949 196.4511411 257.67215633 195.13422108 C258.35020321 194.80551014 259.02825008 194.4767992 259.72684383 194.13812733 C267.09115364 190.37437343 272.75387181 185.86946588 278.67215633 180.13422108 C279.29864071 179.59281483 279.92512508 179.05140858 280.57059383 178.49359608 C290.94193215 169.20162781 298.08704821 152.75321132 299.67215633 139.13422108 C300.78554301 113.74798564 297.23577544 94.05768587 280.14090633 74.19281483 C265.70365603 58.92754576 246.50290142 49.66871021 225.37042141 48.93841648 C220.20023537 48.82430488 215.02990248 48.82096619 209.85867977 48.81537342 C207.87663527 48.80606067 205.89459464 48.79589002 203.91255856 48.78493214 C198.56427436 48.75776989 193.21601631 48.74252381 187.8676815 48.72950411 C182.26628232 48.71381295 176.66493603 48.68704197 171.06357479 48.66147327 C160.4710786 48.61479107 149.87857234 48.57799601 139.28602624 48.5448004 C127.22064844 48.5065042 115.1553239 48.45711378 103.08999109 48.40681624 C78.28408572 48.30365351 53.47814608 48.21434242 28.67215633 48.13422108 C31.92950145 54.51667138 35.18730833 60.89888583 38.44541073 67.28094959 C39.54976083 69.44430896 40.65401179 71.60771893 41.75815487 73.77118397 C48.29045737 86.57043503 54.83303881 99.36411385 61.42215633 112.13422108 C61.77335789 112.81495686 62.12455944 113.49569263 62.48640347 114.19705677 C63.4792623 116.121449 64.47218964 118.04580587 65.46512508 119.97015858 C70.66370097 130.04721844 75.83181298 140.13991244 81.0012579 150.23193836 C85.48422058 158.98342521 89.97467811 167.73079733 94.49637508 176.46234608 C94.87508251 177.19404011 95.25378994 177.92573414 95.64397335 178.67960072 C97.42681722 182.12371601 99.21180208 185.56669084 101.00052547 189.00775623 C101.62551778 190.21393551 102.25044076 191.4201507 102.87528133 192.62640858 C103.41829891 193.67167713 103.96131649 194.71694569 104.52078915 195.79388905 C105.67215633 198.13422108 105.67215633 198.13422108 105.67215633 199.13422108 C101.05215633 199.13422108 96.43215633 199.13422108 91.67215633 199.13422108 C90.99749325 197.77965809 90.32283016 196.4250951 89.62772274 195.02948475 C87.07647827 189.908624 84.52240777 184.78917683 81.96756649 179.67010975 C80.87111573 177.47224038 79.7753887 175.27400978 78.68045712 173.07538319 C73.00615782 161.68257603 67.29029021 150.32251506 61.32257748 139.08031178 C55.97268788 128.97357964 50.93154674 118.71128702 45.84940243 108.46820545 C40.81258669 98.32386878 35.70276263 88.23158586 30.39664364 78.22528553 C25.22507884 68.44531012 20.33712857 58.52429399 15.42215633 48.61371326 C10.40059324 38.49604826 5.30817185 28.4276682 -0.00631046 18.46002674 C-3.02486752 12.78407813 -5.8023561 7.0491788 -8.32784367 1.13422108 C-5.48249389 0.32543364 -2.95448134 0.00709697 0 0 Z " fill="#010101" transform="translate(1665.3278436660767,248.86577892303467)"/>
</svg>
