
<!-- Generator: visioncortex VTracer 0.6.4 -->
<svg version="1.1" xmlns="http://www.w3.org/2000/svg" viewBox="0 0 1414 1414" preserveAspectRatio="xMidYMid meet">
<path d="M0 0 C1.265 -0.007 2.529 -0.013 3.833 -0.02 C7.338 -0.038 10.843 -0.025 14.348 -0.006 C18.163 0.008 21.979 -0.006 25.794 -0.017 C32.479 -0.032 39.164 -0.029 45.849 -0.013 C55.79 0.011 65.731 0.005 75.672 -0.005 C93.425 -0.024 111.178 -0.014 128.931 0.007 C144.465 0.026 160 0.034 175.534 0.032 C176.564 0.032 177.594 0.032 178.655 0.032 C182.836 0.032 187.016 0.031 191.197 0.031 C230.422 0.026 269.646 0.049 308.871 0.085 C343.734 0.117 378.597 0.129 413.461 0.123 C415.7 0.122 417.939 0.122 420.178 0.121 C421.284 0.121 422.391 0.121 423.532 0.121 C429.103 0.12 434.675 0.119 440.247 0.118 C441.346 0.118 442.445 0.118 443.578 0.118 C472.695 0.113 501.813 0.123 530.931 0.138 C531.966 0.139 533.002 0.139 534.069 0.14 C535.619 0.14 535.619 0.14 537.201 0.141 C538.233 0.142 539.264 0.142 540.327 0.143 C542.405 0.144 544.483 0.145 546.561 0.146 C561.059 0.153 575.558 0.155 590.056 0.154 C608.736 0.152 627.415 0.16 646.095 0.186 C655.978 0.199 665.862 0.204 675.745 0.197 C682.341 0.193 688.936 0.2 695.532 0.217 C699.294 0.225 703.055 0.23 706.817 0.221 C710.864 0.211 714.911 0.225 718.958 0.241 C720.72 0.231 720.72 0.231 722.519 0.221 C728.263 0.264 732.439 0.412 737.29 3.624 C737.29 4.284 737.29 4.944 737.29 5.624 C738.657 6.58 740.032 7.528 741.438 8.424 C745.835 11.272 750.101 14.11 753.353 18.249 C755.231 20.552 756.361 21.338 758.915 22.686 C762.465 24.724 762.648 25.229 764.29 28.624 C765.239 29.077 766.188 29.531 767.165 29.999 C770.935 31.959 772.067 34.067 774.29 37.624 C775.587 38.67 776.923 39.671 778.29 40.624 C779.957 42.29 781.623 43.957 783.29 45.624 C784.949 46.967 786.615 48.301 788.29 49.624 C789.311 50.602 790.311 51.603 791.29 52.624 C794.47 55.888 797.699 58.821 801.29 61.624 C805.575 65.123 809.505 68.839 813.415 72.749 C813.851 73.18 814.286 73.612 814.735 74.057 C815.912 75.243 817.07 76.447 818.22 77.659 C818.903 78.369 819.586 79.079 820.29 79.811 C821.249 80.822 821.249 80.822 822.228 81.854 C824.477 83.784 826.55 84.558 829.29 85.624 C830.296 87.286 831.296 88.953 832.29 90.624 C834.257 92.005 836.259 93.339 838.29 94.624 C839.661 95.918 841.003 97.245 842.29 98.624 C842.95 99.284 843.61 99.944 844.29 100.624 C845.187 101.583 845.187 101.583 846.103 102.561 C848.222 104.721 848.222 104.721 850.915 106.124 C853.481 107.745 854.231 108.831 855.29 111.624 C855.95 111.624 856.61 111.624 857.29 111.624 C857.29 112.284 857.29 112.944 857.29 113.624 C858.586 114.272 859.903 114.882 861.239 115.444 C863.649 116.83 864.589 118.186 866.103 120.499 C868.147 123.376 869.76 125.154 872.915 126.749 C876.755 128.882 878.04 130.927 880.29 134.624 C883.158 136.726 883.158 136.726 886.29 137.624 C886.992 138.939 887.655 140.275 888.29 141.624 C890.18 143.76 891.874 145.013 894.29 146.624 C895.478 149.749 895.478 149.749 896.29 152.624 C896.95 152.624 897.61 152.624 898.29 152.624 C898.033 161.442 897.389 169.658 893.29 177.624 C892.63 177.954 891.97 178.284 891.29 178.624 C891.29 179.284 891.29 179.944 891.29 180.624 C889.805 181.614 889.805 181.614 888.29 182.624 C887.96 183.614 887.63 184.604 887.29 185.624 C880.467 189.656 872.935 190.81 865.153 189.174 C863.517 188.707 861.901 188.172 860.29 187.624 C860.29 186.964 860.29 186.304 860.29 185.624 C858.635 184.605 856.967 183.606 855.29 182.624 C854.96 181.964 854.63 181.304 854.29 180.624 C853.63 180.294 852.97 179.964 852.29 179.624 C851.836 178.984 851.383 178.345 850.915 177.686 C849.462 175.532 849.462 175.532 847.353 174.686 C845.29 173.624 845.29 173.624 843.478 171.249 C841.45 168.815 840.362 167.974 837.665 166.561 C834.172 164.556 833.793 164.06 832.29 160.624 C829.235 157.583 829.235 157.583 825.29 156.624 C824.857 155.86 824.424 155.097 823.978 154.311 C822.083 151.293 820.336 150.353 817.29 148.624 C817.29 147.964 817.29 147.304 817.29 146.624 C816.3 146.294 815.31 145.964 814.29 145.624 C812.623 143.957 810.957 142.29 809.29 140.624 C808.403 140.108 807.516 139.592 806.603 139.061 C803.958 137.417 803.613 136.352 802.29 133.624 C800.035 131.651 797.971 129.964 795.29 128.624 C792.702 126.105 790.188 123.52 787.665 120.936 C785.319 118.511 785.319 118.511 782.29 116.624 C781.63 115.964 780.97 115.304 780.29 114.624 C778.805 113.695 778.805 113.695 777.29 112.749 C774.306 110.635 773.752 109.756 772.29 106.624 C771.362 106.16 771.362 106.16 770.415 105.686 C767.565 104.261 766.265 102.093 764.29 99.624 C763.63 99.294 762.97 98.964 762.29 98.624 C759.501 97.229 758.193 95.062 756.29 92.624 C754.981 91.592 753.649 90.588 752.29 89.624 C750.398 87.814 748.635 85.918 746.853 83.999 C744.59 81.51 744.59 81.51 742.165 81.124 C740.29 80.624 740.29 80.624 738.665 78.186 C738.211 77.34 737.758 76.495 737.29 75.624 C736.63 74.964 735.97 74.304 735.29 73.624 C734.3 73.624 733.31 73.624 732.29 73.624 C731.036 72.19 731.036 72.19 729.728 70.186 C725.263 64.042 720.619 57.686 712.935 55.801 C708.942 55.491 705.002 55.465 701.003 55.541 C699.464 55.537 697.925 55.53 696.386 55.518 C692.178 55.498 687.972 55.534 683.764 55.579 C679.219 55.618 674.674 55.605 670.128 55.598 C662.26 55.593 654.393 55.621 646.525 55.672 C635.15 55.745 623.775 55.769 612.399 55.78 C593.942 55.8 575.484 55.859 557.027 55.945 C539.101 56.027 521.175 56.091 503.249 56.129 C501.591 56.133 501.591 56.133 499.899 56.136 C494.352 56.148 488.806 56.16 483.26 56.171 C437.269 56.264 391.28 56.43 345.29 56.624 C345.29 82.034 345.29 107.444 345.29 133.624 C354.628 133.589 363.966 133.554 373.587 133.518 C379.493 133.503 385.399 133.488 391.306 133.477 C400.686 133.459 410.066 133.438 419.446 133.397 C426.277 133.367 433.108 133.348 439.939 133.341 C443.557 133.337 447.174 133.328 450.792 133.306 C454.829 133.282 458.865 133.282 462.902 133.283 C464.104 133.272 465.305 133.261 466.542 133.25 C467.642 133.254 468.741 133.259 469.874 133.263 C470.829 133.26 471.784 133.257 472.768 133.254 C475.761 133.693 477.028 134.663 479.29 136.624 C480.28 137.284 481.27 137.944 482.29 138.624 C483.657 140.417 484.871 142.277 486.106 144.163 C486.497 144.645 486.888 145.127 487.29 145.624 C487.95 145.624 488.61 145.624 489.29 145.624 C491.746 153.959 492.722 161.554 492.668 170.223 C492.674 172.048 492.674 172.048 492.681 173.909 C492.69 177.265 492.685 180.62 492.675 183.975 C492.668 187.634 492.678 191.292 492.685 194.951 C492.696 201.356 492.696 207.761 492.688 214.166 C492.677 223.69 492.682 233.214 492.692 242.739 C492.707 259.75 492.706 276.762 492.697 293.773 C492.69 308.659 492.688 323.545 492.691 338.431 C492.692 339.912 492.692 339.912 492.692 341.423 C492.693 345.432 492.694 349.441 492.695 353.45 C492.704 391.051 492.696 428.652 492.68 466.253 C492.665 499.66 492.667 533.068 492.681 566.475 C492.697 604.01 492.704 641.546 492.694 679.081 C492.693 683.082 492.692 687.083 492.691 691.084 C492.691 692.562 492.691 692.562 492.691 694.069 C492.687 708.947 492.691 723.825 492.699 738.703 C492.707 755.618 492.705 772.533 492.689 789.448 C492.68 798.915 492.68 808.382 492.691 817.85 C492.698 824.173 492.694 830.495 492.68 836.818 C492.673 840.421 492.671 844.024 492.682 847.627 C492.693 851.51 492.681 855.393 492.668 859.276 C492.675 860.392 492.682 861.507 492.689 862.657 C492.635 870.097 491.65 876.904 488.29 883.624 C488.021 884.284 487.751 884.944 487.474 885.624 C486.034 888.057 484.93 888.548 482.353 889.624 C478.973 891.17 477.374 892.498 475.29 895.624 C473.103 896.874 473.103 896.874 471.29 897.624 C471.29 898.284 471.29 898.944 471.29 899.624 C469.29 900.29 467.29 900.957 465.29 901.624 C464.96 902.284 464.63 902.944 464.29 903.624 C462.29 905.624 462.29 905.624 459.29 907.624 C458.96 908.284 458.63 908.944 458.29 909.624 C456.269 910.7 454.197 911.602 452.103 912.526 C449.951 913.562 449.951 913.562 449.29 916.624 C448.04 918.311 448.04 918.311 446.29 919.624 C443.603 919.811 443.603 919.811 441.29 919.624 C441.043 920.407 440.795 921.191 440.54 921.999 C439.076 925.072 438.362 925.395 435.29 926.624 C431.946 928.339 430.229 929.7 427.853 932.686 C425.041 935.909 423.322 936.524 419.29 937.624 C418.96 938.284 418.63 938.944 418.29 939.624 C416.345 941.192 414.526 942.505 412.29 943.624 C411.919 944.583 411.919 944.583 411.54 945.561 C409.747 948.52 407.508 948.618 404.29 949.624 C402.352 952.396 402.352 952.396 401.29 954.624 C400.455 954.778 400.455 954.778 399.603 954.936 C395.088 956.278 391.824 960.077 388.603 963.374 C386.29 965.624 386.29 965.624 383.29 966.624 C382.165 967.749 381.05 968.886 379.978 970.061 C378.29 971.624 378.29 971.624 375.665 973.124 C372.992 974.461 372.992 974.461 372.29 977.624 C370.962 977.978 369.628 978.309 368.29 978.624 C366.417 980.219 365.392 981.42 364.29 983.624 C363.424 983.809 363.424 983.809 362.54 983.999 C358.73 985.057 356.09 987.476 353.853 990.686 C351.746 993.298 349.286 994.126 346.29 995.624 C344.517 997.018 342.848 998.496 341.169 1000.003 C338.51 1002.297 335.661 1004.303 332.794 1006.327 C332.049 1006.969 332.049 1006.969 331.29 1007.624 C331.29 1008.284 331.29 1008.944 331.29 1009.624 C330.362 1009.809 330.362 1009.809 329.415 1009.999 C327.099 1010.496 327.099 1010.496 325.29 1012.624 C322.138 1012.889 322.138 1012.889 318.353 1012.874 C317.106 1012.879 315.859 1012.884 314.575 1012.889 C311.29 1012.624 311.29 1012.624 308.29 1010.624 C306.964 1009.942 305.632 1009.272 304.29 1008.624 C304.29 1007.964 304.29 1007.304 304.29 1006.624 C303.63 1006.624 302.97 1006.624 302.29 1006.624 C299.665 1004.249 299.665 1004.249 297.29 1001.624 C297.29 1000.964 297.29 1000.304 297.29 999.624 C296.63 999.294 295.97 998.964 295.29 998.624 C294.657 996.776 294.657 996.776 294.165 994.561 C293.997 993.828 293.83 993.094 293.657 992.338 C293.536 991.773 293.415 991.207 293.29 990.624 C292.63 990.624 291.97 990.624 291.29 990.624 C291.29 726.294 291.29 461.964 291.29 189.624 C239.81 189.624 188.33 189.624 135.29 189.624 C132.32 188.634 129.35 187.644 126.29 186.624 C125.96 185.964 125.63 185.304 125.29 184.624 C121.974 180.929 121.974 180.929 117.665 178.624 C114.52 177.299 113.931 175.548 112.29 172.624 C109.905 170.537 108.324 169.635 105.29 168.624 C104.603 166.561 104.603 166.561 104.29 164.624 C103.63 164.624 102.97 164.624 102.29 164.624 C100.691 162.878 99.276 161.025 97.825 159.155 C96.297 157.271 96.297 157.271 93.29 157.624 C92.264 155.973 91.267 154.304 90.29 152.624 C88.989 151.582 87.652 150.585 86.29 149.624 C84.623 147.957 82.957 146.29 81.29 144.624 C79.962 143.617 78.629 142.617 77.29 141.624 C75.936 140.311 74.602 138.978 73.29 137.624 C72.816 137.149 72.341 136.675 71.853 136.186 C70.561 134.894 69.296 133.575 68.04 132.249 C65.433 129.761 62.808 127.757 59.841 125.737 C55.928 122.928 52.692 119.026 49.29 115.624 C47.805 114.634 47.805 114.634 46.29 113.624 C46.29 112.964 46.29 112.304 46.29 111.624 C44.805 111.129 44.805 111.129 43.29 110.624 C39.399 109.164 38.289 107.187 36.29 103.624 C34.894 101.809 34.894 101.809 33.29 100.624 C32.3 100.624 31.31 100.624 30.29 100.624 C29.63 98.974 28.97 97.324 28.29 95.624 C27.63 95.624 26.97 95.624 26.29 95.624 C24.933 94.314 23.604 92.976 22.29 91.624 C21.424 90.943 20.558 90.262 19.665 89.561 C17.29 87.624 17.29 87.624 15.29 84.624 C14.341 84.19 13.393 83.757 12.415 83.311 C8.695 81.302 7.481 79.175 5.29 75.624 C2.614 73.439 2.614 73.439 0.29 73.624 C-0.226 72.551 -0.741 71.479 -1.272 70.374 C-2.936 67.405 -4.39 65.958 -7.397 64.374 C-10.71 62.624 -10.71 62.624 -11.71 59.624 C-13.498 57.736 -13.498 57.736 -15.647 55.936 C-16.358 55.314 -17.068 54.691 -17.8 54.049 C-19.58 52.424 -19.58 52.424 -21.71 52.624 C-23.924 50.063 -25.832 47.441 -27.71 44.624 C-28.37 43.964 -29.03 43.304 -29.71 42.624 C-32.86 33.35 -32.893 23.453 -29.562 14.233 C-28.71 12.624 -28.71 12.624 -26.71 11.624 C-26.029 10.716 -25.349 9.809 -24.647 8.874 C-17.967 0.833 -9.948 -0.105 0 0 Z M61.29 54.624 C63.949 57.283 65.9 56.853 69.516 56.856 C70.838 56.841 70.838 56.841 72.186 56.826 C73.119 56.824 74.052 56.821 75.013 56.819 C78.158 56.809 81.302 56.784 84.447 56.759 C86.693 56.748 88.94 56.739 91.186 56.73 C97.302 56.704 103.417 56.665 109.533 56.624 C115.917 56.584 122.302 56.555 128.687 56.524 C139.409 56.472 150.131 56.412 160.853 56.347 C171.898 56.28 182.943 56.218 193.988 56.161 C194.668 56.157 195.349 56.154 196.05 56.15 C199.464 56.132 202.878 56.115 206.291 56.098 C234.624 55.952 262.957 55.793 291.29 55.624 C291.29 55.294 291.29 54.964 291.29 54.624 C215.39 54.624 139.49 54.624 61.29 54.624 Z M292.29 54.624 C292.29 81.354 292.29 108.084 292.29 135.624 C292.62 135.624 292.95 135.624 293.29 135.624 C293.29 108.894 293.29 82.164 293.29 54.624 C292.96 54.624 292.63 54.624 292.29 54.624 Z M345.29 54.624 C345.29 54.954 345.29 55.284 345.29 55.624 C466.73 55.624 588.17 55.624 713.29 55.624 C713.29 55.294 713.29 54.964 713.29 54.624 C591.85 54.624 470.41 54.624 345.29 54.624 Z M63.29 56.624 C64.953 57.733 66.619 58.839 68.29 59.936 C70.29 61.624 70.29 61.624 71.54 63.874 C73.691 67.254 76.318 69.42 79.364 71.987 C81.454 73.763 83.352 75.686 85.29 77.624 C85.929 78.098 86.569 78.572 87.228 79.061 C89.29 80.624 89.29 80.624 91.79 83.186 C94.057 85.652 94.057 85.652 96.478 86.686 C98.819 87.897 99.331 89.225 100.29 91.624 C100.95 91.624 101.61 91.624 102.29 91.624 C102.496 92.18 102.703 92.737 102.915 93.311 C104.258 95.571 105.342 96.623 107.353 98.249 C110.29 100.624 110.29 100.624 111.29 102.624 C113.817 103.279 113.817 103.279 116.29 103.624 C116.29 104.284 116.29 104.944 116.29 105.624 C116.991 106.18 117.693 106.737 118.415 107.311 C120.754 109.192 122.312 110.77 124.165 113.061 C126.698 116.121 129.337 118.178 132.626 120.366 C134.387 121.697 135.615 123.081 136.978 124.811 C138.984 127.64 138.984 127.64 141.29 128.624 C143.29 129.624 143.29 129.624 145.059 132.649 C146.988 134.985 148.014 135.57 151.028 136.157 C154.694 136.324 158.316 136.299 161.985 136.213 C163.394 136.201 164.804 136.193 166.213 136.186 C170.034 136.161 173.853 136.099 177.673 136.03 C181.667 135.964 185.662 135.933 189.656 135.898 C197.218 135.826 204.779 135.724 212.34 135.61 C222.559 135.459 232.779 135.355 242.998 135.248 C259.096 135.079 275.193 134.846 291.29 134.624 C291.29 108.884 291.29 83.144 291.29 56.624 C216.05 56.624 140.81 56.624 63.29 56.624 Z M346.29 134.624 C346.29 134.954 346.29 135.284 346.29 135.624 C384.57 135.624 422.85 135.624 462.29 135.624 C462.29 135.294 462.29 134.964 462.29 134.624 C424.01 134.624 385.73 134.624 346.29 134.624 Z M345.29 189.624 C345.29 433.494 345.29 677.364 345.29 928.624 C346.28 928.294 347.27 927.964 348.29 927.624 C348.599 926.984 348.909 926.345 349.228 925.686 C350.566 923.088 351.64 922.759 354.29 921.624 C356.961 920.098 359.111 918.802 361.29 916.624 C361.95 915.964 362.61 915.304 363.29 914.624 C363.62 913.964 363.95 913.304 364.29 912.624 C365.156 912.5 365.156 912.5 366.04 912.374 C368.993 911.389 370.076 909.505 371.938 907.112 C374.012 904.828 376.494 903.847 379.29 902.624 C383.139 900.652 385.245 898.514 387.892 895.108 C389.471 893.431 391.01 892.513 393.04 891.436 C396.554 889.955 396.554 889.955 397.29 886.624 C398.218 886.335 399.146 886.046 400.103 885.749 C403.898 884.409 404.886 882.749 407.29 879.624 C409.353 878.999 409.353 878.999 411.29 878.624 C412.313 877.647 413.309 876.642 414.29 875.624 C416.29 874.29 418.29 872.957 420.29 871.624 C421.311 870.645 422.311 869.644 423.29 868.624 C426.939 865.472 430.672 862.594 434.614 859.823 C437.283 857.913 439.965 855.948 442.29 853.624 C442.387 852.166 442.414 850.703 442.414 849.242 C442.418 847.811 442.418 847.811 442.421 846.351 C442.418 845.288 442.416 844.225 442.413 843.131 C442.414 842.008 442.415 840.886 442.417 839.73 C442.419 835.918 442.415 832.107 442.41 828.295 C442.41 825.556 442.412 822.816 442.413 820.076 C442.415 814.093 442.413 808.11 442.409 802.127 C442.403 793.231 442.403 784.334 442.404 775.437 C442.405 760.474 442.402 745.511 442.396 730.548 C442.39 715.725 442.386 700.903 442.385 686.08 C442.385 685.159 442.385 684.239 442.385 683.291 C442.384 678.616 442.384 673.942 442.384 669.268 C442.382 636.131 442.375 602.994 442.365 569.857 C442.356 537.658 442.349 505.459 442.345 473.26 C442.345 472.268 442.345 471.276 442.345 470.254 C442.343 460.293 442.342 450.332 442.341 440.371 C442.338 420.078 442.335 399.785 442.332 379.492 C442.332 378.559 442.332 377.626 442.332 376.665 C442.325 328.36 442.313 280.055 442.301 231.751 C442.301 230.731 442.301 230.731 442.301 229.691 C442.297 216.335 442.294 202.979 442.29 189.624 C410.28 189.624 378.27 189.624 345.29 189.624 Z M312.29 1010.624 C312.29 1010.954 312.29 1011.284 312.29 1011.624 C316.58 1011.624 320.87 1011.624 325.29 1011.624 C325.29 1011.294 325.29 1010.964 325.29 1010.624 C321 1010.624 316.71 1010.624 312.29 1010.624 Z M737.29 4.624 C739.29 5.624 739.29 5.624 739.29 5.624 Z M722.29 62.624 C723.28 63.614 724.27 64.604 725.29 65.624 C724.3 65.294 723.31 64.964 722.29 64.624 C722.29 63.964 722.29 63.304 722.29 62.624 Z M61.29 127.624 C63.29 128.624 63.29 128.624 63.29 128.624 Z M493.29 158.624 C493.62 158.624 493.95 158.624 494.29 158.624 C494.29 393.914 494.29 629.204 494.29 871.624 C493.96 871.624 493.63 871.624 493.29 871.624 C493.29 636.334 493.29 401.044 493.29 158.624 Z M858.29 185.624 C860.29 186.624 860.29 186.624 860.29 186.624 Z M423.29 865.624 C425.29 866.624 425.29 866.624 425.29 866.624 Z M492.29 871.624 C493.29 875.624 493.29 875.624 493.29 875.624 Z M432.29 927.624 C434.29 928.624 434.29 928.624 434.29 928.624 Z M395.29 956.624 C397.29 957.624 397.29 957.624 397.29 957.624 Z M292.29 990.624 C293.29 994.624 293.29 994.624 293.29 994.624 Z M337.29 1002.624 C339.29 1003.624 339.29 1003.624 339.29 1003.624 Z M327.29 1009.624 C329.29 1010.624 329.29 1010.624 329.29 1010.624 Z " fill="#000000" transform="translate(126.70999431610107,199.37638092041016)"/>
<path d="M0 0 C0.911 0.01 1.822 0.021 2.761 0.032 C3.747 0.038 4.733 0.045 5.75 0.051 C7.298 0.076 7.298 0.076 8.878 0.102 C9.919 0.111 10.959 0.12 12.031 0.129 C14.605 0.153 17.179 0.186 19.753 0.227 C19.092 7.243 19.092 7.243 15.753 10.227 C14.711 12.258 13.739 14.326 12.816 16.415 C11.098 20.252 9.372 24.055 7.441 27.79 C6.123 30.474 5.439 32.408 4.753 35.227 C2.259 40.782 2.259 40.782 0.191 42.602 C-2.228 45.337 -2.496 48.703 -3.247 52.227 C-3.907 52.227 -4.567 52.227 -5.247 52.227 C-6.739 55.095 -8.213 57.973 -9.684 60.852 C-10.105 61.66 -10.526 62.469 -10.959 63.301 C-13.154 67.62 -14.81 71.325 -15.247 76.227 C-15.907 76.227 -16.567 76.227 -17.247 76.227 C-18.299 78.331 -19.278 80.458 -20.247 82.602 C-20.597 83.373 -20.948 84.144 -21.309 84.938 C-22.294 87.168 -22.294 87.168 -22.747 89.391 C-23.47 92.047 -25.326 93.306 -27.247 95.227 C-28.487 97.462 -29.665 99.694 -30.809 101.977 C-31.126 102.585 -31.442 103.194 -31.768 103.821 C-33.691 107.643 -34.617 111.022 -35.247 115.227 C-36.58 116.56 -37.913 117.894 -39.247 119.227 C-41.138 122.791 -42.84 126.452 -43.743 130.395 C-44.247 132.227 -44.247 132.227 -46.122 134.04 C-48.825 136.823 -49.789 139.643 -51.247 143.227 C-51.936 144.467 -52.645 145.696 -53.372 146.915 C-54.888 149.594 -55.643 151.311 -56.247 154.227 C-56.881 155.576 -57.545 156.912 -58.247 158.227 C-58.577 158.887 -58.907 159.547 -59.247 160.227 C-59.822 161.198 -60.396 162.168 -60.989 163.168 C-67.575 173.527 -67.575 173.527 -70.247 185.227 C-70.907 185.227 -71.567 185.227 -72.247 185.227 C-72.577 186.877 -72.907 188.527 -73.247 190.227 C-73.907 190.227 -74.567 190.227 -75.247 190.227 C-75.894 191.664 -76.54 193.101 -77.184 194.54 C-77.544 195.34 -77.903 196.141 -78.274 196.965 C-79.325 199.322 -79.325 199.322 -80.247 202.227 C-80.908 203.097 -80.908 203.097 -81.583 203.985 C-83.708 206.848 -85.28 209.925 -86.872 213.102 C-87.184 213.701 -87.495 214.301 -87.817 214.918 C-89.72 218.701 -90.655 222.056 -91.247 226.227 C-92.684 228.102 -92.684 228.102 -94.247 229.227 C-94.907 229.227 -95.567 229.227 -96.247 229.227 C-96.37 229.908 -96.494 230.588 -96.622 231.29 C-98.598 240.578 -98.598 240.578 -101.247 243.227 C-103.607 246.08 -104.926 248.782 -106.247 252.227 C-105.374 252.237 -104.502 252.248 -103.603 252.258 C-95.392 252.356 -87.181 252.459 -78.97 252.566 C-74.748 252.622 -70.526 252.675 -66.305 252.724 C-62.233 252.772 -58.161 252.824 -54.089 252.88 C-52.533 252.9 -50.978 252.919 -49.422 252.936 C-47.248 252.96 -45.074 252.99 -42.899 253.022 C-41.66 253.037 -40.421 253.053 -39.145 253.069 C-36.247 253.227 -36.247 253.227 -34.247 254.227 C-31.251 254.325 -28.279 254.362 -25.284 254.354 C-24.344 254.356 -23.403 254.357 -22.435 254.359 C-19.263 254.363 -16.091 254.36 -12.92 254.356 C-10.653 254.358 -8.386 254.36 -6.12 254.362 C0.059 254.366 6.238 254.365 12.417 254.361 C18.895 254.359 25.373 254.361 31.85 254.363 C43.454 254.365 55.057 254.362 66.66 254.357 C77.132 254.352 87.605 254.353 98.077 254.357 C110.259 254.363 122.441 254.365 134.623 254.362 C141.062 254.36 147.502 254.36 153.941 254.363 C160.02 254.366 166.099 254.364 172.177 254.358 C174.39 254.357 176.602 254.357 178.814 254.36 C190.12 254.37 201.404 254.237 212.702 253.781 C214.166 253.723 214.166 253.723 215.66 253.664 C222.408 253.364 229.087 252.838 235.753 251.727 C238.148 251.328 240.465 251.068 242.878 250.852 C250.908 249.983 258.652 248.133 265.753 244.227 C266.496 244.062 267.238 243.897 268.003 243.727 C270.163 243.314 270.163 243.314 271.753 240.227 C273.777 239.418 273.777 239.418 276.128 238.79 C280.076 237.589 281.916 236.253 284.753 233.227 C287.07 232.189 289.402 231.185 291.753 230.227 C292.413 229.567 293.073 228.907 293.753 228.227 C295.753 226.227 295.753 226.227 297.628 224.852 C299.876 223.134 301.788 221.258 303.753 219.227 C305.482 217.499 307.235 216.015 309.128 214.477 C312.37 211.739 314.417 208.772 316.753 205.227 C317.455 204.897 318.156 204.567 318.878 204.227 C321.111 203.304 321.111 203.304 321.878 200.165 C322.167 199.195 322.456 198.226 322.753 197.227 C323.413 196.897 324.073 196.567 324.753 196.227 C325.438 194.903 326.102 193.568 326.753 192.227 C327.753 190.894 328.753 189.56 329.753 188.227 C331.463 185.283 332.195 182.581 332.753 179.227 C333.413 179.227 334.073 179.227 334.753 179.227 C335.909 176.376 337.053 173.522 338.191 170.665 C338.516 169.865 338.842 169.065 339.177 168.241 C341.035 163.547 342.271 159.293 342.753 154.227 C342.846 153.303 342.939 152.379 343.035 151.426 C343.182 149.739 343.327 148.051 343.472 146.364 C343.753 144.227 343.753 144.227 344.753 142.227 C344.753 141.237 344.753 140.247 344.753 139.227 C345.413 139.227 346.073 139.227 346.753 139.227 C346.753 128.997 346.753 118.767 346.753 108.227 C346.093 108.227 345.433 108.227 344.753 108.227 C344.753 106.247 344.753 104.267 344.753 102.227 C344.423 102.227 344.093 102.227 343.753 102.227 C343.693 101.526 343.632 100.825 343.57 100.102 C343.486 99.153 343.402 98.205 343.316 97.227 C343.235 96.299 343.153 95.371 343.07 94.415 C342.965 93.363 342.861 92.311 342.753 91.227 C342.653 89.997 342.552 88.768 342.449 87.5 C341.785 82.343 339.95 77.673 338.066 72.852 C337.53 71.465 337.53 71.465 336.983 70.051 C333.317 60.616 333.317 60.616 327.753 52.227 C327.093 52.227 326.433 52.227 325.753 52.227 C325.423 50.907 325.093 49.587 324.753 48.227 C324.093 48.227 323.433 48.227 322.753 48.227 C322.671 47.67 322.588 47.113 322.503 46.54 C321.257 42.695 318.571 40.044 315.753 37.227 C315.382 36.464 315.011 35.701 314.628 34.915 C312.353 31.653 309.941 30.318 306.496 28.438 C304.753 27.227 304.753 27.227 303.753 24.227 C299.639 21.19 295.209 18.722 290.753 16.227 C290.753 15.567 290.753 14.907 290.753 14.227 C289.763 13.897 288.773 13.567 287.753 13.227 C286.413 12.576 285.077 11.912 283.753 11.227 C283.753 10.567 283.753 9.907 283.753 9.227 C282.64 8.98 281.526 8.732 280.378 8.477 C276.753 7.227 276.753 7.227 275.527 5.149 C275.144 4.198 275.144 4.198 274.753 3.227 C275.382 3.371 276.012 3.516 276.66 3.665 C282.159 4.857 287.13 5.435 292.753 5.227 C292.753 5.887 292.753 6.547 292.753 7.227 C294.709 7.924 296.668 8.609 298.628 9.29 C299.719 9.672 300.81 10.055 301.933 10.45 C304.677 11.544 304.677 11.544 306.753 10.227 C309.378 11.165 309.378 11.165 311.753 12.227 C311.753 12.887 311.753 13.547 311.753 14.227 C313.733 14.557 315.713 14.887 317.753 15.227 C317.753 15.887 317.753 16.547 317.753 17.227 C318.413 17.227 319.073 17.227 319.753 17.227 C320.083 17.887 320.413 18.547 320.753 19.227 C322.641 19.912 322.641 19.912 324.816 20.352 C325.549 20.52 326.283 20.687 327.039 20.86 C327.604 20.981 328.17 21.102 328.753 21.227 C328.753 21.887 328.753 22.547 328.753 23.227 C329.475 23.289 330.197 23.351 330.941 23.415 C334.61 24.475 336.071 26.544 338.753 29.227 C340.545 30.146 340.545 30.146 342.441 30.852 C345.753 32.227 345.753 32.227 347.753 35.227 C350.023 37.198 352.071 38.917 354.816 40.165 C357.521 41.648 358.919 43.781 360.753 46.227 C362.786 48.39 362.786 48.39 365.753 50.227 C365.753 50.887 365.753 51.547 365.753 52.227 C366.413 52.557 367.073 52.887 367.753 53.227 C368.689 54.362 369.578 55.536 370.441 56.727 C371.228 57.794 371.228 57.794 372.031 58.883 C372.883 60.043 372.883 60.043 373.753 61.227 C374.995 62.9 376.245 64.567 377.503 66.227 C378.076 66.99 378.648 67.753 379.238 68.54 C379.738 69.096 380.238 69.653 380.753 70.227 C381.413 70.227 382.073 70.227 382.753 70.227 C383.083 71.877 383.413 73.527 383.753 75.227 C384.413 75.227 385.073 75.227 385.753 75.227 C387.073 78.527 388.393 81.827 389.753 85.227 C390.413 85.227 391.073 85.227 391.753 85.227 C393.192 87.951 394.239 90.593 395.128 93.54 C396.516 97.838 398.434 101.362 400.753 105.227 C401.751 108.221 402.413 111.214 403.085 114.293 C403.928 117.992 404.835 121.672 405.753 125.352 C406.002 126.355 406.002 126.355 406.257 127.378 C407.337 131.689 408.512 135.961 409.753 140.227 C410.083 140.227 410.413 140.227 410.753 140.227 C413.008 159.697 413.008 177.757 410.753 197.227 C410.093 197.227 409.433 197.227 408.753 197.227 C408.077 200.079 407.412 202.933 406.753 205.79 C406.563 206.589 406.372 207.389 406.175 208.213 C405.081 213 404.654 217.289 404.753 222.227 C403.753 225.165 403.753 225.165 402.753 227.227 C402.093 227.227 401.433 227.227 400.753 227.227 C398.48 232.578 396.641 237.456 395.753 243.227 C395.093 243.557 394.433 243.887 393.753 244.227 C393.753 245.217 393.753 246.207 393.753 247.227 C393.093 247.227 392.433 247.227 391.753 247.227 C391.423 248.217 391.093 249.207 390.753 250.227 C389.76 251.566 388.76 252.899 387.753 254.227 C387.056 255.545 386.384 256.876 385.753 258.227 C384.753 260.227 384.753 260.227 383.496 261.426 C380.956 264.051 378.962 267.052 376.878 270.04 C368.167 282.52 368.167 282.52 364.753 284.227 C364.423 285.217 364.093 286.207 363.753 287.227 C361.691 288.415 361.691 288.415 359.753 289.227 C359.753 289.887 359.753 290.547 359.753 291.227 C354.277 296.227 354.277 296.227 351.753 296.227 C349.239 298.49 347.146 300.396 345.691 303.477 C345.382 304.055 345.072 304.632 344.753 305.227 C342.816 305.79 342.816 305.79 340.753 306.227 C339.17 307.644 339.17 307.644 337.753 309.227 C336.763 309.887 335.773 310.547 334.753 311.227 C334.423 311.887 334.093 312.547 333.753 313.227 C332.088 313.569 330.422 313.902 328.753 314.227 C327.576 315.405 326.419 316.605 325.316 317.852 C323.753 319.227 323.753 319.227 320.753 319.227 C320.423 319.887 320.093 320.547 319.753 321.227 C318.003 321.938 318.003 321.938 315.753 322.602 C310.906 324.119 306.354 326.085 301.753 328.227 C301.753 328.887 301.753 329.547 301.753 330.227 C298.453 330.557 295.153 330.887 291.753 331.227 C291.753 331.887 291.753 332.547 291.753 333.227 C290.052 333.134 290.052 333.134 288.316 333.04 C283.415 333.013 279.279 334.467 274.753 336.227 C274.753 336.557 274.753 336.887 274.753 337.227 C261.127 340.041 247.933 341.29 234.003 341.352 C233.14 341.357 232.277 341.362 231.387 341.366 C230.544 341.364 229.701 341.362 228.832 341.36 C227.724 341.358 227.724 341.358 226.594 341.356 C224.138 341.245 221.766 340.998 219.327 340.711 C212.71 340.03 206.138 340.212 199.496 340.348 C198.053 340.373 196.609 340.397 195.166 340.42 C192.012 340.471 188.858 340.524 185.704 340.579 C150.576 341.18 115.448 341.356 80.316 341.352 C79.125 341.352 77.934 341.352 76.707 341.352 C-5.945 341.339 -88.597 340.732 -171.247 340.227 C-172.891 332.88 -169.922 326.659 -166.247 320.227 C-165.755 319.775 -165.264 319.322 -164.758 318.856 C-162.907 316.861 -162.348 315.131 -161.559 312.54 C-161.308 311.731 -161.056 310.923 -160.797 310.09 C-160.525 309.168 -160.525 309.168 -160.247 308.227 C-159.587 308.227 -158.927 308.227 -158.247 308.227 C-157.088 306.046 -155.945 303.858 -154.809 301.665 C-154.484 301.055 -154.158 300.446 -153.823 299.819 C-151.659 295.602 -150.83 291.977 -150.247 287.227 C-148.937 285.871 -147.599 284.541 -146.247 283.227 C-143.647 278.717 -141.478 274.287 -140.247 269.227 C-139.247 267.894 -138.247 266.56 -137.247 265.227 C-134.87 261.03 -132.852 257.07 -132.247 252.227 C-131.587 252.227 -130.927 252.227 -130.247 252.227 C-128.757 249.336 -127.282 246.439 -125.809 243.54 C-125.388 242.723 -124.967 241.906 -124.534 241.065 C-124.131 240.269 -123.728 239.473 -123.313 238.653 C-122.941 237.925 -122.569 237.197 -122.186 236.447 C-121.174 234.055 -120.673 231.784 -120.247 229.227 C-119.587 229.227 -118.927 229.227 -118.247 229.227 C-118.247 228.567 -118.247 227.907 -118.247 227.227 C-117.587 227.227 -116.927 227.227 -116.247 227.227 C-116.124 226.522 -116.002 225.817 -115.875 225.09 C-115.213 222.072 -114.265 219.308 -113.184 216.415 C-112.822 215.439 -112.46 214.463 -112.086 213.458 C-111.809 212.721 -111.532 211.985 -111.247 211.227 C-110.587 211.227 -109.927 211.227 -109.247 211.227 C-104.84 202.522 -100.511 193.783 -96.309 184.977 C-95.92 184.168 -95.531 183.358 -95.13 182.525 C-94.586 181.38 -94.586 181.38 -94.032 180.211 C-93.55 179.202 -93.55 179.202 -93.059 178.171 C-92.187 176.235 -92.187 176.235 -91.752 174.115 C-91.247 172.227 -91.247 172.227 -89.372 170.04 C-86.602 166.374 -85.505 162.603 -84.247 158.227 C-83.587 158.227 -82.927 158.227 -82.247 158.227 C-82.132 157.648 -82.017 157.069 -81.899 156.473 C-81.189 154.03 -80.205 152.413 -78.809 150.29 C-75.445 144.833 -72.688 139.132 -69.934 133.352 C-69.489 132.424 -69.045 131.496 -68.587 130.54 C-66.32 125.927 -66.32 125.927 -64.742 121.062 C-64.247 119.227 -64.247 119.227 -62.247 117.227 C-60.077 113.973 -58.885 110.702 -57.622 107.04 C-57.392 106.385 -57.163 105.731 -56.926 105.057 C-56.363 103.448 -55.804 101.838 -55.247 100.227 C-54.587 100.227 -53.927 100.227 -53.247 100.227 C-51.761 97.314 -50.284 94.396 -48.809 91.477 C-48.388 90.652 -47.967 89.827 -47.534 88.977 C-47.131 88.178 -46.728 87.379 -46.313 86.555 C-45.755 85.455 -45.755 85.455 -45.186 84.333 C-44.186 82.259 -44.186 82.259 -43.709 80.049 C-43.118 77.722 -41.931 76.899 -40.247 75.227 C-39.321 73.136 -39.321 73.136 -38.684 70.852 C-38.313 69.663 -38.313 69.663 -37.934 68.45 C-37.594 67.349 -37.594 67.349 -37.247 66.227 C-35.547 61.527 -35.547 61.527 -33.247 59.227 C-31.057 55.942 -30.249 53.02 -29.247 49.227 C-28.587 49.227 -27.927 49.227 -27.247 49.227 C-26.937 48.278 -26.628 47.33 -26.309 46.352 C-25.208 43.112 -24.154 41.087 -22.247 38.227 C-21.181 36.24 -20.142 34.238 -19.122 32.227 C-18.583 31.175 -18.044 30.123 -17.489 29.04 C-16.045 26.282 -16.045 26.282 -16.247 23.227 C-15.587 23.227 -14.927 23.227 -14.247 23.227 C-14.247 22.567 -14.247 21.907 -14.247 21.227 C-13.257 20.732 -13.257 20.732 -12.247 20.227 C-11.392 17.772 -10.776 15.286 -10.125 12.77 C-9.203 10.1 -8.016 8.406 -6.247 6.227 C-5.896 5.526 -5.545 4.825 -5.184 4.102 C-3.858 1.449 -3.02 0.305 0 0 Z M343.753 92.227 C344.753 96.227 344.753 96.227 344.753 96.227 Z M347.753 118.227 C347.753 120.867 347.753 123.507 347.753 126.227 C348.083 126.227 348.413 126.227 348.753 126.227 C348.753 123.587 348.753 120.947 348.753 118.227 C348.423 118.227 348.093 118.227 347.753 118.227 Z M409.753 148.227 C409.753 152.517 409.753 156.807 409.753 161.227 C410.083 161.227 410.413 161.227 410.753 161.227 C410.753 156.937 410.753 152.647 410.753 148.227 C410.423 148.227 410.093 148.227 409.753 148.227 Z M343.753 149.227 C344.753 153.227 344.753 153.227 344.753 153.227 Z M410.753 163.227 C410.753 166.197 410.753 169.167 410.753 172.227 C411.083 172.227 411.413 172.227 411.753 172.227 C411.753 169.257 411.753 166.287 411.753 163.227 C411.423 163.227 411.093 163.227 410.753 163.227 Z M409.753 175.227 C409.753 180.177 409.753 185.127 409.753 190.227 C410.083 190.227 410.413 190.227 410.753 190.227 C410.753 185.277 410.753 180.327 410.753 175.227 C410.423 175.227 410.093 175.227 409.753 175.227 Z M402.753 218.227 C403.753 221.227 403.753 221.227 403.753 221.227 Z M401.753 221.227 C402.753 224.227 402.753 224.227 402.753 224.227 Z M223.753 254.227 C223.753 254.557 223.753 254.887 223.753 255.227 C226.393 255.227 229.033 255.227 231.753 255.227 C231.753 254.897 231.753 254.567 231.753 254.227 C229.113 254.227 226.473 254.227 223.753 254.227 Z M-26.247 255.227 C-26.247 255.557 -26.247 255.887 -26.247 256.227 C39.093 256.227 104.433 256.227 171.753 256.227 C171.753 255.897 171.753 255.567 171.753 255.227 C106.413 255.227 41.073 255.227 -26.247 255.227 Z M199.753 255.227 C199.753 255.557 199.753 255.887 199.753 256.227 C207.343 256.227 214.933 256.227 222.753 256.227 C222.753 255.897 222.753 255.567 222.753 255.227 C215.163 255.227 207.573 255.227 199.753 255.227 Z M-138.247 267.227 C-137.247 269.227 -137.247 269.227 -137.247 269.227 Z M264.753 336.227 C264.753 336.557 264.753 336.887 264.753 337.227 C266.403 337.227 268.053 337.227 269.753 337.227 C269.753 336.897 269.753 336.567 269.753 336.227 C268.103 336.227 266.453 336.227 264.753 336.227 Z M210.753 337.227 C210.753 337.557 210.753 337.887 210.753 338.227 C213.063 338.227 215.373 338.227 217.753 338.227 C217.753 337.897 217.753 337.567 217.753 337.227 C215.443 337.227 213.133 337.227 210.753 337.227 Z M257.753 337.227 C257.753 337.557 257.753 337.887 257.753 338.227 C259.733 338.227 261.713 338.227 263.753 338.227 C263.753 337.897 263.753 337.567 263.753 337.227 C261.773 337.227 259.793 337.227 257.753 337.227 Z M148.753 338.227 C148.753 338.557 148.753 338.887 148.753 339.227 C168.553 339.227 188.353 339.227 208.753 339.227 C208.753 338.897 208.753 338.567 208.753 338.227 C188.953 338.227 169.153 338.227 148.753 338.227 Z M246.753 338.227 C246.753 338.557 246.753 338.887 246.753 339.227 C250.383 339.227 254.013 339.227 257.753 339.227 C257.753 338.897 257.753 338.567 257.753 338.227 C254.123 338.227 250.493 338.227 246.753 338.227 Z M26.753 339.227 C26.753 339.557 26.753 339.887 26.753 340.227 C58.103 340.227 89.453 340.227 121.753 340.227 C121.753 339.897 121.753 339.567 121.753 339.227 C90.403 339.227 59.053 339.227 26.753 339.227 Z M224.753 339.227 C224.753 339.557 224.753 339.887 224.753 340.227 C230.693 340.227 236.633 340.227 242.753 340.227 C242.753 339.897 242.753 339.567 242.753 339.227 C236.813 339.227 230.873 339.227 224.753 339.227 Z M280.753 3.227 C283.393 3.557 286.033 3.887 288.753 4.227 C286.148 5.158 285.111 5.376 282.503 4.29 C281.926 3.939 281.348 3.588 280.753 3.227 Z M292.753 6.227 C295.753 7.227 295.753 7.227 295.753 7.227 Z M311.753 13.227 C313.753 14.227 313.753 14.227 313.753 14.227 Z M332.753 62.227 C333.413 62.887 334.073 63.547 334.753 64.227 C334.423 65.217 334.093 66.207 333.753 67.227 C333.423 65.577 333.093 63.927 332.753 62.227 Z M340.753 83.227 C341.753 87.227 341.753 87.227 341.753 87.227 Z M341.753 87.227 C342.753 91.227 342.753 91.227 342.753 91.227 Z M404.753 117.227 C405.753 121.227 405.753 121.227 405.753 121.227 Z M408.753 135.227 C409.753 139.227 409.753 139.227 409.753 139.227 Z M340.753 157.227 C341.753 161.227 341.753 161.227 341.753 161.227 Z M408.753 197.227 C409.753 201.227 409.753 201.227 409.753 201.227 Z M267.753 242.227 C269.753 243.227 269.753 243.227 269.753 243.227 Z M248.753 248.227 C252.753 249.227 252.753 249.227 252.753 249.227 Z M243.753 249.227 C247.753 250.227 247.753 250.227 247.753 250.227 Z M239.753 250.227 C242.753 251.227 242.753 251.227 242.753 251.227 Z M173.753 253.227 C182.003 253.227 190.253 253.227 198.753 253.227 C198.753 253.557 198.753 253.887 198.753 254.227 C190.503 254.227 182.253 254.227 173.753 254.227 C173.753 253.897 173.753 253.567 173.753 253.227 Z M313.753 323.227 C315.753 324.227 315.753 324.227 315.753 324.227 Z M301.753 328.227 C303.753 329.227 303.753 329.227 303.753 329.227 Z M295.753 330.227 C298.753 331.227 298.753 331.227 298.753 331.227 Z M291.753 331.227 C295.753 332.227 295.753 332.227 295.753 332.227 Z " fill="#000000" transform="translate(903.24658203125,871.77294921875)"/>
<path d="M0 0 C14.373 0.005 28.747 0.004 43.12 -0.001 C60.042 -0.006 76.965 -0.008 93.887 -0.005 C95.688 -0.005 97.49 -0.005 99.291 -0.004 C100.619 -0.004 100.619 -0.004 101.973 -0.004 C108.157 -0.003 114.341 -0.004 120.524 -0.007 C128.016 -0.01 135.507 -0.009 142.999 -0.004 C146.804 -0.001 150.61 0 154.416 -0.003 C158.549 -0.007 162.681 -0.002 166.814 0.002 C168.589 -0.001 168.589 -0.001 170.399 -0.004 C178.448 0.014 186.41 0.489 194.431 1.129 C196.077 1.234 197.723 1.338 199.369 1.442 C203.85 1.907 208.14 2.941 212.494 4.067 C213.162 4.237 213.83 4.407 214.519 4.582 C216.175 5.032 217.807 5.574 219.431 6.129 C219.761 6.789 220.091 7.449 220.431 8.129 C222.628 9.064 224.866 9.903 227.119 10.692 C228.339 11.126 229.56 11.561 230.818 12.008 C234.04 13.008 237.095 13.673 240.431 14.129 C240.431 14.789 240.431 15.449 240.431 16.129 C242.411 16.789 244.391 17.449 246.431 18.129 C246.431 18.789 246.431 19.449 246.431 20.129 C247.427 20.367 247.427 20.367 248.443 20.61 C254.173 22.124 257.447 23.542 261.431 28.129 C262.421 28.459 263.411 28.789 264.431 29.129 C265.071 29.789 265.71 30.449 266.369 31.129 C268.226 33.273 268.226 33.273 270.556 33.629 C271.484 33.877 271.484 33.877 272.431 34.129 C272.708 34.739 272.985 35.349 273.271 35.977 C274.724 38.674 276.252 39.516 278.869 41.067 C282.562 43.405 284.376 45.225 286.431 49.129 C288.694 51.116 290.74 52.784 293.431 54.129 C294.112 55.614 294.112 55.614 294.806 57.129 C295.342 58.119 295.879 59.109 296.431 60.129 C297.415 60.363 297.415 60.363 298.419 60.602 C299.083 60.776 299.747 60.95 300.431 61.129 C301.403 62.972 302.361 64.824 303.224 66.719 C305.441 71.146 308.265 75.324 311.431 79.129 C312.091 79.129 312.751 79.129 313.431 79.129 C313.586 79.934 313.586 79.934 313.744 80.754 C314.612 83.754 315.987 86.367 317.431 89.129 C318.091 89.129 318.751 89.129 319.431 89.129 C320.862 91.85 321.947 94.511 322.869 97.442 C324.172 101.458 325.709 105.276 327.431 109.129 C328.091 109.129 328.751 109.129 329.431 109.129 C329.603 110.825 329.603 110.825 329.779 112.555 C330.37 117.281 331.579 121.741 332.869 126.317 C334.942 133.892 336.492 141.321 337.431 149.129 C338.091 149.129 338.751 149.129 339.431 149.129 C340.41 156.47 340.582 163.666 340.556 171.067 C340.56 172.183 340.564 173.298 340.568 174.448 C340.56 181.07 340.246 187.556 339.431 194.129 C338.771 194.129 338.111 194.129 337.431 194.129 C337.273 195.232 337.114 196.334 336.951 197.469 C335.599 206.4 333.848 214.956 331.057 223.557 C330.137 226.441 329.427 228.877 329.474 231.922 C329.431 234.129 329.431 234.129 328.095 235.602 C327.546 236.106 326.997 236.61 326.431 237.129 C325.491 238.909 324.62 240.726 323.806 242.567 C323.381 243.514 322.955 244.462 322.517 245.438 C321.4 248.012 321.4 248.012 320.908 250.352 C320.431 252.129 320.431 252.129 318.431 254.129 C316.391 256.679 314.811 259.172 313.431 262.129 C312.322 264.348 310.917 266.148 309.431 268.129 C309.101 268.789 308.771 269.449 308.431 270.129 C307.3 271.414 306.152 272.682 304.994 273.942 C302.877 276.311 301.52 277.9 300.369 280.879 C298.987 284.195 296.389 285.219 293.431 287.129 C293.122 287.779 292.812 288.429 292.494 289.098 C291.176 291.616 289.915 292.247 287.431 293.567 C283.771 295.69 282.874 297.134 281.431 301.129 C280.689 301.253 279.946 301.377 279.181 301.504 C275.376 302.369 274.157 304.507 271.861 307.536 C270.431 309.129 270.431 309.129 267.431 310.129 C260.429 313.074 260.429 313.074 255.431 318.129 C254.441 318.129 253.451 318.129 252.431 318.129 C252.101 319.119 251.771 320.109 251.431 321.129 C249.506 321.627 247.576 322.116 245.63 322.528 C242.179 323.472 239.48 325.276 236.431 327.129 C233.757 328.021 231.194 328.607 228.431 329.129 C228.431 329.789 228.431 330.449 228.431 331.129 C227.132 331.233 225.832 331.336 224.494 331.442 C219.519 331.984 215.105 333.402 210.431 335.129 C207.549 336.09 205.733 336.235 202.744 336.192 C201.935 336.183 201.127 336.174 200.294 336.165 C199.372 336.147 199.372 336.147 198.431 336.129 C200.397 334.024 201.711 332.992 204.369 331.692 C207.422 330.134 209.074 328.563 211.431 326.129 C215.124 323.608 217.017 323.129 221.431 323.129 C221.761 322.139 222.091 321.149 222.431 320.129 C223.091 320.129 223.751 320.129 224.431 320.129 C224.761 319.469 225.091 318.809 225.431 318.129 C226.869 316.504 226.869 316.504 228.431 315.129 C229.091 315.129 229.751 315.129 230.431 315.129 C231.091 314.139 231.751 313.149 232.431 312.129 C235.322 308.103 238.333 305.861 242.431 303.129 C242.761 302.139 243.091 301.149 243.431 300.129 C244.38 299.387 245.329 298.644 246.306 297.879 C249.756 295.149 250.751 292.19 252.431 288.129 C253.434 286.888 254.478 285.68 255.556 284.504 C258.023 281.799 259.203 279.901 259.431 276.129 C260.091 276.129 260.751 276.129 261.431 276.129 C261.761 273.819 262.091 271.509 262.431 269.129 C263.091 269.129 263.751 269.129 264.431 269.129 C269.96 254.537 269.96 254.537 271.404 239.133 C271.431 237.129 271.431 237.129 272.431 236.129 C273.706 232.426 273.561 228.763 273.564 224.879 C273.565 224.184 273.566 223.489 273.567 222.773 C273.568 221.307 273.566 219.841 273.562 218.376 C273.556 216.137 273.562 213.899 273.568 211.661 C273.567 210.234 273.566 208.807 273.564 207.379 C273.563 206.085 273.562 204.791 273.561 203.458 C273.456 200.77 273.187 198.676 272.431 196.129 C272.332 194.547 272.25 192.963 272.181 191.379 C271.756 186.216 270.54 181.547 268.994 176.629 C268.776 175.935 268.559 175.24 268.335 174.525 C267.308 171.381 266.278 168.899 264.431 166.129 C264.101 165.139 263.771 164.149 263.431 163.129 C262.249 160.608 260.986 158.462 259.431 156.129 C258.691 154.414 257.985 152.683 257.306 150.942 C256.776 149.59 256.776 149.59 256.236 148.211 C255.97 147.524 255.705 146.837 255.431 146.129 C254.771 146.129 254.111 146.129 253.431 146.129 C253.128 145.454 252.825 144.779 252.513 144.083 C250.081 138.904 248.201 135.481 243.431 132.129 C242.765 130.796 242.098 129.463 241.431 128.129 C239.105 126.068 239.105 126.068 236.431 124.129 C233.679 122.048 231.507 120.226 229.369 117.504 C227.468 115.174 226.189 114.213 223.431 113.129 C223.431 112.469 223.431 111.809 223.431 111.129 C222.596 110.758 222.596 110.758 221.744 110.379 C219.027 108.911 216.815 107.085 214.431 105.129 C211.603 103.026 211.603 103.026 208.619 102.317 C205.431 101.129 205.431 101.129 202.494 98.567 C199.008 95.793 196.814 95.392 192.431 95.129 C192.431 94.469 192.431 93.809 192.431 93.129 C191.503 93.171 190.575 93.212 189.619 93.254 C186.431 93.129 186.431 93.129 183.431 91.129 C182.771 91.129 182.111 91.129 181.431 91.129 C181.431 90.469 181.431 89.809 181.431 89.129 C180.647 89.171 179.864 89.212 179.056 89.254 C176.431 89.129 176.431 89.129 174.431 87.129 C172.394 86.59 172.394 86.59 170.013 86.313 C168.642 86.127 168.642 86.127 167.242 85.937 C166.253 85.815 165.263 85.693 164.244 85.567 C163.231 85.438 162.218 85.31 161.175 85.177 C153.647 84.275 146.13 83.716 138.556 83.379 C137.558 83.335 136.56 83.29 135.532 83.244 C131.982 83.1 131.982 83.1 128.431 83.129 C128.101 83.459 127.771 83.789 127.431 84.129 C125.217 84.291 122.998 84.382 120.779 84.446 C120.072 84.467 119.365 84.488 118.636 84.509 C116.256 84.576 113.875 84.635 111.494 84.692 C110.677 84.713 109.86 84.734 109.019 84.756 C85.828 85.347 62.628 85.222 39.431 85.129 C39.431 84.799 39.431 84.469 39.431 84.129 C-0.169 83.799 -39.769 83.469 -80.569 83.129 C-52.519 83.459 -24.469 83.789 4.431 84.129 C4.431 84.459 4.431 84.789 4.431 85.129 C-13.11 85.16 -30.652 85.18 -48.194 85.192 C-49.488 85.193 -50.782 85.194 -52.115 85.195 C-85.311 85.214 -118.502 85.167 -151.694 84.629 C-152.433 84.618 -153.173 84.606 -153.935 84.593 C-162.48 84.454 -171.024 84.299 -179.569 84.129 C-177.919 87.759 -176.269 91.389 -174.569 95.129 C-173.909 95.129 -173.249 95.129 -172.569 95.129 C-170.874 98.176 -170.074 100.958 -169.444 104.379 C-169.276 105.271 -169.109 106.164 -168.936 107.083 C-168.815 107.758 -168.694 108.434 -168.569 109.129 C-167.084 109.624 -167.084 109.624 -165.569 110.129 C-164.223 112.268 -163.506 114.334 -162.768 116.751 C-161.311 120.856 -159.426 124.632 -157.444 128.504 C-157.071 129.241 -156.699 129.977 -156.315 130.735 C-155.403 132.535 -154.487 134.332 -153.569 136.129 C-152.909 136.129 -152.249 136.129 -151.569 136.129 C-151.466 136.81 -151.363 137.491 -151.256 138.192 C-150.422 141.759 -149.074 144.792 -147.569 148.129 C-146.909 148.129 -146.249 148.129 -145.569 148.129 C-143.675 152.674 -143.675 152.674 -143.115 155.068 C-142.552 157.192 -141.773 158.913 -140.76 160.86 C-139.322 163.662 -137.907 166.47 -136.534 169.305 C-136.199 169.988 -135.865 170.67 -135.52 171.374 C-134.836 172.77 -134.156 174.168 -133.481 175.569 C-131.648 179.399 -131.648 179.399 -128.985 182.658 C-126.885 184.841 -127.005 187.199 -126.569 190.129 C-125.909 190.789 -125.249 191.449 -124.569 192.129 C-123.865 193.444 -123.202 194.78 -122.569 196.129 C-120.164 201.327 -120.164 201.327 -117.006 206.067 C-115.498 208.231 -114.908 209.995 -114.131 212.504 C-112.868 216.574 -111.015 219.624 -108.569 223.129 C-108.22 224.459 -107.888 225.793 -107.569 227.129 C-107.012 228.419 -106.418 229.693 -105.791 230.95 C-105.443 231.65 -105.094 232.35 -104.735 233.071 C-104.189 234.152 -104.189 234.152 -103.631 235.254 C-103.271 235.983 -102.911 236.711 -102.54 237.461 C-102.19 238.159 -101.84 238.856 -101.479 239.575 C-101.161 240.209 -100.842 240.844 -100.514 241.497 C-99.555 243.315 -99.555 243.315 -97.569 245.129 C-95.383 247.316 -94.886 248.668 -93.944 251.567 C-93.683 252.349 -93.423 253.132 -93.155 253.938 C-92.569 256.129 -92.569 256.129 -92.569 259.129 C-91.579 259.459 -90.589 259.789 -89.569 260.129 C-89.569 260.789 -89.569 261.449 -89.569 262.129 C-88.909 262.459 -88.249 262.789 -87.569 263.129 C-86.915 265.161 -86.264 267.193 -85.631 269.231 C-83.481 275.097 -80.444 280.592 -77.569 286.129 C-76.909 286.129 -76.249 286.129 -75.569 286.129 C-75.466 286.996 -75.363 287.862 -75.256 288.754 C-74.535 292.296 -73.298 294.973 -71.569 298.129 C-70.909 298.129 -70.249 298.129 -69.569 298.129 C-67.529 302.694 -65.814 307.247 -64.315 312.016 C-62.913 316.369 -62.913 316.369 -59.569 319.129 C-58.858 320.985 -58.858 320.985 -58.194 323.317 C-56.899 327.458 -55.119 330.592 -52.569 334.129 C-51.875 335.449 -51.194 336.776 -50.569 338.129 C-52.569 340.129 -52.569 340.129 -54.815 340.357 C-55.727 340.346 -56.638 340.336 -57.577 340.325 C-58.563 340.318 -59.549 340.312 -60.565 340.305 C-61.597 340.288 -62.63 340.272 -63.694 340.254 C-64.734 340.245 -65.774 340.236 -66.846 340.227 C-69.421 340.203 -71.995 340.171 -74.569 340.129 C-75.559 337.819 -76.549 335.509 -77.569 333.129 C-78.229 333.129 -78.889 333.129 -79.569 333.129 C-79.872 332.261 -80.175 331.392 -80.487 330.497 C-82.988 323.083 -82.988 323.083 -87.319 316.692 C-89.974 313.668 -90.021 312.042 -90.569 308.129 C-92.125 304.386 -93.689 301.01 -96.569 298.129 C-97.283 296.146 -97.955 294.146 -98.569 292.129 C-99.229 292.129 -99.889 292.129 -100.569 292.129 C-100.837 290.913 -101.105 289.696 -101.381 288.442 C-102.265 284.908 -103.403 282.107 -105.569 279.129 C-106.229 278.799 -106.889 278.469 -107.569 278.129 C-107.569 277.139 -107.569 276.149 -107.569 275.129 C-108.229 275.129 -108.889 275.129 -109.569 275.129 C-109.693 274.243 -109.816 273.356 -109.944 272.442 C-110.518 269.401 -111.22 266.906 -112.569 264.129 C-113.229 263.799 -113.889 263.469 -114.569 263.129 C-114.569 262.139 -114.569 261.149 -114.569 260.129 C-115.229 259.799 -115.889 259.469 -116.569 259.129 C-117.248 257.134 -117.914 255.134 -118.569 253.129 C-119.229 252.469 -119.889 251.809 -120.569 251.129 C-120.713 250.531 -120.858 249.933 -121.006 249.317 C-121.496 246.982 -121.496 246.982 -123.069 244.629 C-124.569 242.129 -124.569 242.129 -125.069 240.067 C-125.71 237.584 -126.913 236.061 -128.569 234.129 C-128.899 234.129 -129.229 234.129 -129.569 234.129 C-129.69 233.491 -129.811 232.853 -129.936 232.196 C-130.104 231.37 -130.271 230.543 -130.444 229.692 C-130.606 228.868 -130.769 228.045 -130.936 227.196 C-131.249 226.173 -131.249 226.173 -131.569 225.129 C-132.229 224.799 -132.889 224.469 -133.569 224.129 C-134.203 222.862 -134.836 221.594 -135.467 220.325 C-136.256 218.753 -137.054 217.186 -137.858 215.622 C-138.299 214.758 -138.74 213.894 -139.194 213.004 C-139.64 212.136 -140.086 211.267 -140.545 210.372 C-141.569 208.129 -141.569 208.129 -141.569 206.129 C-142.559 205.799 -143.549 205.469 -144.569 205.129 C-144.985 203.359 -145.393 201.586 -145.764 199.805 C-147.529 193.936 -150.727 188.539 -153.569 183.129 C-154.229 183.129 -154.889 183.129 -155.569 183.129 C-155.895 182.154 -156.221 181.178 -156.557 180.172 C-156.998 178.887 -157.439 177.602 -157.881 176.317 C-158.095 175.674 -158.308 175.032 -158.528 174.37 C-159.72 170.934 -160.755 168.472 -163.569 166.129 C-164.842 163.958 -165.631 161.927 -166.37 159.516 C-167.825 155.407 -169.711 151.63 -171.694 147.754 C-172.066 147.018 -172.439 146.282 -172.823 145.524 C-173.734 143.724 -174.651 141.926 -175.569 140.129 C-176.229 140.129 -176.889 140.129 -177.569 140.129 C-177.662 138.83 -177.662 138.83 -177.756 137.504 C-178.764 133.32 -180.765 131.344 -183.569 128.129 C-185.51 124.054 -186.398 119.894 -187.381 115.504 C-188.175 112.046 -188.175 112.046 -190.631 111.004 C-191.271 110.716 -191.91 110.427 -192.569 110.129 C-192.7 109.437 -192.832 108.745 -192.967 108.032 C-193.741 104.301 -195.388 101.168 -197.131 97.817 C-197.461 97.172 -197.79 96.527 -198.129 95.862 C-198.937 94.282 -199.752 92.705 -200.569 91.129 C-201.229 91.129 -201.889 91.129 -202.569 91.129 C-204.773 86.42 -206.13 82.072 -207.041 76.95 C-207.215 76.349 -207.39 75.748 -207.569 75.129 C-208.559 74.634 -208.559 74.634 -209.569 74.129 C-209.899 73.469 -210.229 72.809 -210.569 72.129 C-211.249 71.356 -211.249 71.356 -211.944 70.567 C-213.519 68.204 -214.147 66.447 -214.944 63.754 C-215.995 60.345 -216.752 58.911 -219.131 56.067 C-221.587 53.107 -222.114 51.318 -222.834 47.629 C-224.534 41.843 -227.77 36.458 -230.569 31.129 C-231.229 31.129 -231.889 31.129 -232.569 31.129 C-232.823 30.298 -233.077 29.467 -233.338 28.61 C-233.683 27.523 -234.027 26.437 -234.381 25.317 C-234.718 24.238 -235.054 23.159 -235.401 22.047 C-236.514 19.266 -237.347 18.035 -239.569 16.129 C-242.289 11.488 -243.567 6.371 -244.569 1.129 C-163.049 -0.12 -81.527 -0.026 0 0 Z M199.431 3.129 C203.431 4.129 203.431 4.129 203.431 4.129 Z M203.431 4.129 C207.431 5.129 207.431 5.129 207.431 5.129 Z M208.431 5.129 C212.431 6.129 212.431 6.129 212.431 6.129 Z M-203.569 84.129 C-202.569 86.129 -202.569 86.129 -202.569 86.129 Z M-202.569 86.129 C-201.569 88.129 -201.569 88.129 -201.569 88.129 Z M338.431 160.129 C338.431 167.389 338.431 174.649 338.431 182.129 C338.761 182.129 339.091 182.129 339.431 182.129 C339.431 174.869 339.431 167.609 339.431 160.129 C339.101 160.129 338.771 160.129 338.431 160.129 Z M275.431 207.129 C275.431 212.739 275.431 218.349 275.431 224.129 C275.761 224.129 276.091 224.129 276.431 224.129 C276.431 218.519 276.431 212.909 276.431 207.129 C276.101 207.129 275.771 207.129 275.431 207.129 Z M262.431 272.129 C263.431 274.129 263.431 274.129 263.431 274.129 Z M-70.569 301.129 C-69.569 303.129 -69.569 303.129 -69.569 303.129 Z M226.431 9.129 C228.431 10.129 228.431 10.129 228.431 10.129 Z M229.431 10.129 C231.431 11.129 231.431 11.129 231.431 11.129 Z M231.431 11.129 C233.431 12.129 233.431 12.129 233.431 12.129 Z M234.431 12.129 C236.431 13.129 236.431 13.129 236.431 13.129 Z M266.431 31.129 C268.431 32.129 268.431 32.129 268.431 32.129 Z M127.431 84.129 C131.431 85.129 131.431 85.129 131.431 85.129 Z M139.431 84.129 C143.391 84.129 147.351 84.129 151.431 84.129 C151.431 84.459 151.431 84.789 151.431 85.129 C147.471 85.129 143.511 85.129 139.431 85.129 C139.431 84.799 139.431 84.469 139.431 84.129 Z M189.431 93.129 C192.431 94.129 192.431 94.129 192.431 94.129 Z M331.431 117.129 C332.431 121.129 332.431 121.129 332.431 121.129 Z M336.431 138.129 C337.431 142.129 337.431 142.129 337.431 142.129 Z M337.431 142.129 C337.761 142.129 338.091 142.129 338.431 142.129 C338.431 144.439 338.431 146.749 338.431 149.129 C338.101 149.129 337.771 149.129 337.431 149.129 C337.431 146.819 337.431 144.509 337.431 142.129 Z M268.431 177.129 C269.431 181.129 269.431 181.129 269.431 181.129 Z M269.431 181.129 C270.431 185.129 270.431 185.129 270.431 185.129 Z M270.431 185.129 C270.761 185.129 271.091 185.129 271.431 185.129 C271.431 186.779 271.431 188.429 271.431 190.129 C271.101 190.129 270.771 190.129 270.431 190.129 C270.431 188.479 270.431 186.829 270.431 185.129 Z M-126.569 187.129 C-125.909 187.789 -125.249 188.449 -124.569 189.129 C-124.899 190.119 -125.229 191.109 -125.569 192.129 C-125.899 190.479 -126.229 188.829 -126.569 187.129 Z M271.431 190.129 C271.761 190.129 272.091 190.129 272.431 190.129 C272.431 191.779 272.431 193.429 272.431 195.129 C272.101 195.129 271.771 195.129 271.431 195.129 C271.431 193.479 271.431 191.829 271.431 190.129 Z M337.431 194.129 C337.761 194.129 338.091 194.129 338.431 194.129 C338.431 196.109 338.431 198.089 338.431 200.129 C338.101 200.129 337.771 200.129 337.431 200.129 C337.431 198.149 337.431 196.169 337.431 194.129 Z M336.431 201.129 C337.431 205.129 337.431 205.129 337.431 205.129 Z M331.431 222.129 C332.056 223.942 332.056 223.942 332.431 226.129 C331.771 227.119 331.111 228.109 330.431 229.129 C330.761 226.819 331.091 224.509 331.431 222.129 Z M-128.569 234.129 C-127.579 235.449 -126.589 236.769 -125.569 238.129 C-125.899 238.789 -126.229 239.449 -126.569 240.129 C-128.569 237.129 -128.569 237.129 -128.569 234.129 Z M270.431 243.129 C271.431 247.129 271.431 247.129 271.431 247.129 Z M269.431 247.129 C270.431 251.129 270.431 251.129 270.431 251.129 Z M268.431 251.129 C269.431 255.129 269.431 255.129 269.431 255.129 Z M276.431 302.129 C278.431 303.129 278.431 303.129 278.431 303.129 Z M245.431 322.129 C247.431 323.129 247.431 323.129 247.431 323.129 Z M231.431 328.129 C233.431 329.129 233.431 329.129 233.431 329.129 Z M228.431 329.129 C231.431 330.129 231.431 330.129 231.431 330.129 Z M222.431 331.129 C225.431 332.129 225.431 332.129 225.431 332.129 Z M219.431 332.129 C221.431 333.129 221.431 333.129 221.431 333.129 Z M203.431 336.129 C206.431 337.129 206.431 337.129 206.431 337.129 Z M200.431 337.129 C203.431 338.129 203.431 338.129 203.431 338.129 Z " fill="#000000" transform="translate(975.5688132047653,435.87053921818733)"/>
<path d="M0 0 C6.6 0 13.2 0 20 0 C20 0.33 20 0.66 20 1 C13.4 1 6.8 1 0 1 C0 0.67 0 0.34 0 0 Z " fill="#000000" transform="translate(902,870)"/>
<path d="M0 0 C5.94 0 11.88 0 18 0 C18 0.33 18 0.66 18 1 C12.06 1 6.12 1 0 1 C0 0.67 0 0.34 0 0 Z " fill="#000000" transform="translate(1084,521)"/>
<path d="M0 0 C1.65 0 3.3 0 5 0 C5 0.33 5 0.66 5 1 C3.35 1 1.7 1 0 1 C0 0.67 0 0.34 0 0 Z " fill="#000000" transform="translate(118,199)"/>
<path d="M0 0 C4 1 4 1 4 1 Z " fill="#000000" transform="translate(918,777)"/>
<path d="M0 0 C3 1 3 1 3 1 Z " fill="#000000" transform="translate(1132,521)"/>
<path d="M0 0 C3 1 3 1 3 1 Z " fill="#000000" transform="translate(849,199)"/>
<path d="M0 0 C2 1 2 1 2 1 Z " fill="#000000" transform="translate(1188,1205)"/>
<path d="M0 0 C2 1 2 1 2 1 Z " fill="#000000" transform="translate(1157,1119)"/>
<path d="M0 0 C2 1 2 1 2 1 Z " fill="#000000" transform="translate(1181,874)"/>
<path d="" fill="#000000" transform="translate(0,0)"/>
<path d="M0 0 C2 1 2 1 2 1 Z " fill="#000000" transform="translate(1139,522)"/>
<path d="" fill="#000000" transform="translate(0,0)"/>
<path d="" fill="#000000" transform="translate(0,0)"/>
<path d="" fill="#000000" transform="translate(0,0)"/>
<path d="" fill="#000000" transform="translate(0,0)"/>
<path d="" fill="#000000" transform="translate(0,0)"/>
<path d="" fill="#000000" transform="translate(0,0)"/>
<path d="" fill="#000000" transform="translate(0,0)"/>
<path d="" fill="#000000" transform="translate(0,0)"/>
<path d="" fill="#000000" transform="translate(0,0)"/>
<path d="" fill="#000000" transform="translate(0,0)"/>
<path d="" fill="#000000" transform="translate(0,0)"/>
<path d="" fill="#000000" transform="translate(0,0)"/>
<path d="" fill="#000000" transform="translate(0,0)"/>
<path d="" fill="#000000" transform="translate(0,0)"/>
<path d="" fill="#000000" transform="translate(0,0)"/>
<path d="" fill="#000000" transform="translate(0,0)"/>
<path d="" fill="#000000" transform="translate(0,0)"/>
<path d="" fill="#000000" transform="translate(0,0)"/>
<path d="" fill="#000000" transform="translate(0,0)"/>
<path d="" fill="#000000" transform="translate(0,0)"/>
<path d="" fill="#000000" transform="translate(0,0)"/>
<path d="" fill="#000000" transform="translate(0,0)"/>
<path d="" fill="#000000" transform="translate(0,0)"/>
<path d="" fill="#000000" transform="translate(0,0)"/>
<path d="" fill="#000000" transform="translate(0,0)"/>
<path d="" fill="#000000" transform="translate(0,0)"/>
<path d="" fill="#000000" transform="translate(0,0)"/>
<path d="" fill="#000000" transform="translate(0,0)"/>
<path d="" fill="#000000" transform="translate(0,0)"/>
<path d="" fill="#000000" transform="translate(0,0)"/>
<path d="" fill="#000000" transform="translate(0,0)"/>
<path d="" fill="#000000" transform="translate(0,0)"/>
<path d="" fill="#000000" transform="translate(0,0)"/>
<path d="" fill="#000000" transform="translate(0,0)"/>
<path d="" fill="#000000" transform="translate(0,0)"/>
<path d="" fill="#000000" transform="translate(0,0)"/>
<path d="" fill="#000000" transform="translate(0,0)"/>
<path d="" fill="#000000" transform="translate(0,0)"/>
<path d="" fill="#000000" transform="translate(0,0)"/>
</svg>