<?xml version="1.0" encoding="UTF-8"?>
<svg version="1.1" xmlns="http://www.w3.org/2000/svg" width="1563" height="1563">
<path d="M0 0 C1.94946922 -0.00313543 3.89893668 -0.00758363 5.84840029 -0.0132131 C11.18673888 -0.02484747 16.52491372 -0.01793065 21.8632495 -0.00787924 C27.67809909 -0.00024851 33.49292416 -0.01005705 39.30777025 -0.01760924 C50.16103053 -0.02914321 61.01423855 -0.02716533 71.86750042 -0.01895081 C82.12263448 -0.01133978 92.37774404 -0.0108629 102.63287926 -0.01667976 C103.3240135 -0.01706728 104.01514774 -0.0174548 104.72722544 -0.01785406 C107.54232568 -0.01945396 110.35742588 -0.02110009 113.17252606 -0.02280489 C139.36509646 -0.0386556 165.55764813 -0.03975665 191.75022125 -0.03136253 C192.52564862 -0.03111415 193.30107599 -0.03086576 194.10000116 -0.03060985 C194.87667518 -0.03036106 195.65334919 -0.03011227 196.45355879 -0.02985594 C220.12631125 -0.02228297 243.79905597 -0.02033381 267.47180939 -0.02392387 C269.05775056 -0.02415631 270.64369174 -0.02438778 272.22963292 -0.02461828 C278.60305723 -0.0255497 284.97648154 -0.02650571 291.34990585 -0.02749758 C309.16567406 -0.03024844 326.9814423 -0.03196036 344.79721069 -0.03285599 C345.60846251 -0.03289692 346.41971432 -0.03293786 347.25554952 -0.03298004 C373.10109771 -0.03420766 398.94664321 -0.03082829 424.79219055 -0.02430725 C426.04939323 -0.02399113 426.04939323 -0.02399113 427.33199393 -0.02366862 C440.94230666 -0.02023388 454.55261933 -0.01657544 468.16293199 -0.0128981 C522.14121903 0.00167063 576.11948375 0.00099442 630.09777069 -0.01358986 C643.70125832 -0.0172535 657.30474595 -0.02088669 670.90823364 -0.02430725 C671.74587809 -0.0245186 672.58352254 -0.02472994 673.44655016 -0.02494769 C699.26543829 -0.03141734 725.08432458 -0.03415886 750.9032135 -0.03285599 C751.71386772 -0.03281523 752.52452195 -0.03277448 753.35974145 -0.03273249 C771.15579876 -0.03179501 788.95185587 -0.029894 806.74791298 -0.02712448 C813.11560012 -0.02613708 819.48328726 -0.02519783 825.85097441 -0.02427235 C827.43505309 -0.02404018 829.01913177 -0.02380399 830.60321045 -0.02356376 C854.26895125 -0.01998463 877.93468332 -0.0230291 901.60042303 -0.03060985 C902.3758504 -0.03085823 903.15127777 -0.03110662 903.95020294 -0.03136253 C905.11119325 -0.0317346 905.11119325 -0.0317346 906.29563791 -0.03211419 C932.41347191 -0.04039282 958.53128346 -0.03733698 984.64911425 -0.0215203 C987.45525779 -0.01986328 990.26140135 -0.01825316 993.06754494 -0.01667976 C993.75620864 -0.01628914 994.44487234 -0.01589852 995.15440464 -0.01549607 C1005.38200024 -0.00994599 1015.60957034 -0.01272679 1025.83716393 -0.02046776 C1037.21955706 -0.02902216 1048.6018916 -0.0277277 1059.98427946 -0.01294452 C1065.71429447 -0.0058056 1071.44420368 -0.00337358 1077.17421538 -0.01416247 C1082.39208651 -0.02388685 1087.60975843 -0.01968809 1092.82761518 -0.00462049 C1094.69846182 -0.00161151 1096.56932513 -0.0035642 1098.44015845 -0.0112383 C1123.06298066 -0.1050327 1143.21055479 4.71430993 1161.6002121 22.19002342 C1177.32620347 38.48922843 1181.82136558 57.66308649 1181.73052883 79.58525372 C1181.73396579 81.42633281 1181.73871491 83.26740983 1181.7446498 85.10848257 C1181.75714523 90.16451306 1181.75101579 95.22037456 1181.74181612 100.27640578 C1181.73510398 105.77826213 1181.74577363 111.2800895 1181.75421196 116.78193969 C1181.76658706 126.42374353 1181.76778764 136.06549871 1181.76166153 145.70730782 C1181.7530013 159.37400637 1181.7595302 173.04066088 1181.77035919 186.70735645 C1181.79174806 213.72969658 1181.79381576 240.75201416 1181.78830215 267.77436063 C1181.78754642 271.50694789 1181.7868188 275.23953516 1181.78612018 278.97212243 C1181.78591154 280.08422532 1181.78591154 280.08422532 1181.78569869 281.21879493 C1181.78274539 297.6552392 1181.78576018 314.09168077 1181.79001647 330.52812456 C1181.79059862 332.77817646 1181.79116747 335.02822835 1181.7917321 337.27828025 C1181.79324707 343.31003729 1181.79477398 349.34179432 1181.7963251 355.37355135 C1181.80708071 397.47655192 1181.81178482 439.57954999 1181.80385494 481.68255138 C1181.80363248 482.87282445 1181.80363248 482.87282445 1181.80340553 484.08714343 C1181.80174655 492.93553435 1181.79999697 501.78392525 1181.79821252 510.63231615 C1181.7980515 511.43118432 1181.79789047 512.23005248 1181.79772457 513.05312878 C1181.7964169 519.53601237 1181.7964169 519.53601237 1181.79576338 522.74517847 C1181.78537191 573.84440087 1181.79313876 624.94358883 1181.81676483 676.04280663 C1181.82270831 688.91875929 1181.8285999 701.79471196 1181.83417416 714.67066479 C1181.83451793 715.46350363 1181.8348617 716.25634247 1181.83521588 717.07320673 C1181.84574445 741.51112342 1181.85133729 765.94903725 1181.8517313 790.38695621 C1181.85174408 791.1542605 1181.85175686 791.92156478 1181.85177003 792.71212071 C1181.85199833 809.55664559 1181.85099216 826.40117022 1181.84886098 843.24569497 C1181.84810623 849.27299317 1181.84742802 855.30029138 1181.84678083 861.32758959 C1181.84661814 862.82700476 1181.84645047 864.32641993 1181.84627781 865.8258351 C1181.84355747 889.71001178 1181.85210727 913.59416754 1181.86613192 937.47833972 C1181.88054428 962.20407915 1181.88008353 986.92977882 1181.8627572 1011.6555169 C1181.85318177 1025.90965469 1181.85465449 1040.16369051 1181.87199189 1054.41782153 C1181.88246375 1063.93795398 1181.87840577 1073.45800859 1181.86251185 1082.97813336 C1181.85386184 1088.40313868 1181.85150009 1093.82794388 1181.86678117 1099.25293908 C1181.88056488 1104.19295856 1181.8757822 1109.13260666 1181.85649598 1114.07260455 C1181.85277522 1115.84397899 1181.85567728 1117.61538367 1181.86620906 1119.38673071 C1181.97887597 1139.74719332 1177.06764908 1158.15291264 1162.69298553 1173.2283535 C1146.5286436 1189.3679035 1127.81908402 1195.7404578 1105.38415024 1195.77825728 C1103.57097542 1195.77171794 1101.75780158 1195.76490216 1099.94462872 1195.75784016 C1097.98501239 1195.76127729 1096.025398 1195.76602652 1094.06578764 1195.77196112 C1088.68529224 1195.78445415 1083.30495569 1195.77832818 1077.92445961 1195.76912745 C1072.06912169 1195.76241435 1066.21381097 1195.77308543 1060.35847884 1195.78152329 C1050.09756586 1195.79389748 1039.83669462 1195.79520177 1029.57577705 1195.78897285 C1018.56906049 1195.78233937 1007.56237256 1195.78222733 996.55565643 1195.79001999 C995.85972874 1195.79050799 995.16380105 1195.79099599 994.44678464 1195.79149877 C991.61224189 1195.79350702 988.77769917 1195.79556013 985.94315649 1195.79767051 C957.18561478 1195.81905856 928.42809424 1195.82112723 899.67054657 1195.81561347 C895.69837883 1195.81485774 891.72621109 1195.81413012 887.75404334 1195.8134315 C886.96505255 1195.81329241 886.17606176 1195.81315332 885.36316216 1195.81301001 C867.87126165 1195.81005664 850.37936368 1195.81307158 832.88746363 1195.81732779 C830.49288697 1195.81790995 828.0983103 1195.81847879 825.70373364 1195.81904342 C819.28453979 1195.8205584 812.86534595 1195.82208531 806.44615212 1195.82363643 C761.63923967 1195.83439191 716.83232959 1195.83909627 672.02541637 1195.83116627 C671.18095362 1195.83101796 670.33649087 1195.83086966 669.46643833 1195.83071686 C660.04995062 1195.82905788 650.63346293 1195.8273083 641.21697523 1195.82552385 C640.36681782 1195.82536282 639.5166604 1195.8252018 638.64074064 1195.82503589 C631.741665 1195.82372823 631.741665 1195.82372823 628.326439 1195.8230747 C573.94608616 1195.81268315 519.56576568 1195.8204503 465.18541718 1195.84407616 C451.48255767 1195.85001964 437.77969815 1195.85591123 424.07683849 1195.86148548 C423.23308208 1195.86182925 422.38932568 1195.86217302 421.52000089 1195.86252721 C395.51261054 1195.87305578 369.50522288 1195.87864862 343.49783039 1195.87904263 C342.68124734 1195.87905541 341.86466429 1195.87906819 341.0233363 1195.87908136 C323.09700274 1195.87930966 305.17066943 1195.87830349 287.244336 1195.87617231 C280.82995002 1195.87541755 274.41556403 1195.87473934 268.00117803 1195.87409215 C266.40546794 1195.87392946 264.80975784 1195.8737618 263.21404774 1195.87358914 C237.79619609 1195.87086882 212.3783641 1195.8794185 186.96051667 1195.89344324 C160.64716197 1195.90785565 134.33384463 1195.90739479 108.02049121 1195.89006852 C105.19331782 1195.88826438 102.3661444 1195.88652418 99.53897095 1195.88483429 C98.84514431 1195.88441379 98.15131766 1195.88399329 97.43646597 1195.88356004 C86.46190349 1195.87726869 75.48739244 1195.88435646 64.51283721 1195.89704349 C53.71471488 1195.90924289 42.91667709 1195.90676284 32.11856083 1195.88982318 C26.34526928 1195.88117332 20.5721658 1195.87881109 14.79888376 1195.89409249 C9.54168215 1195.90787658 4.28482951 1195.90309294 -0.97235181 1195.88380731 C-2.85742438 1195.88008668 -4.74252539 1195.88298821 -6.62757221 1195.89352039 C-29.32531063 1196.0115491 -48.92542499 1190.4727567 -65.6497879 1174.37752342 C-81.97413733 1157.42329556 -86.28485515 1137.406934 -86.15315247 1114.74286461 C-86.15733393 1112.90424604 -86.16326553 1111.06563078 -86.17076993 1109.22702277 C-86.18626993 1104.1964218 -86.17706688 1099.1661301 -86.16365812 1094.13553448 C-86.15347757 1088.65432301 -86.16656431 1083.17315759 -86.17663145 1077.69195271 C-86.19105894 1068.09256551 -86.1906518 1058.49326834 -86.18044281 1048.89387703 C-86.1660121 1035.2878332 -86.17190439 1021.68186394 -86.18355898 1008.07582003 C-86.20469015 983.38895303 -86.20616271 958.70212137 -86.19496918 934.01524925 C-86.194638 933.28448748 -86.19430681 932.55372572 -86.1939656 931.80081965 C-86.19363388 931.06888212 -86.19330216 930.33694458 -86.19296039 929.58282712 C-86.18286199 907.27113267 -86.18026472 884.95945283 -86.18505096 862.64775658 C-86.18536088 861.15283817 -86.18566951 859.65791976 -86.18597684 858.16300135 C-86.18721875 852.15532861 -86.18849342 846.14765587 -86.1898159 840.13998314 C-86.19348367 823.34674211 -86.19576626 806.55350102 -86.19696045 789.76025963 C-86.19701503 788.99557738 -86.19706962 788.23089514 -86.19712585 787.4430407 C-86.19876262 763.08215418 -86.1942572 738.72127273 -86.18556213 714.3603878 C-86.18528114 713.57043041 -86.18500014 712.78047302 -86.18471063 711.96657753 C-86.18013101 699.13871756 -86.17525308 686.3108577 -86.17034994 673.48299785 C-86.15092505 622.60830738 -86.15182665 571.73365902 -86.17127228 520.85896873 C-86.17615716 508.03753221 -86.18100142 495.21609568 -86.18556213 482.39465904 C-86.18584393 481.60516355 -86.18612572 480.81566806 -86.18641605 480.00224847 C-86.19504262 455.66642738 -86.19869754 431.33060979 -86.19696045 406.99478722 C-86.19687894 405.84860941 -86.19687894 405.84860941 -86.19679579 404.6792765 C-86.1955458 387.9045962 -86.19301109 371.12991627 -86.18931844 354.35523634 C-86.18800191 348.35298047 -86.18674958 342.35072459 -86.18551559 336.3484687 C-86.18520604 334.8553059 -86.18489112 333.3621431 -86.18457081 331.86898031 C-86.17979918 309.56405643 -86.18385688 287.25914901 -86.1939656 264.95422719 C-86.19429678 264.22346542 -86.19462796 263.49270366 -86.19496918 262.73979759 C-86.19529991 262.01038783 -86.19563064 261.28097807 -86.19597139 260.52946498 C-86.20701101 235.91284641 -86.20293217 211.29627021 -86.1818462 186.6796577 C-86.17009694 172.49014337 -86.1693403 158.30072945 -86.1844309 144.11121772 C-86.19339936 134.63302328 -86.18782008 125.15490935 -86.17041182 115.67672684 C-86.1608973 110.27656813 -86.15764196 104.87660895 -86.17203575 99.47645652 C-86.18501221 94.55785664 -86.1793886 89.6396322 -86.15931311 84.72105937 C-86.15530479 82.9585718 -86.15789506 81.19605273 -86.16813686 79.43359037 C-86.2923915 56.40591103 -79.96332898 37.22048633 -63.8372879 20.25252342 C-45.76509722 2.83687504 -23.95088774 -0.09824575 0 0 Z " fill="#000000" transform="translate(241.64978790283203,174.6224765777588)"/>
<path d="M0 0 C1.20551464 -0.00495952 2.41102927 -0.00991903 3.65307465 -0.01502883 C7.00164871 -0.02575601 10.34972522 -0.02305424 13.69827383 -0.01469534 C17.34033304 -0.00889141 20.98234411 -0.02043528 24.6243903 -0.02975702 C31.0084202 -0.04367844 37.39237924 -0.04640041 43.77642155 -0.04179764 C53.26978472 -0.03497083 62.76307603 -0.04521639 72.25642922 -0.0587552 C90.1973608 -0.08368304 108.13826265 -0.08818335 126.07920877 -0.08628923 C139.93241335 -0.08491687 153.7856076 -0.08873029 167.63881016 -0.09621429 C169.62814974 -0.09726462 171.61748931 -0.09831224 173.60682889 -0.09935716 C175.08804949 -0.10013617 175.08804949 -0.10013617 176.59919373 -0.10093093 C178.08310539 -0.10171114 178.08310539 -0.10171114 179.59699506 -0.10250711 C180.58790923 -0.10303111 181.5788234 -0.1035551 182.59976528 -0.10409497 C210.47588063 -0.1186814 238.35199218 -0.12695938 266.22811127 -0.12234497 C267.27931062 -0.12217302 268.33050996 -0.12200106 269.41356384 -0.1218239 C274.74161497 -0.12093499 280.06966609 -0.11999018 285.39771722 -0.11902589 C286.45590897 -0.11883485 287.51410072 -0.11864382 288.60435888 -0.118447 C290.74428051 -0.11805991 292.88420213 -0.11766958 295.02412376 -0.11727602 C328.32304493 -0.11130568 361.62189661 -0.1267445 394.92080212 -0.15888214 C432.32188463 -0.19494818 469.72292309 -0.21429325 507.12402409 -0.20934343 C511.11102879 -0.20887345 515.09803348 -0.2084632 519.08503819 -0.20809174 C520.55761857 -0.20793816 520.55761857 -0.20793816 522.05994806 -0.20778148 C536.88831981 -0.20658599 551.716644 -0.21856238 566.54500294 -0.23723602 C583.40701643 -0.25846025 600.26893006 -0.26233597 617.13094798 -0.24293643 C626.56933393 -0.23259985 636.00747641 -0.23610664 645.44584041 -0.25946729 C651.7497242 -0.27368785 658.05342761 -0.26974801 664.35729919 -0.25102152 C667.94959633 -0.2408611 671.54141922 -0.23856614 675.13368694 -0.25834221 C679.00528515 -0.27946381 682.87616295 -0.26184672 686.74777222 -0.24050903 C687.86019076 -0.25278656 688.9726093 -0.26506408 690.11873749 -0.27771366 C700.3022836 -0.16014265 707.50274109 3.5377995 715.12514782 10.19561005 C715.65261608 10.6535495 716.18008434 11.11148895 716.72353649 11.58330536 C722.27225163 16.45488105 727.63299358 21.54022834 732.97500134 26.63628387 C736.93545179 30.41325316 740.96557509 34.07463639 745.10048962 37.65947723 C748.32506488 40.49206419 751.43970736 43.43950838 754.56264782 46.38311005 C758.97510501 50.52296631 763.4077893 54.61334016 767.99233532 58.56279755 C772.54075193 62.5619714 776.94859173 66.72077713 781.3912611 70.83672333 C788.38171697 77.30437561 795.42131702 83.7162923 802.50796032 90.07842255 C807.90652189 94.94868452 813.24995213 99.87968245 818.60366344 104.79912567 C823.71575156 109.49549125 828.83149938 114.18636144 834.00014782 118.82061005 C835.68881977 120.34014199 837.37621882 121.86108919 839.06264782 123.38311005 C839.59068005 123.85925751 840.11871227 124.33540497 840.66274548 124.82598114 C859.84661662 142.17022754 859.84661662 142.17022754 860.56264782 151.94561005 C860.39892393 159.24769561 857.10038824 165.92402756 852.31655407 171.3713913 C850.63596275 172.87980622 848.9524623 174.15062234 847.06264782 175.38311005 C845.67046032 176.31123505 845.67046032 176.31123505 844.25014782 177.25811005 C839.08303728 179.08179612 833.96551642 179.60988756 828.81655407 177.4338913 C824.66913265 174.94857449 821.35298657 171.92655178 818.06264782 168.38311005 C813.96593728 164.16471504 809.74979784 160.17241578 805.29702282 156.3323288 C802.68413406 154.05290311 800.12334761 151.72098651 797.56264782 149.38311005 C794.42181226 146.51839189 791.27164026 143.67125102 788.06264782 140.88311005 C784.85365538 138.09496907 781.70348338 135.2478282 778.56264782 132.38311005 C774.77330656 128.92735591 770.95181084 125.51788115 767.08217907 122.1526413 C762.16528226 117.84441257 757.3362575 113.43624849 752.48452282 109.05498505 C748.71963932 105.65966066 744.95071231 102.27252662 741.12514782 98.94561005 C736.93100417 95.29373952 732.8317049 91.54044821 728.72280407 87.7932663 C725.87237748 85.21072121 722.9843889 82.67655901 720.08217907 80.1526413 C715.16528226 75.84441257 710.3362575 71.43624849 705.48452282 67.05498505 C697.84957258 60.13251944 697.84957258 60.13251944 690.06264782 53.38311005 C689.49121461 52.86494711 688.9197814 52.34678417 688.33103204 51.81291932 C685.38449461 49.95565612 683.45189165 50.00441991 679.97943783 49.99834919 C678.72441802 49.98889265 677.46939821 49.97943611 676.17634749 49.96969301 C674.78108585 49.9743229 673.38582511 49.9792294 671.9905653 49.98438263 C670.51042931 49.97894519 669.03029765 49.97219447 667.55017304 49.96424073 C663.47739663 49.94616836 659.40480211 49.94677821 655.33199501 49.95037019 C650.94208276 49.9509927 646.55223225 49.93438663 642.16234875 49.91985321 C634.55475696 49.89703435 626.94721106 49.88517644 619.33958721 49.88072395 C608.3401982 49.87427059 597.34089226 49.85134758 586.34153667 49.82438066 C568.49663227 49.78107898 550.65173135 49.75113155 532.80678844 49.72954559 C515.47018244 49.70854602 498.13360502 49.68127987 480.79702282 49.64556122 C479.19458254 49.64226298 479.19458254 49.64226298 477.55976972 49.63889811 C472.20055453 49.62782872 466.84133961 49.61663586 461.48212481 49.60538161 C417.00898305 49.51214864 372.53584939 49.44302645 328.06264782 49.38311005 C328.06264782 75.45311005 328.06264782 101.52311005 328.06264782 128.38311005 C336.92108532 128.2645163 345.77952282 128.14592255 354.90639782 128.02373505 C361.23513018 127.94928544 367.56385074 127.87741219 373.89264965 127.8092556 C382.08882974 127.72064584 390.28479265 127.62598234 398.48061657 127.50859833 C404.97023984 127.41567069 411.45985236 127.33717364 417.94985342 127.27578902 C421.38431796 127.24280638 424.81836185 127.202746 428.25251293 127.14538574 C432.09228494 127.08488302 435.93151137 127.04989138 439.77163219 127.02080536 C441.46772625 126.9852076 441.46772625 126.9852076 443.19808483 126.94889069 C450.95150219 126.92745093 456.27028688 128.06731128 462.26967907 133.31279755 C462.79948376 133.95475067 463.32928844 134.5967038 463.87514782 135.25811005 C464.41784313 135.89490692 464.96053844 136.5317038 465.51967907 137.18779755 C470.18028342 143.81883463 470.49170637 149.00460568 470.44296455 156.90347767 C470.44762447 158.07605896 470.45228439 159.24864024 470.45708552 160.4567543 C470.46699122 163.71755826 470.46343827 166.97803034 470.45425184 170.23882629 C470.44755159 173.78405219 470.45820336 177.32923266 470.46664768 180.87444896 C470.47903414 187.08998964 470.48021852 193.30545486 470.47409725 199.52100372 C470.46501894 208.76378233 470.47302798 218.00649096 470.48438849 227.24926419 C470.504076 243.75623789 470.50639879 260.26318022 470.50119329 276.77016285 C470.49663949 291.21740469 470.49723107 305.6646341 470.50303364 320.11187553 C470.5037905 322.0483791 470.50454648 323.98488267 470.50530158 325.92138624 C470.50644675 328.83938764 470.50759663 331.75738904 470.50876083 334.67539044 C470.51946933 361.81238696 470.52418753 388.94937934 470.51629066 416.08637714 C470.51599349 417.10979338 470.51569632 418.13320962 470.51539014 419.18763847 C470.5129411 427.4989554 470.51032957 435.81027228 470.50770601 444.12158916 C470.49760389 476.54089509 470.5059569 508.96014923 470.52920055 541.37944794 C470.55526311 577.78948267 470.56812368 614.19948622 470.5610128 650.60953063 C470.56029673 654.49065283 470.55962234 658.37177504 470.55897236 662.25289726 C470.55880255 663.20855159 470.55863274 664.16420591 470.55845779 665.14881945 C470.55615313 679.5856756 470.56413978 694.02250283 470.57726383 708.45935249 C470.59216058 724.87564889 470.59303778 741.29187744 470.57519292 757.70817236 C470.56561517 766.89789128 470.56709477 776.08745205 470.58442761 785.27716049 C470.59489568 791.41405044 470.59084698 797.55081959 470.57494757 803.68769761 C470.56629319 807.18540554 470.56394578 810.68280295 470.57921689 814.18049524 C470.59230462 817.9490302 470.58087511 821.71672093 470.56321907 825.485219 C470.57286958 826.57006784 470.58252009 827.65491668 470.59246305 828.77263972 C470.51947314 836.33214922 469.14501437 842.58311935 464.30092907 848.55498505 C463.66542126 849.0757663 463.02991344 849.59654755 462.37514782 850.13311005 C461.19565563 851.10957489 461.19565563 851.10957489 459.99233532 852.1057663 C455.60706967 855.51457946 451.20579027 858.90142285 446.77675915 862.25322723 C441.78816151 866.032714 436.89884974 869.91092333 432.06264782 873.88311005 C426.64416339 878.32954311 421.14925887 882.64988415 415.56264782 886.88311005 C409.20310486 891.7022013 402.97803264 896.65906767 396.8053236 901.71465302 C391.70108407 905.8873973 386.51007728 909.9263174 381.26967907 913.9260788 C377.86410659 916.52713585 374.49225217 919.17002998 371.12514782 921.82061005 C370.5436195 922.27838837 369.96209118 922.73616669 369.36294079 923.20781708 C368.18474642 924.13570625 367.00668683 925.06376658 365.8287611 925.99199677 C362.90893734 928.29185242 359.98562888 930.58726949 357.06264782 932.88311005 C355.89596421 933.79975515 354.72929755 934.71642182 353.56264782 935.63311005 C351.22931449 937.46644338 348.89598115 939.29977671 346.56264782 941.13311005 C345.98466442 941.58726288 345.40668102 942.04141571 344.81118298 942.50933075 C343.64948956 943.42204352 342.48770631 944.33464198 341.32583141 945.24712372 C338.3323112 947.59833515 335.34058028 949.95177043 332.35171032 952.3088913 C311.23437407 968.95533951 311.23437407 968.95533951 301.10171032 968.75811005 C294.19972528 967.90645122 289.82356852 963.56673618 285.38686657 958.5198288 C280.7230943 950.99450893 280.63748723 944.00460254 280.69350433 935.37335205 C280.6900428 934.06407356 280.68658127 932.75479507 280.68301484 931.40584147 C280.6738267 927.77106751 280.68331702 924.13654611 280.69584924 920.50179101 C280.70616633 916.54781863 280.6990367 912.59387146 280.69411677 908.63989401 C280.68789809 901.71003359 280.69282252 894.78025046 280.70503139 887.85039902 C280.7231351 877.54597544 280.72403893 867.24160061 280.72140543 856.93716403 C280.71746329 839.60356426 280.72748961 822.26999879 280.74545765 804.936409 C280.76320448 787.77225322 280.77475463 770.60811172 280.77801609 753.44394684 C280.77822231 752.37700974 280.77842853 751.31007263 280.778641 750.2108041 C280.77965599 744.7924412 280.78056014 739.37407829 280.78142162 733.95571536 C280.78772403 695.57050126 280.80793937 657.18530582 280.83632946 618.80010223 C280.86387942 581.50778554 280.8851319 544.21547394 280.8978529 506.92314911 C280.89844477 505.19909284 280.89844477 505.19909284 280.89904859 503.44020716 C280.90300413 491.89782622 280.90683157 480.35544523 280.91056517 468.81306421 C280.91817395 445.29958801 280.92663771 421.78611213 280.9356184 398.27263641 C280.93603027 397.19150826 280.93644214 396.11038011 280.93686649 394.9964905 C280.96447174 322.79202259 281.01200772 250.58756503 281.06264782 178.38311005 C280.28150112 178.38679722 279.50035442 178.39048439 278.69553661 178.39428329 C259.67405684 178.48268406 240.65261816 178.54884385 221.63097668 178.59035873 C212.43218126 178.6109695 203.2335231 178.63906167 194.03481579 178.68486786 C186.01567555 178.72478115 177.99663473 178.75055366 169.97739792 178.75946403 C165.7326282 178.76467119 161.48814289 178.77687877 157.24346447 178.80603027 C153.24451422 178.8332705 149.24596434 178.84153779 145.24693012 178.83554077 C143.78284113 178.83663718 142.31873814 178.84453995 140.85472965 178.85993195 C130.57848787 178.9626321 123.46218804 178.17751021 115.84389782 170.7385788 C115.13878063 170.06117645 114.43366344 169.38377411 113.70717907 168.68584442 C112.6456361 167.63880341 112.6456361 167.63880341 111.56264782 166.57061005 C110.13690441 165.18771685 108.70982716 163.80619745 107.28139782 162.4260788 C106.23363171 161.41094208 106.23363171 161.41094208 105.1646986 160.37529755 C102.48124371 157.83209291 99.70741056 155.40675397 96.91128063 152.98882294 C94.28928308 150.71136944 91.74047376 148.36293287 89.18764782 146.00811005 C83.8474668 141.09392637 78.46556228 136.2283043 73.06264782 131.38311005 C67.65971477 126.53789911 62.27900878 121.67102407 56.93764782 116.75811005 C53.70047566 113.78092724 50.45127053 110.82358149 47.12514782 107.94561005 C42.99509597 104.36508693 38.99660712 100.64731243 34.98745251 96.93291473 C30.05619128 92.36714362 25.06966813 87.86566342 20.06264782 83.38311005 C14.65926924 78.53840066 9.27900359 73.67101929 3.93764782 68.75811005 C0.70047566 65.78092724 -2.54872947 62.82358149 -5.87485218 59.94561005 C-9.52784929 56.76942519 -13.1153657 53.52479007 -16.68735218 50.25811005 C-17.24285755 49.75481171 -17.79836292 49.25151337 -18.37070179 48.73296356 C-26.05863244 41.66853584 -31.07903605 35.12459511 -31.56235218 24.44561005 C-31.3274685 16.6105616 -28.74672836 12.35246003 -23.44907093 6.8323288 C-16.27400997 0.27614102 -9.24464328 -0.05328067 0 0 Z " fill="#FDFDFD" transform="translate(225.93735218048096,296.6168899536133)"/>
<path d="M0 0 C32.01 0 64.02 0 97 0 C97.2536169 60.8461267 97.49558919 121.69224722 97.63514709 182.53875732 C97.63721795 183.43933267 97.63928881 184.33990801 97.64142242 185.26777351 C97.68631625 204.83979865 97.72786894 224.41182954 97.76597994 243.98386903 C97.78468996 253.58202073 97.80413827 263.18017088 97.82397461 272.77832031 C97.825936 273.73345053 97.82789738 274.68858074 97.8299182 275.6726543 C97.89383631 306.63015483 98.00650378 337.58724462 98.14445831 368.54449633 C98.28596959 400.3576783 98.37828664 432.17063298 98.40872485 463.98412437 C98.41304716 468.4777464 98.41793171 472.97136765 98.42315865 477.46498871 C98.42467566 478.79159956 98.42467566 478.79159956 98.42622333 480.14501062 C98.44394795 494.38057544 98.51351411 508.61543736 98.60248051 522.85071556 C98.69082034 537.16283818 98.72451265 551.47426416 98.70252066 565.78664985 C98.69111274 574.29012301 98.72150443 582.7910462 98.81196315 591.2940587 C98.86829253 596.97739926 98.86990588 602.65907405 98.8274772 608.3425305 C98.80485877 611.58049025 98.81394049 614.81267973 98.87324774 618.05031386 C99.22157096 638.23949197 99.22157096 638.23949197 93.70367348 644.12055731 C90.61905248 646.83206999 87.33531855 649.00171272 83.75382108 650.99895558 C81.44076516 652.31919956 79.40763348 653.91679707 77.34375 655.59375 C76.06354001 656.56387397 74.78231483 657.53265993 73.5 658.5 C67.38508509 663.14376806 61.35732028 667.88130786 55.3762207 672.69580078 C50.99788642 676.21542184 46.57442919 679.66582097 42.11303711 683.07983398 C37.49518952 686.61399329 32.90123873 690.17813993 28.3125 693.75 C27.56323242 694.33265625 26.81396484 694.9153125 26.04199219 695.515625 C21.98350452 698.67280097 17.93029647 701.83654041 13.8828125 705.0078125 C13.05483154 705.65524414 12.22685059 706.30267578 11.3737793 706.96972656 C9.77212113 708.22229098 8.17197636 709.47679344 6.57348633 710.73339844 C5.85700928 711.29317383 5.14053223 711.85294922 4.40234375 712.4296875 C3.45089478 713.17581299 3.45089478 713.17581299 2.48022461 713.93701172 C1 715 1 715 0 715 C0 479.05 0 243.1 0 0 Z " fill="#010101" transform="translate(554,475)"/>
<path d="M0 0 C8.17953056 -0.00128282 16.35905744 -0.00503166 24.53858668 -0.00973773 C35.77618316 -0.01595082 47.01376764 -0.0157853 58.25136477 -0.01148868 C62.43204106 -0.01003241 66.612708 -0.01068542 70.79338366 -0.01332736 C92.28758055 -0.02531342 113.74614229 0.11337312 135.22745997 0.89654279 C153.87125707 1.80780851 153.87125707 1.80780851 172.45017725 0.62673688 C185.28209192 -1.05378799 198.60072869 -0.06586235 211.2978335 2.12283063 C212.18599756 2.27348981 213.07416163 2.42414899 213.98923975 2.5793736 C228.79384263 5.17217165 242.51857965 9.11565538 256.2978335 15.12283063 C256.97024073 15.41415875 257.64264796 15.70548688 258.33543116 16.00564313 C273.09222382 22.53877709 285.24640938 32.59169129 297.2978335 43.12283063 C298.5682046 44.20757672 298.5682046 44.20757672 299.86423975 45.31423688 C304.80642757 49.58743143 309.12360394 54.10468074 313.2978335 59.12283063 C313.97330225 59.88724469 314.648771 60.65165875 315.3447085 61.43923688 C330.40446606 78.92884893 341.57374057 100.79573457 347.2978335 123.12283063 C347.49248194 123.81811872 347.68713038 124.5134068 347.88767725 125.22976422 C351.37135907 137.97195662 351.69350997 150.68909022 351.7353335 163.81033063 C351.7445936 165.04059476 351.7445936 165.04059476 351.75404078 166.29571271 C351.82784851 181.56056322 350.20236022 196.50482536 345.6103335 211.12283063 C345.35687159 211.94476911 345.10340967 212.76670758 344.8422671 213.61355329 C337.19607062 237.55206523 324.48241084 257.89490395 307.2978335 276.12283063 C306.6378335 276.84728375 305.9778335 277.57173688 305.2978335 278.31814313 C294.20242479 290.04397279 280.5780404 298.79492476 266.2978335 306.12283063 C265.69680811 306.43558942 265.09578272 306.74834821 264.47654444 307.07058454 C256.6697886 311.08530401 248.66830171 314.18331518 240.3603335 316.99783063 C239.046094 317.44569928 239.046094 317.44569928 237.70530421 317.90261579 C232.54516157 319.59067389 227.70683169 320.63395246 222.2978335 321.12283063 C224.51524319 318.90542094 226.58431252 317.82526355 229.3603335 316.37283063 C258.76550446 300.46886657 278.43804449 274.63198028 288.2665835 242.88845563 C297.31044497 209.86465845 293.16909824 173.90406327 276.4203921 144.02224469 C270.81119324 134.53125577 263.91199192 126.07229144 256.2978335 118.12283063 C255.38324366 117.13089704 255.38324366 117.13089704 254.45017725 116.11892438 C233.7021648 94.31368837 203.3315045 80.11414135 173.13621432 78.80433393 C168.62164279 78.70870246 164.11101862 78.75260432 159.59647745 78.83364701 C156.48974793 78.88907648 153.38359192 78.91854407 150.27646452 78.94228101 C146.87765136 78.96853319 143.47892415 78.99635519 140.08018947 79.03144431 C127.5106179 79.1597019 114.94271362 79.10734013 102.37285131 79.04926324 C98.25322952 79.03037675 94.13359919 79.01506956 90.01395994 79.00055432 C88.60555549 78.99557118 87.19715104 78.99058647 85.7887466 78.98560023 C85.08530721 78.98311115 84.38186782 78.98062207 83.65711208 78.97805756 C80.04400283 78.96509262 76.43089656 78.95135155 72.81779009 78.93763471 C64.49055884 78.90609369 56.16332393 78.87560874 47.83608801 78.84532744 C34.30876683 78.79611008 20.78144867 78.74611147 7.25413233 78.69558454 C-5.84612653 78.6466545 -18.94638676 78.59811544 -32.04664892 78.55007672 C-32.86117324 78.54708973 -33.67569757 78.54410273 -34.51490445 78.54102522 C-38.60323107 78.52603498 -42.69155773 78.51105215 -46.7798844 78.49607301 C-80.42064939 78.37280772 -114.06140951 78.24825909 -147.7021665 78.12283063 C-145.79952728 81.94061354 -143.89548618 85.75769324 -141.99022955 89.57417035 C-141.34436069 90.86839841 -140.6988532 92.16280689 -140.05373663 93.4574101 C-136.38128246 100.82654319 -132.67718223 108.17323459 -128.7959165 115.43533063 C-124.50117546 123.51785204 -120.38127738 131.68314223 -116.2959165 139.87283063 C-115.96844427 140.52921521 -115.64097204 141.18559979 -115.30357641 141.86187482 C-112.59097408 147.30110947 -109.88360524 152.74294567 -107.17634863 158.18484235 C-104.82273283 162.9153507 -102.46720033 167.64489691 -100.1084165 172.37283063 C-99.78003286 173.03111859 -99.45164922 173.68940656 -99.11331457 174.36764264 C-95.40925267 181.78688441 -91.66587334 189.17973912 -87.7646665 196.49783063 C-83.31783468 204.84224635 -79.07931033 213.2876968 -74.8584165 221.74783063 C-74.50883383 222.4484361 -74.15925115 223.14904157 -73.79907507 223.8708775 C-70.8970253 229.68903336 -68.00019833 235.50978649 -65.10347265 241.3305943 C-62.58663536 246.387512 -60.06795625 251.44350534 -57.5459165 256.49783063 C-57.19850282 257.19409558 -56.85108915 257.89036054 -56.49314779 258.60772443 C-51.72915121 268.14790846 -46.8686489 277.62965615 -41.86134619 287.04470563 C-38.66676195 293.05500736 -35.59047012 299.12476678 -32.53908056 305.20876813 C-31.88269976 306.51486597 -31.22339131 307.81949562 -30.5615415 309.12283063 C-29.57912192 311.05744149 -28.60455579 312.99581933 -27.631854 314.93533063 C-27.06708349 316.05552594 -26.50231298 317.17572125 -25.92042822 318.32986188 C-24.7021665 321.12283063 -24.7021665 321.12283063 -24.7021665 324.12283063 C-30.9721665 324.12283063 -37.2421665 324.12283063 -43.7021665 324.12283063 C-52.20860371 308.12565021 -60.32561872 291.95346382 -68.38868994 275.72927594 C-76.33663141 259.72616495 -76.33663141 259.72616495 -84.5771665 243.87283063 C-88.80897896 235.91556156 -92.86708007 227.87484222 -96.8896665 219.81033063 C-97.20606085 219.17610181 -97.52245519 218.54187299 -97.84843725 217.88842511 C-100.46633932 212.63860553 -103.07900211 207.38618211 -105.69154638 202.13369489 C-107.96355068 197.56639087 -110.23748435 193.00005547 -112.5146665 188.43533063 C-112.98988493 187.48261273 -112.98988493 187.48261273 -113.47470373 186.51064801 C-117.51898652 178.40950301 -121.64562284 170.36007441 -125.9007749 162.36770368 C-129.6021347 155.38359248 -133.14323206 148.3207265 -136.6709165 141.24783063 C-136.97650488 140.63521375 -137.28209326 140.02259686 -137.59694189 139.39141583 C-140.11986953 134.33156086 -142.63755039 129.26909895 -145.15510839 124.20657086 C-147.34550063 119.8024709 -149.53783333 115.39934527 -151.7334165 110.99783063 C-152.19230607 110.07777045 -152.19230607 110.07777045 -152.66046613 109.1391232 C-156.2607438 101.9269791 -159.91078905 94.74653993 -163.69826025 87.63064313 C-167.82611177 79.87518805 -171.785017 72.03902689 -175.70607275 64.17751813 C-176.01285829 63.56250691 -176.31964384 62.9474957 -176.63572592 62.31384778 C-178.8482345 57.87659846 -181.05684257 53.43741229 -183.2646665 48.99783063 C-185.78423162 43.93144278 -188.30597963 38.86615321 -190.83107275 33.80251813 C-191.13218591 33.19810643 -191.43329908 32.59369473 -191.74353689 31.97096753 C-195.78233434 23.86941803 -199.89232493 15.81444803 -204.23746008 7.87231183 C-206.7021665 3.32725633 -206.7021665 3.32725633 -206.7021665 1.12283063 C-137.80268514 0.1699838 -68.90509025 0.01009921 0 0 Z " fill="#FDFDFD" transform="translate(1012.7021664977074,521.8771693706512)"/>
<path d="M0 0 C6.6 0 13.2 0 20 0 C15.28410785 10.05026196 10.51881074 20.06600359 5.5625 30 C5.15733154 30.81484863 4.75216309 31.62969727 4.3347168 32.46923828 C2.26974916 36.58963377 0.17156574 40.68972668 -1.99462891 44.7578125 C-7.42997923 54.97180233 -12.67848267 65.27241965 -17.84375 75.625 C-18.19243196 76.32379272 -18.54111393 77.02258545 -18.90036201 77.74255371 C-21.43641773 82.82695433 -23.96859463 87.91328286 -26.5 93 C-29.38285906 98.79294361 -32.26725635 104.58511289 -35.15625 110.375 C-35.50628082 111.07658234 -35.85631165 111.77816467 -36.21694946 112.50100708 C-40.43809247 120.9551947 -44.72703229 129.36528123 -49.17297363 137.70385742 C-53.11473985 145.13578435 -56.86978689 152.66024301 -60.625 160.1875 C-60.96368607 160.86631226 -61.30237213 161.54512451 -61.65132141 162.24450684 C-64.10372769 167.16158814 -66.55225351 172.08059775 -69 177 C-71.7891018 182.60544718 -74.57976011 188.21011069 -77.375 193.8125 C-77.71179779 194.48761627 -78.04859558 195.16273254 -78.39559937 195.85830688 C-82.63491567 204.3493715 -86.92842556 212.80676933 -91.40080929 221.17810726 C-94.2819196 226.58997769 -97.05508588 232.049672 -99.78515625 237.5390625 C-100.19382935 238.35866455 -100.60250244 239.1782666 -101.02355957 240.02270508 C-102.01663852 242.0146747 -103.00877162 244.00710905 -104 246 C-103.38506459 245.99788403 -102.77012918 245.99576806 -102.13655937 245.99358797 C-65.55971088 245.86774153 -28.98286057 245.74243608 7.59399212 245.61781773 C12.00162627 245.60280034 16.40926041 245.5877785 20.81689453 245.57275391 C21.69424719 245.56976329 22.57159985 245.56677268 23.47553895 245.56369144 C37.61696592 245.51547727 51.75839162 245.46690415 65.89981689 245.41819459 C80.44774011 245.368093 94.99566464 245.31838593 109.54359043 245.26903296 C118.49531361 245.23865269 127.44703568 245.20797731 136.39875649 245.17690456 C142.5662421 245.15552601 148.73372897 245.13453618 154.90121688 245.11383021 C158.44105014 245.1019352 161.98088268 245.08988992 165.52071381 245.07737541 C168.13391502 245.06819845 170.74711737 245.05933935 173.36032081 245.0508194 C175.8630483 245.04234085 178.36577219 245.03270787 180.86849046 245.02184296 C186.60230506 245.00017908 192.33482307 244.99543163 198.06841186 245.04829058 C200.10422679 245.06679314 202.14003432 245.08116726 204.1758889 245.09453249 C206.70728561 245.11293879 209.23864309 245.13959803 211.76983654 245.17658186 C242.51125981 245.36649457 271.80003375 232.89524873 294 212 C294.53641113 211.50064941 295.07282227 211.00129883 295.62548828 210.48681641 C302.97010078 203.59576909 309.24516275 196.29767231 315 188 C315.60328125 187.1646875 316.2065625 186.329375 316.828125 185.46875 C334.73359654 159.33644019 340.27382303 124.32978751 334.82250977 93.44384766 C334.01774924 89.58762324 333.06222687 85.7926549 332 82 C331.82871582 81.34757324 331.65743164 80.69514648 331.48095703 80.02294922 C327.01330578 63.30680934 318.15100844 48.10331433 307 35 C306.24460937 34.07058594 305.48921875 33.14117188 304.7109375 32.18359375 C294.67254897 20.38261191 281.85083619 11.73568061 268 5 C271.83964927 3.72011691 274.24340091 4.72820275 277.9375 5.9375 C278.98671631 6.27648315 278.98671631 6.27648315 280.05712891 6.62231445 C306.09962995 15.23751396 328.01066961 27.12650145 348 46 C348.85980469 46.78375 349.71960937 47.5675 350.60546875 48.375 C378.20999365 74.50569023 394.07054234 113.46197419 395.29040527 151.22937012 C395.36803308 154.84083214 395.38567354 158.45029662 395.375 162.0625 C395.3737915 162.82590698 395.37258301 163.58931396 395.37133789 164.37585449 C395.19924964 204.6382087 379.72739348 242.67768912 351.44042969 271.52880859 C349.91685047 273.08492526 348.41586383 274.66115593 346.9140625 276.23828125 C315.96427282 308.36954099 273.87819812 324.2120992 229.5390625 325.15234375 C215.87677831 325.29225944 215.87677831 325.29225944 212 324 C210.43004768 323.91043935 208.85652239 323.87802901 207.28401852 323.87974548 C206.30797977 323.87837113 205.33194103 323.87699678 204.32632536 323.87558079 C203.25094985 323.87917575 202.17557434 323.88277071 201.06761169 323.88647461 C199.35583011 323.88625132 199.35583011 323.88625132 197.60946709 323.88602352 C194.43387717 323.88659931 191.25833029 323.89167445 188.08274901 323.89859343 C184.65584562 323.9049604 181.22894087 323.90553662 177.80203247 323.9067688 C171.84360091 323.90966351 165.88518166 323.91612064 159.92675591 323.92483521 C151.22257513 323.93746225 142.51839886 323.94348573 133.81421042 323.94776857 C119.57446031 323.9548554 105.33471579 323.96565064 91.0949707 323.97949219 C90.24192653 323.98032 89.38888237 323.98114781 88.50998838 323.98200071 C80.78784259 323.98953 73.06569705 323.99730563 65.34355164 324.00520325 C41.36767724 324.0297194 17.3918059 324.05089129 -6.58407921 324.0614152 C-9.00420745 324.06250014 -11.42433563 324.06369113 -13.84446383 324.06489182 C-63.56844085 324.08850353 -113.28269361 323.9013685 -163 323 C-161.57102758 319.97618545 -160.14095344 316.95289317 -158.71069336 313.9296875 C-158.30968163 313.08108154 -157.90866989 312.23247559 -157.49550629 311.3581543 C-154.26448537 304.53074043 -150.95102959 297.75082541 -147.5625 291 C-147.06685547 290.00484375 -146.57121094 289.0096875 -146.06054688 287.984375 C-143.34102659 282.55215883 -140.56257287 277.15898035 -137.71348572 271.79394531 C-133.02823616 262.96547712 -128.49228115 254.0688204 -124.03125 245.125 C-123.57401456 244.20838593 -123.57401456 244.20838593 -123.10754204 243.27325439 C-120.90216617 238.85025939 -118.70068442 234.42533069 -116.5 230 C-113.9921733 224.95704048 -111.48276441 219.91487819 -108.96875 214.875 C-108.66284439 214.26166809 -108.35693878 213.64833618 -108.04176331 213.01641846 C-104.06796275 205.05602521 -100.00703303 197.1498427 -95.8269043 189.29589844 C-92.11778756 182.29438585 -88.56741699 175.21491266 -85.03125 168.125 C-84.72570694 167.51247375 -84.42016388 166.89994751 -84.10536194 166.26885986 C-81.90071338 161.84732938 -79.69995632 157.42386656 -77.5 153 C-74.9921733 147.95704048 -72.48276441 142.91487819 -69.96875 137.875 C-69.66284439 137.26166809 -69.35693878 136.64833618 -69.04176331 136.01641846 C-65.06796275 128.05602521 -61.00703303 120.1498427 -56.8269043 112.29589844 C-53.11778756 105.29438585 -49.56741699 98.21491266 -46.03125 91.125 C-45.72570694 90.51247375 -45.42016388 89.89994751 -45.10536194 89.26885986 C-42.90071338 84.84732938 -40.69995632 80.42386656 -38.5 76 C-35.99217331 70.9570405 -33.48277339 65.9148737 -30.96875 60.875 C-30.6651292 60.26625849 -30.36150841 59.65751698 -30.04868698 59.03032875 C-25.91695758 50.75378726 -21.70007748 42.53002314 -17.36135864 34.36027527 C-13.57928646 27.23637867 -9.96128312 20.03652505 -6.375 12.8125 C-5.74628963 11.55003264 -5.11738328 10.28766286 -4.48828125 9.02539062 C-2.99028455 6.01787416 -1.49484843 3.00908251 0 0 Z " fill="#FDFDFD" transform="translate(969,941)"/>
<path d="M0 0 C74.58 0 149.16 0 226 0 C226 26.4 226 52.8 226 80 C191.29460942 80.36272731 191.29460942 80.36272731 176.72265625 80.43945312 C166.6709651 80.4928042 156.61995421 80.55543333 146.56884766 80.67895508 C139.24772595 80.76888387 131.92715738 80.82677611 124.60549867 80.84679645 C120.73121209 80.85849346 116.85850737 80.88582199 112.98472977 80.95157051 C109.33166252 81.0130655 105.68081462 81.03142658 102.0272789 81.01796913 C100.06082446 81.02159216 98.09460716 81.06981955 96.12878418 81.11978149 C89.30267187 81.04891591 85.50825559 80.24768235 80.33602905 75.62876892 C78.86773886 74.10766681 77.41962755 72.5666159 76 71 C74.89091879 69.95969944 73.77282636 68.92868428 72.63671875 67.91796875 C71.65305162 67.00845474 70.66997723 66.09829924 69.6875 65.1875 C68.57813428 64.16144829 67.468759 63.13540693 66.359375 62.109375 C65.80443359 61.59568359 65.24949219 61.08199219 64.67773438 60.55273438 C61.9328251 58.01233522 59.18540353 55.47465958 56.4375 52.9375 C55.89963867 52.44088867 55.36177734 51.94427734 54.80761719 51.43261719 C49.2180169 46.27428202 43.61005357 41.13606885 38 36 C31.28079593 29.84849106 24.56808666 23.69029357 17.88208008 17.50268555 C15.11551533 14.94420859 12.33994266 12.39672843 9.546875 9.8671875 C8.99322266 9.36445313 8.43957031 8.86171875 7.86914062 8.34375 C6.81280281 7.385528 5.75430359 6.42968177 4.69335938 5.4765625 C1.11149945 2.2229989 1.11149945 2.2229989 0 0 Z " fill="#000000" transform="translate(281,346)"/>
<path d="M0 0 C0.53625 0.391875 1.0725 0.78375 1.625 1.1875 C-2.20017513 3.57823445 -5.97165524 3.74716552 -10.375 4.1875 C-7.42079209 1.23329209 -4.22470348 -1.4452933 0 0 Z " fill="#BCBCBC" transform="translate(1245.375,838.8125)"/>
</svg>
